SplineFontDB: 3.0
FontName: CoelacanthPearlBold
FullName: CoelacanthPearlBold
FamilyName: Coelacanth
Weight: Bold

StartChar: a
Encoding: 97 97 0
Width: 452
VWidth: 1159
Flags: HMW
AnchorPoint: "Top" 220 537 basechar 0
AnchorPoint: "Ogonek" 354 18 basechar 0
AnchorPoint: "Bottom" 203 -15 basechar 0
LayerCount: 2
Fore
SplineSet
281 245 m 1
 280 246 278 246 276 246 c 1
 229 244 182.143303266 224.775790625 165 214 c 0
 130 192 126 175 126 150 c 3
 126 101.522727273 156 71 208 71 c 3
 223.579188094 71 256.684162381 86 282 111 c 1
 280.5 138.887412109 280 166.773935546 280 202 c 3
 280 218.987304688 282 235.444335938 281 245 c 1
257 525 m 3
 284 525 348.289251258 468.15830537 363 441 c 0
 376 417 375 386 375 367 c 1
 375 294.143629807 373 194.143028846 373 127 c 3
 373 93.785650486 385.149691198 89.1782930087 391 82 c 0
 392 78 397 76 398 76 c 3
 404.25 76 431.75 85 433 85 c 1
 442 26 l 1
 425.741806402 19.052734375 374.258193598 -7 358 -7 c 3
 336.374195156 -7 311.810602023 8.46582957146 301 39 c 1
 245.343391734 6 197.638128698 -10 139 -10 c 3
 42 -10 30 56 30 112 c 1
 30 140.21 31 182.98 42 203 c 1
 48 219 59 231 70 236 c 1
 146 281 196 291 282 306 c 1
 282 342 l 1
 282 375 277 387 271 398 c 1
 267 403 234 444 212 444 c 3
 171 444 155 421 155 418 c 3
 155 410 162 392 162 392 c 1
 54 353 l 1
 54 354 43 376 43 393 c 3
 43 417 54.3808197705 439.509815652 79 459 c 0
 103 478 208 525 257 525 c 3
EndSplineSet
Substitution2: "case-1" A
Substitution2: "pcap-1" a.pcap
Substitution2: "smcp-1" a.smcp
EndChar

StartChar: b
Encoding: 98 98 1
Width: 528
VWidth: 1159
Flags: HMW
AnchorPoint: "Bottom" 243 -15 basechar 0
AnchorPoint: "Top" 145 720 basechar 0
LayerCount: 2
Fore
SplineSet
152 385 m 1
 153 304 151 228 151 147 c 1
 151 144 150 142 151 141 c 1
 181 94 236 64 278 64 c 3
 355 64 418 127 418 221 c 3
 418 306 341 423 246 423 c 3
 207 423 168 396 152 385 c 1
0 676 m 1
 47 678 87 704 135 744 c 1
 179 714 l 1
 169 689 165.085531678 656.989076197 163 641 c 0
 157 595 153 530 152 453 c 1
 188 473 238 500 295 500 c 3
 391 500 508 373 508 269 c 3
 508 116 389 -11 241 -11 c 3
 160 -11 132 20 121 20 c 1
 111 20 101 5 85 -16 c 1
 33 9 l 1
 33 10 42 41 45 48 c 1
 47.3333333333 64 60.0055428872 97.0074536439 61 149 c 0
 62.6567392309 235.618206202 65 288.377521614 65 375 c 3
 65 484.063408115 62.9754335108 509.603872017 57 581 c 0
 55.3861943142 600.282195521 48.6666666667 618 32 617 c 1
 28 617 12 615 12 615 c 1
 0 676 l 1
EndSplineSet
Substitution2: "case-1" B
Substitution2: "pcap-1" b.pcap
Substitution2: "smcp-1" b.smcp
EndChar

StartChar: c
Encoding: 99 99 2
Width: 444
VWidth: 1159
Flags: HMW
AnchorPoint: "Top" 252 537 basechar 0
AnchorPoint: "Bottom" 243 -15 basechar 0
LayerCount: 2
Fore
SplineSet
350 370 m 1
 336.303571429 384 275.196428571 431 232 431 c 3
 161.730769231 431 116 367 116 274 c 3
 116 168.927184466 185.12 79 278 79 c 3
 318.4 79 343.915789474 95 379 122 c 1
 421 56 l 1
 372.301204819 24 316.34939759 -10 249 -10 c 3
 189.903225806 -10 20 39.7211155378 20 230 c 3
 20 389 133.46835443 516 269 516 c 3
 334.571428571 516 399.102040816 485 422 464 c 1
 407 399 418 404 350 370 c 1
EndSplineSet
Substitution2: "case-1" C
Substitution2: "pcap-1" c.pcap
Substitution2: "smcp-1" c.smcp
EndChar

StartChar: d
Encoding: 100 100 3
Width: 525
VWidth: 1159
Flags: HMW
AnchorPoint: "Bottom" 240 -15 basechar 0
AnchorPoint: "Top" 372 732 basechar 0
LayerCount: 2
Fore
SplineSet
376 39 m 1
 333 13 287 -10 229 -10 c 3
 104 -10 20 103 20 230 c 3
 20 320 66.1082822094 418.820094919 131 458 c 0
 184 490 233 500 292 500 c 3
 313.395348837 500 348.744186047 491.642857143 372 487 c 1
 371.75 527.61682243 371.083333333 566.252336449 370 593 c 1
 366.514285714 613 354.257142857 615 341 615 c 3
 336 615 321 611 314 610 c 1
 298 670 l 1
 352 682 405 703 445 743 c 1
 493 713 l 1
 488 698 478.682674473 670.038903106 477 655 c 0
 461 512 461 347 461 190 c 3
 461 154.72 462.666666667 115.24 466 85 c 1
 467.527777778 74 477.040469286 66.3913636763 488 67 c 0
 497.16179123 67.5087990607 504.463414634 69.1818181818 513 70 c 1
 517 6 l 1
 488.605263158 -6.69230769231 448.561403509 -27 434 -27 c 3
 418.4 -27 395.548424676 -17.87106169 386 6 c 0
 382 16 378 30 376 39 c 1
236 423 m 3
 213 423 179.196462034 414.757169627 157 397 c 0
 137 381 111 338 111 298 c 3
 111 173 173 70 281 70 c 3
 318 70 352 87 377 107 c 1
 377.666666667 172.777777778 377.666666667 266.111111111 375 331 c 1
 372.606060606 361.571428571 357 392 319 406 c 0
 293.663103754 415.334645986 254.180952381 423 236 423 c 3
EndSplineSet
Substitution2: "case-1" D
Substitution2: "pcap-1" d.pcap
Substitution2: "smcp-1" d.smcp
EndChar

StartChar: e
Encoding: 101 101 4
Width: 464
VWidth: 1159
Flags: HMW
AnchorPoint: "Bottom" 243 -15 basechar 0
AnchorPoint: "Ogonek" 364 18 basechar 0
AnchorPoint: "Top" 252 537 basechar 0
LayerCount: 2
Fore
SplineSet
256 517 m 3
 329.713867188 517 405.318359375 458.301757812 428 364 c 1
 431 352 434 345 440 344 c 1
 440 280 l 1
 339.459197216 273.333007812 221.115284455 264 130 256 c 1
 130 252 130 247 130 243 c 1
 136.846679688 136.906077348 192.598632812 70 264 70 c 3
 306.545192686 70 357.363995207 115 381 158 c 1
 438 115 l 1
 401.451171875 56 339.4296875 -12 232 -12 c 3
 80.87890625 -12 22 129.328 22 230 c 3
 22 419 152.5 517 256 517 c 3
239 444 m 3
 195.536132812 444 141.536132812 401.983398438 131 320 c 1
 324 334 l 1
 327 334 328 337 328 340 c 1
 325.302734375 396.342773438 280.646484375 444 239 444 c 3
EndSplineSet
Substitution2: "case-1" E
Substitution2: "pcap-1" e.pcap
Substitution2: "smcp-1" e.smcp
EndChar

StartChar: f
Encoding: 102 102 5
Width: 330
VWidth: 1159
Flags: HMW
AnchorPoint: "Bottom" 145 -15 basechar 0
AnchorPoint: "Top" 208 735 basechar 0
LayerCount: 2
Fore
SplineSet
298 749 m 7
 335 749 378 733 410 696 c 5
 416.405956187 662.9025597 378.96709363 626.404092479 354 612 c 5
 323 646 291 670 266 670 c 7
 210 670 196 639 184 556 c 4
 183 549 181 529 180 498 c 5
 229.92 499 275.04 501 324 503 c 5
 324 433 l 5
 274.039215686 435 226.960784314 437 177 439 c 5
 176 394.292207792 170 324.162337662 170 304 c 7
 170 232.601036269 176.057692308 133.740932642 185 92 c 4
 188.872453669 71.1432480337 199 65 219 64 c 4
 236.777777778 63 257.222222222 62 275 61 c 5
 270 -8 l 5
 227 -3 167 1 118 1 c 5
 87.2956521739 1 38.9130434783 -4 11 -7 c 5
 9 59 l 5
 21.16 60 35.6 59 47 62 c 4
 66 65 74 69 75 82 c 4
 82.5 137.30726257 87 213.631284916 87 280 c 7
 87 306.761363636 87 387.9375 85 437 c 5
 61 436 35 434 8 433 c 5
 8 503 l 5
 33 502 60 500 82 499 c 5
 80 534 79 545 79 558 c 7
 79 614 126 656 178 697 c 4
 208 721 261 749 298 749 c 7
EndSplineSet
Substitution2: "salt-1" f.alt
Substitution2: "case-1" F
Substitution2: "pcap-1" f.pcap
Substitution2: "smcp-1" f.smcp
EndChar

StartChar: g
Encoding: 103 103 6
Width: 467
VWidth: 1159
Flags: HMW
AnchorPoint: "Bottom" 222 -162 basechar 0
AnchorPoint: "Top" 231 537 basechar 0
LayerCount: 2
Fore
SplineSet
175 130 m 1
 177.923076923 122.333333333 183.769230769 107 213 107 c 3
 246 107 278 122 320 122 c 3
 411 122 456 59 456 -2 c 3
 456 -122.382165605 260 -177 176 -177 c 7
 65 -177 15 -111 15 -59 c 3
 15 0.537634408602 66.6455696203 36.9892473118 100 54 c 1
 66.170212766 79.3953488372 53.7659574468 109.674418605 47 138 c 1
 74 156 105 168 135 180 c 1
 69 202.01986755 30 253.986754967 30 313 c 3
 30 435 147 514 223 514 c 3
 262 514 300 504 335 486 c 1
 361.950195312 488 384.087890625 487 412 487 c 3
 440.983398438 487 446.466796875 486 459 486 c 1
 458.181640625 478 453 402 453 402 c 1
 436 407 420.905124111 409.349145982 405 412 c 0
 399 413 395 412 390 412 c 1
 402 393 410 360 410 335 c 3
 410 251.406091371 304.855404241 184.866154464 232 156 c 0
 208.39240165 146.646396275 181.333333333 133.545454545 175 130 c 1
197 446 m 3
 167.931116293 446 121 398.857142857 121 336 c 3
 121 275.364963503 160.958762887 238.642335767 223 219 c 1
 269.5 231.811320755 316 270.245283019 316 316 c 3
 316 366.363636364 279.308333333 446 197 446 c 3
91 -42 m 3
 91 -75 147 -86 193 -86 c 3
 256 -86 385 -59.1886792453 385 -15 c 3
 385 17 364 30 343 30 c 3
 296.762711864 30 253.677966102 14 219 14 c 3
 199.852941176 14 170.676470588 20.4 157 22 c 1
 107 2.52173913043 91 -23.9130434783 91 -42 c 3
EndSplineSet
Substitution2: "case-1" G
Substitution2: "pcap-1" g.pcap
Substitution2: "smcp-1" g.smcp
EndChar

StartChar: h
Encoding: 104 104 7
Width: 538
VWidth: 1159
Flags: HMW
AnchorPoint: "Top" 149 720 basechar 0
AnchorPoint: "Bottom" 269 -15 basechar 0
LayerCount: 2
Fore
SplineSet
158 390 m 1
 158 343 158 268 159 191 c 1
 161 145.365079365 160 94.253968254 165 76 c 1
 166 64.75 174.355736874 62.2348947323 183 61 c 0
 188.25 60 200.25 58 207 58 c 1
 197 -5 l 1
 169.790697674 -1 151.651162791 3 119 3 c 1
 89 3 46 -2 16 -5 c 1
 11 59 l 1
 21 60 28.9509564335 61.2631282725 39 63 c 0
 49.7142857143 65.5 57.7142857143 73.875 59 90 c 1
 63 137.180487805 69 217.024390244 69 276 c 3
 69 494.827586207 64 586.965517241 59 610 c 1
 57 617.272727273 52.001652756 624 45 624 c 3
 39.9107176053 624 26.347826087 622.461538462 19 622 c 1
 -1 683 l 1
 49 692 101 715 139 747 c 1
 183 712 l 1
 180 697 173.419670616 666.933599467 171 653 c 0
 163.416666667 609.331606218 159.083333333 532.150259067 158 457 c 1
 217.364197531 490.714285714 291.820987654 516 321 516 c 3
 415 516 466.147329524 450.011051431 472 371 c 0
 474 344 477 248 477 184 c 3
 477 141.324584252 481 101.516666666 484 83 c 1
 488.066666667 63 499.505276815 60.2851407375 507 59 c 0
 511.370681283 58.2505472945 523.026315789 58.2 528 57 c 1
 516 -7 l 1
 489 -1.66666666667 471 1 441 1 c 1
 407.33 1 376.39 -3.5 350 -8 c 1
 341 55 l 1
 348.428571428 55.8 354.093239576 57.5542540585 361 59 c 0
 372.083333333 60.6 378.821296275 76.5124584396 380 91 c 0
 383 127.873239436 386 183.183098591 386 210 c 3
 386 248.464646465 377.745798932 330.614104122 375 346 c 0
 365.422535211 399.666666667 343.14084507 438 288 438 c 3
 238.927152318 438 202.768211921 415.846153846 158 390 c 1
EndSplineSet
Substitution2: "case-1" H
Substitution2: "pcap-1" h.pcap
Substitution2: "smcp-1" h.smcp
EndChar

StartChar: k
Encoding: 107 107 10
Width: 503
VWidth: 1159
Flags: HMW
AnchorPoint: "Top" 145 720 basechar 0
AnchorPoint: "Bottom" 247 -15 basechar 0
LayerCount: 2
Fore
SplineSet
148 300 m 1
 193.76119403 333.489039964 254.776119403 398.49601863 294 431 c 1
 297 433 296 436 294 437 c 1
 286.090766058 439 274.227701822 440 265 441 c 1
 269 503 l 1
 298.65234375 501 324.478515625 498 357 498 c 1
 390.984706038 498 429.015293962 501 463 505 c 1
 468 442 l 1
 397.5 436.935546875 365.222598805 408.63671875 327 377 c 1
 240 308 l 1
 298.420009854 223.333059896 375.185797614 151.666940104 451 77 c 1
 467.070415296 61.904296875 483.807514391 58.7998046875 496 56 c 1
 493 -10 l 1
 456.398359375 -5 446.2740625 0 405 0 c 1
 372.149414062 0 343.73828125 -4.2001953125 310 -9 c 1
 305 60 l 1
 311.080859375 60.3999023438 316.756835937 61.6000976562 320 62 c 1
 280.660824424 124.25760438 241 170 159 247 c 1
 159 246.400390625 149 241.599609375 149 241 c 1
 154.5 178 159.283017291 109.940307838 160 97 c 0
 160.78667693 82.8018310458 168.493332216 66.8811078527 178 65 c 0
 184.174017255 63.778331945 192.519972279 61.66640625 200 61 c 1
 193 -10 l 1
 155.247979526 -4.0771484375 145.118904902 1 100 1 c 1
 71.1572265625 1 42.314453125 -3.2001953125 11 -8 c 1
 4 58 l 1
 14.0002790179 58.7145182292 25.111328125 60.1427408854 34 63 c 1
 44 66 49 78 53 98 c 1
 62.9166666667 144.153110048 67 222.526315789 67 280 c 3
 67 443.363742236 59.9916994987 551.048985835 54 600 c 0
 51.8384770532 617.659220128 46 622.466796875 30 622 c 1
 23.2639160156 621.428710938 14.1511230469 620.571289062 9 620 c 1
 0 688 l 1
 60.1103515625 697.633789062 91.435546875 710.478515625 138 745 c 1
 183 710 l 1
 176 695 164.307573276 665.976566334 163 651 c 0
 158 593.731445312 148 411.765625 148 300 c 1
EndSplineSet
Substitution2: "case-1" K
Substitution2: "pcap-1" k.pcap
Substitution2: "smcp-1" k.smcp
EndChar

StartChar: l
Encoding: 108 108 11
Width: 245
VWidth: 1159
Flags: HMW
AnchorPoint: "Top" 132 720 basechar 0
AnchorPoint: "Bottom" 122 -15 basechar 0
LayerCount: 2
Fore
SplineSet
166 303 m 7
 166 232.096197587 170.666666667 116.07046908 176 82 c 5
 178 67 185 63 193 62 c 5
 208.599689094 58.7138671875 222.400310906 57.7138671875 238 56 c 5
 233 -9 l 5
 191.857421875 -4.84643554687 157.571289062 0 113 0 c 5
 79.390625 0 38.8857421875 -4.80034722222 7 -8 c 5
 5 57 l 5
 15.9680989584 57.66640625 28.5805431548 59.33359375 39 61 c 5
 58 63 63 74.3636363636 64 82 c 5
 70.5714285714 132.854631697 79 221.378704202 79 276 c 7
 79 506.815216346 73.5796841051 583.44539082 69 604 c 4
 66.5979306846 614.78100473 57.5712890625 625 49 625 c 7
 42.9042537992 625 27.9513003701 622.856933594 20 622 c 5
 6 683 l 5
 70.0732421875 695.028320312 104.366210938 707.056640625 154 744 c 5
 199 709 l 5
 192.35 694 181.698632726 664.931219047 180 650 c 4
 172.259615385 581.9609375 166 417.694335938 166 303 c 7
EndSplineSet
Substitution2: "case-1" L
Substitution2: "pcap-1" l.pcap
Substitution2: "smcp-1" l.smcp
EndChar

StartChar: m
Encoding: 109 109 12
Width: 816
VWidth: 1159
Flags: HMW
AnchorPoint: "Top" 412 537 basechar 0
AnchorPoint: "Bottom" 415 -15 basechar 0
LayerCount: 2
Fore
SplineSet
756 190 m 3
 756 139.009765625 758.99987793 92 761 68 c 1
 761 65 762 64 766 63 c 1
 773.047802734 62.2725694444 797.012426758 59.5655381944 805 59 c 1
 803 -8 l 1
 767.958867612 -2.85697115385 747.713081691 0 708 0 c 3
 676.959095348 0 653.877286044 -5 630 -10 c 1
 622 53 l 1
 632.333562677 54 644.603937323 54.5 653 57 c 1
 657 58 659 63 663 89 c 1
 665 108 669 155 669 170 c 3
 669 217.71875 665 303.41796875 663 319 c 1
 654.391304348 386 638.130434783 427 575 427 c 3
 546.147460938 427 496.557617188 390 465 351 c 1
 465 347 465 345 465 344 c 1
 465 321 465 257 465 224 c 3
 465 162.5390625 466 94.947265625 469 73 c 1
 470 64 475 59 481 57 c 1
 486.076923077 56.0002441406 505.75 52.9997558594 514 52 c 1
 507 -9 l 1
 467.058498938 -3.21459960938 456.598111347 0 410 0 c 3
 379.615651334 0 353.788261499 -4.5 331 -9 c 1
 323 54 l 1
 331.592673277 54.8889508929 345.555313501 56.6668526786 352 58 c 1
 358.25 58 364.5 61 367 88 c 1
 369.142578125 111 371 168 371 186 c 3
 371 233.860351562 367 335.44140625 363 354 c 1
 356.259765625 396 337.40234375 435 290 435 c 3
 248.641601562 435 191.526367188 387 161 354 c 1
 163 265.27734375 157 122.75390625 163 85 c 1
 166 67.5 174.583007812 62.5 182 60 c 1
 187 59.0910993304 201.09109933 55.4547991071 207 55 c 1
 197 -7 l 1
 159.862821691 -3.7693359375 146.358072917 0 105 0 c 3
 73.9087975543 0 41.0912024457 -4.19982910156 10 -7 c 1
 6 54 l 1
 15.7560716712 55.3330078125 21.3060455642 55.1451973281 31 58 c 0
 50.7373046875 63.8125 55.4736328125 66.71875 61 89 c 1
 69 118.791338853 72 194.263451805 72 232 c 3
 72 252.047851562 69.4295667417 365.063437617 63 385 c 0
 55.576171875 408.01953125 56 412 40 412 c 1
 32.4736328125 412 23.5791015625 411 14 411 c 1
 9 470 l 1
 62.4375 477 76.5 474 129 520 c 1
 173 485 l 1
 167 465.384765625 162.713867188 449.23046875 161 425 c 1
 201.517578125 462 267.729492188 512 329 512 c 3
 390.983471074 512 441.603305785 464.505263158 454 418 c 1
 497.947368421 455.542168675 548.730994152 500 621 500 c 3
 740 500 752 404 754 350 c 1
 756 309.024414062 756 232.926757812 756 190 c 3
EndSplineSet
Substitution2: "case-1" M
Substitution2: "pcap-1" m.pcap
Substitution2: "smcp-1" m.smcp
EndChar

StartChar: n
Encoding: 110 110 13
Width: 533
VWidth: 1159
Flags: HMW
AnchorPoint: "Top" 286 537 basechar 0
AnchorPoint: "Bottom" 277 -15 basechar 0
LayerCount: 2
Fore
SplineSet
64 420 m 1
 62 425 56 428 51 428 c 1
 38.88671875 428 24.9091796875 426 10 426 c 1
 9 485 l 1
 60.1875 495 74.8125 488 126 530 c 1
 173 500 l 1
 167 493 167 456 166 445 c 1
 211.817610063 478 264.459119497 519 321 519 c 3
 424 519 474 469 474 380 c 3
 474 329.333333333 476 241.641025641 476 190 c 3
 476 151.795408432 478.058872627 96.6847723271 481 72 c 0
 481.634639117 66.6734975638 483.666666667 65.1428571429 489 64 c 1
 493.5 62.9998046875 518.8125 59.0001953125 525 58 c 1
 523 -8 l 1
 487.151367188 -1.84615384615 472.444335938 2 432 2 c 3
 401.103448276 2 372.137931035 -2.5 348 -7 c 1
 346 55 l 1
 354.650839315 57 371.232501056 59 377 61 c 1
 379 63 380 71 382 85 c 1
 385.5 120.431034483 389 193.655172414 389 222 c 3
 389 260.540540541 382.142857143 345.702702703 380 360 c 1
 374.114285714 400 362.514285714 437 312 437 c 3
 252 437 195 409 162 385 c 1
 159 278.671826625 162 111.303405573 169 67 c 1
 170 60 182 59 189 58 c 1
 192.878605769 57.75 200.63641827 57.25 205 57 c 1
 203 -6 l 1
 164.2 -2.36363636364 149.905263158 2 106 2 c 3
 73 2 40 -2.2 7 -5 c 1
 7 58 l 1
 19.36328125 59 29.6015391428 59.2463906373 41 61 c 0
 54 63 56 63 60 76 c 1
 67 104 71 170 71 204 c 3
 71 237.230769231 68 395.56561086 64 420 c 1
EndSplineSet
Substitution2: "case-1" N
Substitution2: "pcap-1" n.pcap
Substitution2: "smcp-1" n.smcp
EndChar

StartChar: o
Encoding: 111 111 14
Width: 550
VWidth: 1159
Flags: HW
HStem: -27 74<228.683 364.173> 443 77<186.028 324.893>
VStem: 20 100<175.411 347.705> 426 104<146.108 331.039>
AnchorPoint: "Bottom" 278 -15 basechar 0
AnchorPoint: "Ogonek" 413 18 basechar 0
AnchorPoint: "Top" 275 537 basechar 0
LayerCount: 2
Fore
SplineSet
275 520 m 3
 436.282226562 520 530 379 530 254 c 3
 530 128.572953737 431.922851562 -11 275 -11 c 3
 138.782226562 -11 20 97.9962264151 20 238 c 3
 20 419 171.474609375 520 275 520 c 3
258 443 m 3
 174.256835938 443 120 387.729492188 120 269 c 3
 120 166.945145341 208.84765625 63 292 63 c 3
 380.938476562 63 426 126.65999349 426 239 c 3
 426 360.379882812 327.71484375 443 258 443 c 3
EndSplineSet
Substitution2: "case-1" O
Substitution2: "pcap-1" o.pcap
Substitution2: "smcp-1" o.smcp
EndChar

StartChar: p
Encoding: 112 112 15
Width: 526
VWidth: 1159
Flags: HMW
AnchorPoint: "Top" 269 537 basechar 0
AnchorPoint: "Bottom" 141 -154 basechar 0
LayerCount: 2
Fore
SplineSet
66 80 m 3
 66 200.193333333 57.0526315789 358.133333333 50 378 c 1
 46.7 387 42.3287253677 391 37 391 c 3
 32.6097560975 391 17.6829268293 391 1 391 c 1
 -9 451 l 1
 37 458 68 468 109 514 c 1
 135 507 146 500 150 465 c 1
 193 483 243 509 290 509 c 3
 412 509 507 380 507 291 c 3
 507 128 377 9 251 9 c 3
 225 9 184 14 162 23 c 1
 162 -10.6804123711 164 -64.7731958763 168 -76 c 1
 169 -88 177 -92 183 -92 c 1
 203 -95 223 -96 242 -97 c 1
 240 -165 l 1
 194 -164 172 -162 121 -162 c 1
 88.7741935484 -162 44.0161290323 -170.307692308 10 -174 c 1
 5 -107 l 1
 19.25 -106.166666667 31.25 -103.666666667 44 -102 c 1
 57 -98 60 -104 60 -86 c 1
 66 -57.6585365854 66 -7.0487804878 66 80 c 3
249 427 m 3
 210 427 180 406 151 387 c 1
 151 245 151 203 158 130 c 1
 197 108 237 90 289 90 c 3
 381 90 419 184 419 241 c 3
 419 324 348 427 249 427 c 3
EndSplineSet
Substitution2: "case-1" P
Substitution2: "pcap-1" p.pcap
Substitution2: "smcp-1" p.smcp
EndChar

StartChar: q
Encoding: 113 113 16
Width: 574
VWidth: 1159
Flags: HMW
AnchorPoint: "Top" 307 537 basechar 0
AnchorPoint: "Bottom" 438 -154 basechar 0
LayerCount: 2
Fore
SplineSet
400 109 m 1
 402 194 405 270 406 354 c 1
 407 353 405 360 403 363 c 1
 382 415 329 437 283 437 c 3
 204 437 136 354 136 297 c 3
 136 199 212 81 314 81 c 3
 362 81 387 98 400 109 c 1
399 31 m 1
 358 19 308 0 249 0 c 3
 131 0 37 139 37 237 c 3
 37 364 150 514 318 514 c 3
 400 514 415 489 433 489 c 1
 443 489 457 507 473 524 c 1
 519 495 l 1
 513 479 511 470 503 448 c 1
 500 431 497 399 492 321 c 1
 493 297 494 164 494 119 c 1
 494 -6 496 -52 498 -73 c 1
 499 -85 503 -90 510 -91 c 1
 531 -93 544 -95 563 -95 c 1
 559 -167 l 1
 524 -165 497 -164 445 -164 c 1
 410 -164 368 -171 336 -175 c 1
 331 -105 l 1
 344 -104 355 -102 367 -101 c 1
 384 -98 397 -95 397 -92 c 1
 399 -82 399 -16 399 31 c 1
EndSplineSet
Substitution2: "case-1" Q
Substitution2: "pcap-1" q.pcap
Substitution2: "smcp-1" q.smcp
EndChar

StartChar: r
Encoding: 114 114 17
Width: 406
VWidth: 1159
Flags: HMW
AnchorPoint: "Top" 178 537 basechar 0
AnchorPoint: "Bottom" 161 -15 basechar 0
LayerCount: 2
Fore
SplineSet
164 221 m 3
 164 187 166.8 101.514648438 171 85 c 1
 173 83 177.016386714 62.4300129209 208 61 c 0
 229.666666667 60 252.275362319 58 273 57 c 1
 271 -2 l 1
 229 -1 160 1 112 1 c 3
 79.5257731959 1 40.5567010309 -3.7998046875 7 -7 c 1
 4 57 l 1
 19.652173913 57.6669921875 40.5217391304 58.3330078125 52 61 c 1
 55 62 62 66 65 86 c 1
 69 113.36328125 73 228.681640625 73 258 c 3
 73 280 70.2857142857 358 64 381 c 1
 59.5263157895 397 54.8718967596 402 47 402 c 3
 37.5928050499 402 25.4166666667 400 10 398 c 1
 5 458 l 1
 52.101624504 461.883789062 92.6087394593 483.24609375 135 525 c 1
 149 516 168 511 168 482 c 3
 168 473 163 436 163 420 c 1
 207 466 284 526 327 526 c 3
 356 526 395 491.046875 395 448 c 3
 395 438.944335938 389 388 299 392 c 1
 294 408 291 429 274 429 c 1
 251 429 164 360 163 344 c 1
 163 307 164 239 164 221 c 3
EndSplineSet
Substitution2: "case-1" R
Substitution2: "pcap-1" r.pcap
Substitution2: "smcp-1" r.smcp
EndChar

StartChar: s
Encoding: 115 115 18
Width: 396
VWidth: 1159
Flags: HMW
AnchorPoint: "Top" 210 537 basechar 0
AnchorPoint: "Bottom" 205 -15 basechar 0
LayerCount: 2
Fore
SplineSet
82 156 m 1
 101.05511811 99.8571428572 135.354330709 62 203 62 c 3
 251 62 277 88.5263157895 277 118 c 3
 277 175.391304348 253.801234556 180.190660232 189 214 c 0
 133.635843433 240.998570177 50 263.604651163 50 372 c 3
 50 443 121 514 210 514 c 3
 259 514 304 505 344 499 c 1
 341.9 490.074380165 353.8 443.958677686 358 409 c 1
 313 390 l 1
 292.118644068 422.607594937 249.406779661 446 201 446 c 3
 163 446 145 420.729729729 145 391 c 3
 145 364.297029703 158.009237557 334.148673883 238 304 c 0
 342 262.006060606 377 221.036363636 377 135 c 3
 377 42.5570469799 274 -7 189 -7 c 3
 123 -7 73 9 25 24 c 1
 31 43 36 64 36 87 c 1
 36 104.666666667 29.6470588235 129.246376812 24 140 c 1
 82 156 l 1
EndSplineSet
Substitution2: "case-1" S
Substitution2: "pcap-1" s.pcap
Substitution2: "smcp-1" s.smcp
EndChar

StartChar: t
Encoding: 116 116 19
Width: 336
VWidth: 1159
Flags: HMW
AnchorPoint: "Top" 160 599 basechar 0
AnchorPoint: "Bottom" 174 -15 basechar 0
LayerCount: 2
Fore
SplineSet
10 490 m 1
 68.45703125 506.702148438 86.37109375 533.228515625 109 602 c 1
 167 590 l 1
 165.285714286 560 162.714285714 532 161 501 c 1
 216.583471982 502 271.208056038 503 322 505 c 1
 321 431 l 1
 268 433 215 434 159 436 c 1
 158.2 426.512820513 155 219.692307692 155 140 c 3
 155 104.174603175 175.666666667 79 205 79 c 3
 243.594648437 79 280.351503907 97.023255814 307 110 c 1
 307 110 330 56.8849487305 330 56 c 1
 295.915039062 29.25390625 248.375976562 -8 182 -8 c 3
 151 -8 62 7 62 133 c 3
 62 236.481012658 67 336.164556962 69 433 c 1
 50 432 33 432 12 432 c 1
 10 490 l 1
EndSplineSet
Substitution2: "case-1" T
Substitution2: "pcap-1" t.pcap
Substitution2: "smcp-1" t.smcp
EndChar

StartChar: u
Encoding: 117 117 20
Width: 539
VWidth: 1159
Flags: HMW
AnchorPoint: "Bottom" 277 -15 basechar 0
AnchorPoint: "Ogonek" 428 18 basechar 0
AnchorPoint: "Top" 278 537 basechar 0
LayerCount: 2
Fore
SplineSet
318 464 m 1
 367 476 420 492 460 510 c 1
 490 471 l 1
 468.142857143 432.29906542 460 286.117276278 460 168 c 3
 460 139.30859375 459.142857143 110.617283951 467 85 c 1
 470.333333333 74 474 72 481 72 c 3
 489.837209302 72 508.395348837 76.3636363636 519 78 c 1
 531 19 l 1
 511.696969697 11.2130937099 465.220903276 -7.5618566584 440 -17 c 0
 437.683015256 -17.8670599102 427.625 -22 422 -22 c 3
 390.798301791 -22 378.426015474 23.2571428571 373 50 c 1
 327.382352941 26 265.264705882 -8 208 -8 c 3
 164.338983051 -8 119.779661017 14 96 53 c 1
 79 84 72 115.990385504 72 168 c 3
 72 224.27240012 71 312.812785388 72 370 c 1
 72 374.666666667 71 377 67 377 c 3
 61.0697674419 377 34.976744186 373.764705882 16 372 c 1
 7 436 l 1
 51.4594594595 444.766233766 102.540540541 480.805194805 147 511 c 1
 185 471 l 1
 162.5 399.864963504 162 286.828467153 162 204 c 3
 162 126.215820312 175.746031746 76 244 76 c 3
 279.020833333 76 335.395833333 94.3829787234 367 108 c 1
 362.333333334 196 373 379.983340044 373 390 c 3
 373 405.033296378 366.913043478 404 333 401 c 1
 318 464 l 1
EndSplineSet
Substitution2: "case-1" U
Substitution2: "pcap-1" u.pcap
Substitution2: "smcp-1" u.smcp
EndChar

StartChar: v
Encoding: 118 118 21
Width: 545
VWidth: 1159
Flags: HMW
AnchorPoint: "Top" 278 537 basechar 0
AnchorPoint: "Bottom" 253 -15 basechar 0
LayerCount: 2
Fore
SplineSet
539 456 m 1
 512.376953125 441 503.738689417 442.602478256 488 413 c 0
 452.514528509 348.839526576 415.395890918 252.762088308 376 187 c 0
 342.075873428 125.332310655 301.277021452 64.5119617225 278 -13 c 1
 215 -13 l 1
 179.788907285 135.000261426 123.311064403 307.438449268 67 422 c 0
 63.054448183 430.026993264 59 434 54 437 c 1
 36.4614583333 443 22.615625 444 6 449 c 1
 12 509 l 1
 38 502.555664062 77 499 107 499 c 3
 148 499 186 501.057617188 221 511 c 1
 230 445 l 1
 217.764689993 442.5 202.4703499 440.700195312 191 438 c 1
 187 437 182 436.472135955 182 434 c 3
 182 431 181.940037108 428.754960776 183 424 c 0
 201.373737374 341.575981987 247.393939394 209.099121093 281 132 c 1
 331.932558761 210.435114504 375.614558316 299.692643322 402 406 c 0
 404.208478104 414.897992777 400 422.075571099 400 427 c 3
 400 435.0625 381.034179688 439 345 449 c 1
 357 510 l 1
 382 504 415 499 433 499 c 3
 465.340820312 499 500.712890625 508 528 515 c 1
 539 456 l 1
EndSplineSet
Substitution2: "case-1" V
Substitution2: "pcap-1" v.pcap
Substitution2: "smcp-1" v.smcp
EndChar

StartChar: w
Encoding: 119 119 22
Width: 793
VWidth: 1159
Flags: HMW
AnchorPoint: "Top" 408 537 basechar 0
AnchorPoint: "Bottom" 383 -15 basechar 0
LayerCount: 2
Fore
SplineSet
787 455 m 1
 758 444 755.870029021 442.544588232 728 391 c 0
 702 342.913961302 672.252793596 271.575487949 631 204 c 0
 584.392968614 127.653827698 558 72.3076923077 540 -10 c 1
 486 -10 l 1
 466.000207779 99.0765959481 429.000124668 197.043530199 396 294 c 1
 382 277.173913043 355.344515989 203.362327077 333 165 c 0
 302.677888316 112.941286056 274 54.4972375691 256 -12 c 1
 196 -12 l 1
 180.65625 123.400005654 115.314923484 310.395880977 62 422.4921875 c 0
 58.5371678118 429.772901286 61.2090305709 433.980597377 57 435.4921875 c 0
 40.29296875 441.4921875 23.5859375 443.4921875 6 448.4921875 c 1
 16 508.4921875 l 1
 41.0107421875 504.4921875 77.13671875 499.4921875 104 499.4921875 c 1
 144 499.4921875 171 503.4921875 205 509.4921875 c 1
 214 441.4921875 l 1
 203.314453125 438.825195312 188.010742188 435.4921875 180 435.4921875 c 0
 178 435.4921875 177 435.4921875 176 434.4921875 c 1
 176 432.4921875 175.776043233 430.466485635 176 429.4921875 c 0
 193.142578125 354.915374683 235.428710938 242.553944921 264 164 c 1
 298.552734375 219.57378563 335.762695312 298.476537983 365 390 c 1
 365.22265625 395.34765625 361.666992188 401.942382812 360 406.5078125 c 1
 356.333007812 418.655273438 350.298847627 428.381263185 343 432.4921875 c 0
 334.713867188 437.159179688 325.599609375 439.825195312 314 443.4921875 c 1
 321 504.4921875 l 1
 342.559570312 501.159179688 372.333007812 499.4921875 398 499.4921875 c 1
 430.943359375 499.4921875 464.801757812 505.206054688 495 509.4921875 c 1
 506 445.4921875 l 1
 496.565429688 442.62890625 483.760742188 439.192382812 475 436.4921875 c 1
 472 435.2421875 468 434.825195312 468 431.4921875 c 3
 468 428.4921875 468.277270597 426.129284313 468 422.4921875 c 0
 464.008274475 370.130731372 499.180327951 280.655880885 540 162 c 1
 579.0234375 224.818886719 642.652649404 323.317429066 649 399 c 0
 650.455078125 416.349609375 649 422.077148438 640 429 c 1
 634.909179688 431.823242188 637.375 432.823242188 598 442 c 1
 610 508 l 1
 634.444335938 503.5 668.666992188 499 687 499 c 1
 713.866210938 499 743.333007812 506.3125 765 512 c 1
 787 455 l 1
EndSplineSet
Substitution2: "case-1" W
Substitution2: "pcap-1" w.pcap
Substitution2: "smcp-1" w.smcp
EndChar

StartChar: x
Encoding: 120 120 23
Width: 553
VWidth: 1159
Flags: HW
AnchorPoint: "Top" 297 537 basechar 0
AnchorPoint: "Bottom" 270 -15 basechar 0
LayerCount: 2
Fore
SplineSet
14 56 m 1
 39.671875 61 59.546875 63 67 75 c 1
 59 66.4765625 227 249 227 249 c 1
 227 249 129 383.038167939 123 390 c 1
 84.1428571429 438 93.4285714286 431 33 439 c 1
 33 502 l 1
 59.6944444444 500 97.5833333333 498 126 498 c 3
 160.225 498 210.175 501 237 508 c 1
 245 438 l 1
 237.647058824 437 225.147058824 437 220 436 c 1
 219 436 215 435 215 433 c 1
 220 428.816513761 288 315.18359375 292 311 c 1
 376 418 l 1
 378 421 383 425 385 436 c 1
 379.4 436 368.822222222 437 357 439 c 1
 366 502 l 1
 391.523809524 497.5 407.476190476 499 433 499 c 3
 463.989389272 499 502.208665114 499 527 506 c 1
 530 452 l 1
 497.477943978 446 477.747188257 426.313633877 462 410 c 0
 417 363.381294964 372 310.619140625 326 264 c 1
 369 205.58203125 422.283966678 139.792568219 465 78 c 0
 480.642054235 55.3723675109 475.279069768 62 533 50 c 1
 530 -8 l 1
 499.162790698 -4 447.465116279 0 413 0 c 0
 384.844036697 0 349.009174312 -3 320 -7 c 1
 313 53 l 1
 325.310344828 56 345.586206897 59 355 61 c 1
 353 64 348 67 348 68 c 1
 342 76.7394957983 268 195.815429688 264 198 c 1
 260 193.614257812 168 82.771484375 161 74 c 1
 159 72 154 64 154 62 c 1
 158.081632653 61 178.489795918 56 194 54 c 1
 186 -5 l 1
 160.034883721 -3 135.860465116 1 109 1 c 0
 80.5555555556 1 46.7777777778 -3 21 -5 c 1
 14 56 l 1
EndSplineSet
Substitution2: "case-1" X
Substitution2: "pcap-1" x.pcap
Substitution2: "smcp-1" x.smcp
EndChar

StartChar: y
Encoding: 121 121 24
Width: 529
VWidth: 1159
Flags: HMW
AnchorPoint: "Top" 262 537 basechar 0
AnchorPoint: "Bottom" 333 -15 basechar 0
LayerCount: 2
Fore
SplineSet
201 -175 m 1
 168 -175 178 -173 117 -173 c 1
 78 -173 62 -175 29 -176 c 1
 30 -155 33 -140 26 -117 c 1
 90.8984375 -109.87890625 95.1689453125 -98.306640625 178 37 c 1
 145.610888232 167.282226562 99 365 51 431 c 0
 50.1681996081 432.143725539 39.9208984375 434.606445312 34 436 c 0
 23.1818181818 440 15.5454545455 442 6 444 c 1
 16 505 l 1
 40 501 74 497 101 497 c 1
 137.116504854 497 163.300970874 500 194 506 c 1
 205 443 l 1
 175 434 l 1
 174 434 172 434 172 433 c 1
 172 432 172.568359375 430.194335938 173 428 c 0
 187.07421875 367.717773438 218.741210938 224.673828125 249 146 c 1
 287.744140625 217.627929688 340.131835938 335.684570312 368 410 c 0
 371 418 373 429 373 433 c 1
 368.2 433.7 350.6 435.1 329 440 c 1
 345 506 l 1
 363.075949367 502.25 397.506329114 497 413 497 c 1
 450 497 484 504 512 511 c 1
 524 447 l 1
 471 436 466.447265625 444.279296875 452 415 c 0
 403.64453125 317 318.096679688 177.474609375 253 43 c 0
 229.751953125 -5.025390625 199.448242188 -128 201 -175 c 1
EndSplineSet
Substitution2: "case-1" Y
Substitution2: "pcap-1" y.pcap
Substitution2: "smcp-1" y.smcp
EndChar

StartChar: z
Encoding: 122 122 25
Width: 592
VWidth: 1159
Flags: HMW
AnchorPoint: "Bottom" 305 -15 basechar 0
AnchorPoint: "Top" 312 537 basechar 0
LayerCount: 2
Fore
SplineSet
448 -0 m 1
 448 -1 233 -1 233 -0 c 1
 156 1 87 -5 71 -16 c 1
 58 40 l 1
 177 147 299 307 380 429 c 1
 361 429 346 429 327 429 c 1
 274 429 237 429 182 427 c 0
 138 426 135 406 121 362 c 1
 50 386 l 1
 50 386 102 530 104 526 c 1
 142 508 129 499 297 499 c 1
 418 499 481 496 515 507 c 1
 540 466 l 1
 434 345 316 191 225 67 c 1
 233 67 365 69 373 69 c 1
 403 69 431 68 447 78 c 1
 459 86 462 94 473 122 c 0
 478 136 485 161 490 181 c 1
 552 159 l 1
 507 -22 l 1
 488 -10 480 0 448 -0 c 1
EndSplineSet
Substitution2: "case-1" Z
Substitution2: "pcap-1" z.pcap
Substitution2: "smcp-1" z.smcp
EndChar

StartChar: A
Encoding: 65 65 26
Width: 733
VWidth: 1159
Flags: HMW
AnchorPoint: "Top" 382 679 basechar 0
AnchorPoint: "Bottom" 368 -15 basechar 0
LayerCount: 2
Fore
SplineSet
254.236328125 252.388671875 m 1
 301.877929688 248.696289062 418.844726562 255.291015625 463.068359375 255.291015625 c 1
 435.836914062 340.09375 391.609375 430.626953125 364.260742188 516.700195312 c 1
 333.73828125 432.584960938 285.78515625 334.130859375 254.236328125 252.388671875 c 1
499.888671875 -7.9677734375 m 1
 499.888671875 -7.9677734375 483.834960938 55.16015625 483.491210938 56.451171875 c 1
 501.129882812 62.4765625 532.178710938 61.76953125 521.536132812 85.34375 c 0
 502.65234375 127.174804688 498.271484375 146.46484375 481.896484375 189.09765625 c 1
 402.033203125 189.958007812 336.583007812 190.474609375 232.088867188 191.700195312 c 1
 214.686523438 149.208984375 211.956054688 140.392578125 193.458007812 98.171875 c 0
 183.16796875 74.6845703125 203.971679688 71.9794921875 237.80859375 66.365234375 c 1
 233.06640625 -5.9677734375 l 1
 203.038085938 0.8916015625 166.807617188 3.4072265625 131.09375 3.4072265625 c 3
 102.141601562 3.4072265625 73.599609375 1.6005859375 49.0693359375 -1.1396484375 c 1
 47.2412109375 15.41015625 44.1552734375 39.904296875 40.4140625 63.451171875 c 1
 89.3916015625 73.794921875 98.916015625 77.455078125 108.465820312 99.3974609375 c 0
 196.494140625 301.6796875 269.26953125 461.005859375 325.958984375 609.28515625 c 0
 341.008789062 648.650390625 341.1484375 653.858398438 349.12890625 688.512695312 c 1
 415.416015625 688.9609375 l 1
 421.564453125 657.3125 425.774414062 650.08203125 438.330078125 609.821289062 c 0
 506.190429688 392.220703125 552.053710938 296.331054688 641.323242188 82.3115234375 c 0
 649.650390625 62.3466796875 661.90625 65.3935546875 695.55859375 61.451171875 c 1
 696.37890625 44.8515625 698.918945312 19.0732421875 699.81640625 -0.1396484375 c 1
 662.993164062 1.16015625 629.270507812 3.2646484375 597.002929688 3.2646484375 c 3
 563.849609375 3.2646484375 532.422851562 0.83984375 499.888671875 -7.9677734375 c 1
EndSplineSet
Position2: "cpsp-1" dx=0 dy=0 dh=50 dv=100
Substitution2: "c2pc-1" a.pcap
Substitution2: "c2sc-1" a.smcp
EndChar

StartChar: B
Encoding: 66 66 27
Width: 691
VWidth: 1159
Flags: HMW
AnchorPoint: "Bottom" 313 -15 basechar 0
AnchorPoint: "Top" 327 679 basechar 0
LayerCount: 2
Fore
SplineSet
76.755859375 66.5048828125 m 1
 122.112304688 66.6767578125 151.63671875 65.4912109375 152.32421875 70.7587890625 c 0
 154.565429688 79.943359375 153.443359375 172.000976562 153.443359375 287.483398438 c 3
 153.443359375 444.012695312 150.495117188 581.990234375 145.444335938 595.885742188 c 0
 142.637695312 603.84375 145.328125 610.958007812 134.15234375 611.979492188 c 0
 119.768554688 613.065429688 84.8642578125 617.323242188 72.013671875 619.237304688 c 1
 84.4970703125 690.139648438 l 1
 115.518554688 685.569335938 125.064453125 678.311523438 191.860351562 678.311523438 c 3
 252.155273438 678.311523438 299.900390625 688.311523438 357.708007812 688.311523438 c 3
 496.020507812 688.311523438 564.67578125 603.07421875 564.67578125 510.171875 c 3
 564.67578125 440.975585938 530.83203125 384.609375 457.59375 360.557617188 c 1
 561.411132812 345.42578125 628.3638 276.423999415 628.3638 191.9674 c 3
 628.3638 70.9093340908 513.568359375 -3.4833984375 363.708007812 -3.4833984375 c 3
 304.52734375 -3.4833984375 263.900390625 1.6025390625 197.6875 1.6025390625 c 3
 122.236328125 1.6025390625 112.346679688 -1.4833984375 81.583984375 -3.3115234375 c 1
 76.755859375 66.5048828125 l 1
369.052734375 378.9453125 m 0
 430.395507812 391.4296875 452.44140625 433.913085938 452.44140625 485.111328125 c 3
 452.44140625 537.216796875 434.865234375 619.9765625 353.794921875 619.9765625 c 3
 325.29296875 619.9765625 281.393554688 617.022460938 272.7109375 614.430664062 c 0
 262.626953125 610.107421875 261.643554688 583.666992188 260.872070312 573.215820312 c 0
 255.16796875 494.287109375 257.493164062 408.334960938 258.376953125 376.9453125 c 1
 345.454101562 376.9453125 350.744140625 376.744140625 369.052734375 378.9453125 c 0
354.439453125 319.958007812 m 0
 333.28125 319.966796875 281.173828125 316.548828125 257.291015625 316.548828125 c 1
 258.790039062 217.6171875 256.947265625 142.96484375 258.462890625 87.2705078125 c 0
 258.963867188 68.4482421875 260.970703125 67.064453125 274.342773438 66.43359375 c 0
 285.508789062 66.1552734375 342.359375 65.7529296875 382.47265625 65.7529296875 c 3
 452.994140625 65.7529296875 514.28515625 103.940052295 514.28515625 196.284179688 c 3
 514.28515625 260.871713417 472.50390625 319.892578125 354.439453125 319.958007812 c 0
EndSplineSet
Position2: "cpsp-1" dx=0 dy=0 dh=50 dv=100
Substitution2: "c2pc-1" b.pcap
Substitution2: "c2sc-1" b.smcp
EndChar

StartChar: C
Encoding: 67 67 28
Width: 732
VWidth: 1159
Flags: HW
HStem: -22.7093 74.3606<335.125 530.852> 634.343 71.9233<308.4 518.21> 666.18 20G<620.467 670.74>
VStem: 43.3105 115.294<229.142 455.658> 597.291 61.544<510.404 565.383> 631.51 56.9078<146.541 178.46>
AnchorPoint: "Top" 417 679 basechar 0
AnchorPoint: "Bottom" 403 -15 basechar 0
LayerCount: 2
Fore
SplineSet
43.310546875 319.893554688 m 3xd4
 43.310546875 502.436523438 166.565429688 688.265625 414.19921875 688.265625 c 3xd4
 481.9453125 688.265625 512.596679688 679.11328125 572.221679688 663.411132812 c 0
 606.806640625 654.303710938 612.046875 657.497070312 628.88671875 668.1796875 c 1
 678.973632812 644.245117188 l 1
 655.10546875 595.334960938 656.426757812 576.767578125 658.834960938 522.025390625 c 0
 660.413085938 486.14453125 642.974609375 478.39453125 597.291015625 477.479492188 c 1xb8
 571.3046875 525.518554688 581.263671875 555.7734375 566.322265625 566.180664062 c 0
 514.514648438 602.265625 475.293945312 616.342773438 412.107421875 616.342773438 c 3
 262.954101562 616.342773438 158.604492188 511.930664062 158.604492188 333.084960938 c 3
 158.604492188 150.218754121 304.444335938 58.6513671875 427.533203125 58.6513671875 c 3
 535.19140625 58.6513671875 599.19140625 109.236119354 631.509765625 200.450195312 c 1
 688.41796875 185.637695312 l 1
 682.82421875 134.16015625 663.604492188 98.1982421875 648.252929688 51.55078125 c 1
 582.510742188 16.5109416099 519.2421875 -15.708984375 428.0703125 -15.708984375 c 3
 201.086914062 -15.708984375 43.310546875 120.590115339 43.310546875 319.893554688 c 3xd4
EndSplineSet
Position2: "cpsp-1" dx=0 dy=0 dh=50 dv=100
Substitution2: "c2pc-1" c.pcap
Substitution2: "c2sc-1" c.smcp
EndChar

StartChar: D
Encoding: 68 68 29
Width: 804
VWidth: 1159
Flags: HW
AnchorPoint: "Top" 382 679 basechar 0
AnchorPoint: "Bottom" 368 -15 basechar 0
LayerCount: 2
Fore
SplineSet
379.982421875 70.1533203125 m 3
 544.147460938 70.1533203125 663.887695312 164.297851562 663.887695312 328.267578125 c 3
 663.887695312 505.647460938 557.502929688 614.416015625 354.0078125 614.416015625 c 3
 308.880859375 614.416015625 296.633789062 612.165039062 262.629882812 612.880859375 c 0
 248.384765625 612.982421875 249.802734375 611.426757812 249.166992188 590.98828125 c 0
 246.874023438 526.611328125 245.779296875 455.989257812 245.779296875 387.987304688 c 3
 245.779296875 273.416015625 248.377929688 180.624023438 255.48828125 85.529296875 c 0
 256.126953125 76.884765625 251.338867188 71.421875 268.208984375 71.0361328125 c 0
 299.994140625 70.521484375 335.236328125 70.1533203125 379.982421875 70.1533203125 c 3
62.666015625 681.967773438 m 1
 111.150390625 678.139648438 130.653320312 674.139648438 177.30859375 674.139648438 c 1
 261.56640625 674.139648438 304.997070312 688.139648438 386.513671875 688.139648438 c 3
 532.267578125 688.139648438 767.565429688 596.216796875 767.565429688 342.34375 c 3
 767.565429688 70.1640625 552.803710938 -2.65625 364.340820312 -2.65625 c 3
 295.825195312 -2.65625 258.30859375 4.34375 185.22265625 4.34375 c 3
 148.694335938 4.34375 114.859375 0.2578125 66.580078125 -8.3974609375 c 1
 61.837890625 62.07421875 l 1
 112.787109375 66.0634765625 136.240234375 69.0732421875 136.514648438 75.4599609375 c 0
 137.703125 120.267578125 138.19921875 181.458984375 138.19921875 241.380859375 c 3
 138.19921875 388.227539062 134.694335938 533.104492188 131.1640625 604.51171875 c 0
 130.854492188 610.615234375 86.412109375 609.319335938 59.837890625 610.237304688 c 1
 62.666015625 681.967773438 l 1
EndSplineSet
Position2: "cpsp-1" dx=0 dy=0 dh=50 dv=100
Substitution2: "c2pc-1" d.pcap
Substitution2: "c2sc-1" d.smcp
EndChar

StartChar: E
Encoding: 69 69 30
Width: 683
VWidth: 1159
Flags: HW
HStem: -20.8818 66.9883<95.8006 142.195> -3.69653 68.6989<254.078 527.324> 319.281 68.3687<254.103 468.74> 623.303 68.8373<85.251 143.32 256.761 504.477> 680.216 20G<557.629 580.623>
VStem: 143.562 110.541<65.9855 318.377 387.279 621.235> 479.895 62.8057<274.377 319.029 388.232 432.565> 519.244 59.2461<556.141 614.996>
AnchorPoint: "Top" 349 679 basechar 0
AnchorPoint: "Bottom" 340 -15 basechar 0
LayerCount: 2
Fore
SplineSet
85.2509765625 684.215820312 m 1xa6
 149.500976562 681.030273438 252.91015625 679.139648438 348.677734375 679.139648438 c 3xb6
 451.5625 679.139648438 545.676757812 681.123046875 569.581054688 687.215820312 c 1
 591.665039062 670.905273438 598.684570312 660.729492188 598.684570312 647.3359375 c 3
 598.684570312 629.392578125 580.731445312 604.849609375 578.490234375 543.140625 c 1
 519.244140625 538.313476562 l 1x2d
 512.6796875 566.799804688 526.951171875 599.846679688 510.74609375 601.708007812 c 0
 462.612604802 607.902634603 392.857708065 612.051155854 331.970473707 612.051155854 c 3
 309.819597887 612.051155854 288.842371677 611.502092286 270.506835938 610.302734375 c 0
 262.34765625 609.741210938 256.896484375 606.453125 256.78515625 595.010742188 c 0
 256.278320312 522.559570312 255.102539062 441.46875 254.102539062 374.279296875 c 1
 299.213867188 376.380859375 456.733398438 374.240234375 462.029296875 374.649414062 c 0
 470.559570312 375.49609375 470.287109375 400.689453125 481.129882812 432.393554688 c 1
 547.087890625 418.997070312 l 1
 538.954101562 386.731445312 535.262695312 357.520507812 535.262695312 327.434570312 c 3
 535.262695312 306.954101562 537.830078125 285.9140625 542.700195312 262.169921875 c 1
 479.89453125 243.1171875 l 1
 462.56640625 286.19140625 471.264648438 306.1484375 463.526367188 306.28125 c 0
 429.984375 305.731445312 308.364257812 304.29296875 252.275390625 305.376953125 c 1
 252.188476562 215.100585938 251.744140625 150.397460938 253.145507812 90.3759765625 c 0
 253.584960938 75.5400390625 260.065429688 72.8720703125 266.076171875 72.7763671875 c 0
 305.23046875 72.3486328125 341.966796875 72.001953125 376.833984375 72.001953125 c 1
 414.384765625 72.001953125 449.767578125 72.5 483.76953125 73.97265625 c 0
 521.474609375 75.498046875 531.541015625 92.654296875 567.034179688 155.546875 c 1
 627.022460938 141.235351562 l 1
 612.419921875 80.6796875 602.881835938 58.7255859375 590.806640625 1.9365234375 c 1
 499.471679688 -0.6875 403.720703125 3.3037109375 312.853515625 3.3037109375 c 3x76
 233.0859375 3.3037109375 158.16796875 0.09765625 97.078125 -13.8818359375 c 1
 84.8525390625 53.1064453125 l 1
 123.172851562 60.73046875 143.080078125 69.0830078125 143.092773438 77.1767578125 c 1
 143.387695312 115.657226562 143.561523438 225.0078125 143.561523438 345.940429688 c 3
 143.561523438 473.567382812 143.458984375 591.38671875 143.216796875 602.430664062 c 0
 143.131835938 608.543945312 116.502929688 608.177734375 81.6806640625 611.421875 c 1
 85.2509765625 684.215820312 l 1xa6
EndSplineSet
Position2: "cpsp-1" dx=0 dy=0 dh=50 dv=100
Substitution2: "c2pc-1" e.pcap
Substitution2: "c2sc-1" e.smcp
EndChar

StartChar: F
Encoding: 70 70 31
Width: 618
VWidth: 1159
Flags: HW
AnchorPoint: "Top" 334 679 basechar 0
AnchorPoint: "Bottom" 245 -15 basechar 0
LayerCount: 2
Fore
SplineSet
361.712890625 -7.5693359375 m 1
 311.3828125 0.2939453125 264.099609375 4.46875 218.28515625 4.46875 c 3
 176.2734375 4.46875 135.643554688 0.6708984375 95.6083984375 -7.3974609375 c 1
 83.3828125 66.90234375 l 1
 123.87109375 72.3330078125 142.948242188 70.4716796875 143.477539062 87.8779296875 c 1
 143.713867188 112.123046875 143.814453125 155.23046875 143.814453125 217.107421875 c 3
 143.814453125 360.233398438 143.264648438 544.982421875 142.634765625 604.16015625 c 0
 142.607421875 606.758789062 117.629882812 606.568359375 76.3828125 612.409179688 c 1
 81.78125 680.881835938 l 1
 134.317382812 678.268554688 220.868164062 675.737304688 305.677734375 675.737304688 c 3
 414.268554688 675.737304688 520.235351562 679.416992188 540.6015625 696.424804688 c 1
 570.958984375 685.888671875 578.846679688 671.229492188 578.846679688 640.568359375 c 1
 578.846679688 617.77734375 572.66796875 584.6640625 570.77734375 534.805664062 c 1
 509.6171875 529.978515625 l 1
 497.703125 565.157226562 493.7265625 595.154296875 482.118164062 596.514648438 c 0
 428.038085938 602.850585938 333.040039062 611.159179688 255.79296875 606.059570312 c 0
 252.415039062 605.836914062 251.298828125 598.940429688 251.158203125 588.252929688 c 0
 250.150390625 511.557617188 251.650390625 437.430664062 252.149414062 366.860351562 c 1
 322.110351562 367.508789062 430.134765625 365.045898438 440.086914062 365.481445312 c 0
 450.26171875 365.919921875 452.155273438 380.653320312 465.262695312 418.8671875 c 1
 536.369140625 408.321289062 l 1
 527.1015625 379.560546875 523.236328125 353.8125 523.236328125 327.489257812 c 3
 523.236328125 301.653320312 527.870117188 275.2265625 535.272460938 244.411132812 c 1
 464.611328125 226.271484375 l 1
 443.587890625 277.71484375 453.669921875 297.666015625 440.086914062 297.9453125 c 0
 409.265625 298.577148438 321.774414062 298.428710938 253.2109375 299.366210938 c 1
 253.888671875 199.139648438 251.345703125 144.294921875 256.5078125 81.82421875 c 0
 257.774414062 66.5009765625 265.836914062 73.53515625 374.110351562 71.9345703125 c 1
 361.712890625 -7.5693359375 l 1
EndSplineSet
Position2: "cpsp-1" dx=0 dy=0 dh=50 dv=100
Substitution2: "c2pc-1" f.pcap
Substitution2: "c2sc-1" f.smcp
EndChar

StartChar: G
Encoding: 71 71 32
Width: 770
VWidth: 1159
Flags: HW
HStem: -25.4511 70.6733<355.448 555.639> 287.012 70.3859<464.483 538.936> 296.582 57.8161<686.924 720.434> 643.041 70.7871<310.899 536.393>
VStem: 38.2859 119.326<244.62 459.975> 572.277 108.984<67.2501 282.436>
AnchorPoint: "Top" 424 679 basechar 0
AnchorPoint: "Bottom" 424 -15 basechar 0
LayerCount: 2
Fore
SplineSet
38.2861328125 333.548828125 m 3xbc
 38.2861328125 541.866210938 216.861328125 687.828125 425.798828125 687.828125 c 1
 482.808164072 687.828125 523.836518496 674.359956259 566.1953125 661.826171875 c 0
 588.725585938 654.547851562 580.122070312 672.754882812 585.552734375 682.7421875 c 1
 646.798828125 687.828125 l 1
 684.893554688 543.817382812 l 1
 627.733398438 524.591796875 l 1
 606 559 541.650390625 617.041015625 416.627929688 617.041015625 c 3
 258.262695312 617.041015625 157.612304688 513.53125 157.612304688 360.0859375 c 1
 157.612304688 169.260765241 294.064453125 58.22265625 468.850585938 58.22265625 c 1
 515.021484375 58.22265625 544.125976562 69.1357421875 566.958984375 87.572265625 c 0
 568.935546875 89.16796875 572.274414062 94.4296875 572.27734375 98.865234375 c 0
 572.306640625 140.857339241 574.698242188 195.635504921 573.897460938 267.833007812 c 0
 573.743164062 281.251953125 577.247070312 281.745117188 540.298828125 283.01171875 c 0
 511.078125 284.013671875 491.83984375 285.013671875 460.212890625 287.01171875 c 1
 464.954101562 357.397460938 l 1xdc
 566.040039062 345.569335938 661.380859375 345.65625 720.43359375 354.397460938 c 1
 726.17578125 296.581054688 l 1
 698.553710938 295.065429688 685.583984375 291.727539062 685.263671875 277.639648438 c 0
 683.552734375 199.688273126 682.254882812 151.892199995 681.26171875 97.94140625 c 0
 681.068623431 87.452055973 687.17578125 87.0634765625 709.26171875 77.0537109375 c 1
 704.43359375 32.291015625 l 1
 622.692382812 18.462890625 502.770507812 -12.451171875 435.975585938 -12.451171875 c 1
 221.684570312 -12.451171875 38.2861328125 123.288436351 38.2861328125 333.548828125 c 3xbc
EndSplineSet
Position2: "cpsp-1" dx=0 dy=0 dh=50 dv=100
Substitution2: "c2pc-1" g.pcap
Substitution2: "c2sc-1" g.smcp
EndChar

StartChar: H
Encoding: 72 72 33
Width: 893
VWidth: 1159
Flags: HW
HStem: -16.3116 78.7835<69.4941 129.55 771.181 828.211> 315.642 68.8584<245.683 661.786> 635.151 68.7305<605.365 656.347 776.195 820.33> 681.709 20G<287.48 308.158>
VStem: 135.61 110.072<62.031 315.642 384.5 622.714> 656.588 120.106<388.179 631.566> 661.786 105.958<63.6292 316.64 383.501 490.079>
AnchorPoint: "Top" 458 679 basechar 0
AnchorPoint: "Bottom" 455 -15 basechar 0
LayerCount: 2
Fore
SplineSet
68.666015625 686.794921875 m 1xea
 113.060546875 678.424804688 155.443359375 674.171875 199.573242188 674.171875 c 3
 233.235351562 674.171875 268.158203125 677.302734375 306.801757812 683.708984375 c 1
 311.54296875 613.806640625 l 1
 292.485351562 609.9375 258.10546875 608.1328125 252.828125 606.53125 c 1
 251.004882812 568.891601562 244.859375 474.204101562 243.857421875 382.5 c 1
 661.786132812 381.500976562 l 1xda
 662.28515625 447.6875 657.017578125 598.762695312 656.587890625 607.314453125 c 0
 651.829101562 613.4140625 632.896484375 613.407226562 600.709960938 617.151367188 c 1
 605.365234375 685.881835938 l 1
 640.6953125 680.53125 668.193359375 676.740234375 696.56640625 676.740234375 c 3
 732.30859375 676.740234375 769.260742188 681.173828125 820.329101562 692.881835938 c 1
 834.5546875 622.979492188 l 1
 810.440429688 615.548828125 777.201171875 617.196289062 776.694335938 608.595703125 c 0xec
 770.990234375 501.268554688 767.744140625 358.397460938 767.744140625 231.573242188 c 3
 767.744140625 161.090820312 768.795898438 105.458984375 771.107421875 84.505859375 c 0
 772.456054688 75.8681640625 803.09765625 76.962890625 835.296875 76.4716796875 c 1
 835.296875 76.4716796875 827.5546875 -1.1064453125 827.641601562 -2.3115234375 c 1
 786.5078125 2.21484375 747.995117188 5.4072265625 708.767578125 5.4072265625 c 3
 678.268554688 5.4072265625 647.330078125 2.9111328125 613.676757812 -3.4833984375 c 1
 611.10546875 17.30859375 607.528320312 44.041015625 604.193359375 70.81640625 c 1
 637.1015625 72.5908203125 656.913085938 72.7666015625 657.620117188 88.0224609375 c 0
 662.760742188 174.438476562 661.98046875 229.454101562 661.786132812 314.639648438 c 1
 245.682617188 313.641601562 l 1
 245.680664062 233.82421875 242.5 144.634765625 245.684570312 88.2021484375 c 0
 246.612304688 67.4697265625 290.33984375 76.763671875 309.11328125 74.73046875 c 1
 309.11328125 74.73046875 302.37109375 -1.2783203125 302.28515625 -2.4833984375 c 1
 257.784179688 3.9814453125 220.34765625 6.9111328125 184.276367188 6.9111328125 c 3
 146.357421875 6.9111328125 109.79296875 4.30859375 69.494140625 -0.4833984375 c 1
 69.494140625 -0.4833984375 57.1826171875 74.697265625 57.0107421875 76.24609375 c 1
 86.2099609375 76.466796875 130.172851562 72.4052734375 130.54296875 81.6357421875 c 0
 135.353515625 197.40234375 135.610351562 340.05078125 135.610351562 462.693359375 c 3
 135.610351562 534.838867188 134.155273438 588.810546875 130.461914062 601.95703125 c 0
 127.333007812 612.546875 100.923828125 613.1484375 63.837890625 614.979492188 c 1
 68.666015625 686.794921875 l 1xea
EndSplineSet
Position2: "cpsp-1" dx=0 dy=0 dh=50 dv=100
Substitution2: "c2pc-1" h.pcap
Substitution2: "c2sc-1" h.smcp
EndChar

StartChar: I
Encoding: 73 73 34
Width: 453
VWidth: 1159
Flags: HW
HStem: 684.795 20G<361.314 390.78>
VStem: 179.011 105.869<59.4038 550.961>
AnchorPoint: "Top" 233 679 basechar 0
AnchorPoint: "Bottom" 234 -15 basechar 0
LayerCount: 2
Fore
SplineSet
76.177734375 692.708984375 m 1
 129.130859375 680.497070312 179.30078125 675.358398438 230.303710938 675.358398438 c 3
 281.266601562 675.358398438 333.067382812 680.475585938 389.560546875 688.794921875 c 1
 394.301757812 611.065429688 l 1
 359.373046875 611.944335938 297.78125 610.448242188 297.590820312 609 c 0
 287.733398438 533.96875 284.879882812 427.299081464 284.879882812 282.779296875 c 3
 284.879882812 215.276367188 286.500976562 155.014648438 290.7578125 77.1162109375 c 0
 291.0078125 72.322265625 333.25390625 68.2705078125 391.000976562 68.5908203125 c 1
 386.172851562 -3.3115234375 l 1
 334.969726562 3.26171875 282.505859375 6.716796875 231.313476562 6.716796875 c 3
 175.084960938 6.716796875 120.424804688 2.5986328125 71.177734375 -6.1396484375 c 1
 63.6083984375 69.5048828125 l 1
 129.985351562 70.2177734375 173.59765625 63.7919921875 174.201171875 80.017578125 c 0
 177.271484375 160.021484375 179.010742188 257.158203125 179.010742188 362.453125 c 3
 179.010742188 465.623131894 176.5078125 548.42578125 173.614257812 607 c 0
 173.467773438 609.958984375 101.796875 614.849609375 70.349609375 615.893554688 c 1
 76.177734375 692.708984375 l 1
EndSplineSet
Position2: "cpsp-1" dx=0 dy=0 dh=50 dv=100
Substitution2: "c2pc-1" i.pcap
Substitution2: "c2sc-1" i.smcp
EndChar

StartChar: J
Encoding: 74 74 35
Width: 401
VWidth: 1356
Flags: HMW
AnchorPoint: "Top" 211 679 basechar 0
AnchorPoint: "Bottom" 266 -168 basechar 0
LayerCount: 2
Fore
SplineSet
153.244140625 601.266601562 m 0
 150.737304688 613 101.815429688 614.755859375 42.486328125 615.806640625 c 1
 49.2275390625 690.537109375 l 1
 101.161132812 679.084960938 145.043945312 674.708007812 187.625976562 674.708007812 c 3
 242.354492188 674.708007812 295.094726562 681.758789062 360.782226562 690.537109375 c 1
 365.524414062 612.806640625 l 1
 332.885742188 613.243164062 270.984375 611.25390625 270.197265625 603.182617188 c 0
 259.696289062 491.35546875 262.69921875 385.114257812 262.782226562 231.397460938 c 0
 262.782226562 107.794921875 268.962890625 62.193359375 267.31640625 19.193359375 c 1
 267.31640625 -81.8037109375 199.763181543 -147.245129247 132.6964 -200 c 0
 112.003746387 -216.185120753 92.1429300781 -231.15319873 72.3553011719 -247.700319191 c 1
 31.6450004883 -188.750922411 l 1
 55.4054354492 -174.182590284 76.3208033204 -161.798277344 94.1513809082 -146.930738867 c 0
 100.721339941 -141.488411523 106.897693555 -135.823319043 112.577433691 -129.533088867 c 0
 147.011666357 -92.0296569824 160.76953125 -36.5322265625 162.735351562 73.2255859375 c 1
 163.215820312 106.118164062 155.974609375 588.265625 153.244140625 601.266601562 c 0
EndSplineSet
Position2: "cpsp-1" dx=0 dy=0 dh=50 dv=100
Substitution2: "c2pc-1" j.pcap
Substitution2: "c2sc-1" j.smcp
EndChar

StartChar: K
Encoding: 75 75 36
Width: 754
VWidth: 1159
Flags: HW
HStem: -15.8838 59.7295<477.929 507.92 657.4 710.535> 634.237 62.6445<451.495 485.663> 639.635 62.0742<72.0345 128.072 578.87 637.211>
VStem: 131.612 112.008<372.359 630.734> 131.612 100.271<56.0368 301.336 368.624 628.714>
AnchorPoint: "Top" 369 679 basechar 0
AnchorPoint: "Bottom" 374 -15 basechar 0
LayerCount: 2
Fore
SplineSet
451.913085938 680.881835938 m 1xc8
 470.486328125 677.08984375 488.638671875 675.276367188 506.7890625 675.276367188 c 3
 549.184570312 675.276367188 591.61328125 680.995117188 636.920898438 691.537109375 c 1
 652.318359375 623.548828125 l 1
 608.090820312 613.212890625 582.606445312 609.2734375 562.330078125 589.974609375 c 0
 487.036132812 518.310546875 391.924470908 443.587048221 313.072265625 363.4609375 c 1
 622.163085938 99.146484375 l 1
 660.706054688 70.228515625 688.642578125 66.0419921875 718.018554688 51.3837890625 c 1
 709.44921875 -2.7763671875 l 1
 676.379882812 1.4296875 645.390625 5.9443359375 609.103515625 5.9443359375 c 3
 555.100585938 5.9443359375 526.317382812 1.1162109375 479.147460938 -3.8837890625 c 1
 468.749023438 55.845703125 l 1
 470.950195312 56.6201171875 507.892578125 62.7314453125 506.278320312 64.8818359375 c 1
 490.12109375 76.9091796875 321.651470807 220.203949912 229.8828125 301.3359375 c 1
 229.8828125 226.552589705 232.166015625 131.8046875 233.467773438 84.333984375 c 0
 233.805664062 72.474609375 255.21875 63.208984375 300.876953125 61.5908203125 c 1
 293.220703125 -3.1396484375 l 1
 251.920898438 2.8798828125 214.831054688 6.1298828125 172.168945312 6.1298828125 c 3
 141.2890625 6.1298828125 107.565429688 3.76953125 67.5263671875 -1.2255859375 c 1
 61.78515625 67.4189453125 l 1
 108.62890625 66.9794921875 126.6484375 63.283203125 126.814453125 69.2685546875 c 0
 129.764648438 175.342773438 131.612304688 276.76171875 131.612304688 388.450195312 c 3
 131.612304688 463.97265625 132.931640625 522.750976562 128.916992188 593.627929688 c 0
 127.263671875 622.822265625 120.810546875 614.696289062 59.87109375 623.634765625 c 1
 72.2685546875 685.708984375 l 1
 108.938476562 678.53125 144.328125 675.522460938 179.177734375 675.522460938 c 3
 216.834960938 675.522460938 253.788085938 679.544921875 291.318359375 685.794921875 c 1
 298.888671875 618.151367188 l 1
 255.899414062 614.513671875 244.041015625 613.41015625 243.620117188 604.317382812 c 1xb0
 240.6328125 526.194335938 232.326171875 448.081256194 231.8828125 368.624023438 c 1
 301.004882812 439.489746184 389.155273438 513.08203125 461.223632812 585.92578125 c 0
 476.57421875 601.440429688 481.876953125 605.24609375 485.665039062 609.580078125 c 0
 485.965820312 610.079101562 464.157226562 614.036132812 448.171875 618.237304688 c 1
 451.913085938 680.881835938 l 1xc8
EndSplineSet
Position2: "cpsp-1" dx=0 dy=0 dh=50 dv=100
Substitution2: "c2pc-1" k.pcap
Substitution2: "c2sc-1" k.smcp
EndChar

StartChar: L
Encoding: 76 76 37
Width: 682
VWidth: 1159
Flags: HW
HStem: -13.3975 75.0742<67.4131 125.997> -4.39765 72.7551<237.471 486.271> 631.893 72.9882<239.917 324.215>
VStem: 127.584 108.674<68.4668 622.32> 580.641 66.9883<108.52 159.824>
AnchorPoint: "Top" 207 679 basechar 0
AnchorPoint: "Bottom" 335 -15 basechar 0
LayerCount: 2
Fore
SplineSet
323.65625 687.881835938 m 1xb8
 329.483398438 614.893554688 l 1
 234.801757812 604.974609375 236.987304688 604.54296875 236.865234375 575.13671875 c 0
 236.627929688 517.766601562 237.15625 153.866210938 236.2578125 137.948242188 c 1
 236.994140625 90.1943359375 237.771484375 78.5205078125 247.276367188 78.357421875 c 0
 311.219726562 77.2607421875 474.991210938 75.8837890625 518.052734375 84.8427734375 c 0
 563.344726562 94.2666015625 549.15625 99.7119140625 580.640625 183.22265625 c 1
 647.62890625 169.82421875 l 1
 648.57421875 103.725585938 634.227539062 128.581054688 610.1484375 -15.33203125 c 1
 584.848632812 -7.4091796875 577.770507812 2.1669921875 532.258789062 3.583984375 c 0
 518.416992188 4.015625 425.861328125 5.6025390625 319.291992188 5.6025390625 c 1x78
 94.1181640625 5.6025390625 112.971679688 -3.3974609375 67.4130859375 -3.3974609375 c 1
 59.6708984375 71.6767578125 l 1
 100.71484375 72.76171875 125.6484375 74.365234375 126.435546875 84.7216796875 c 0
 127.213867188 94.966796875 127.583984375 186.504882812 127.583984375 302.7421875 c 3
 127.583984375 453.575195312 123.016601562 582.591796875 121.901367188 598.106445312 c 0
 120.947265625 611.379882812 109.317382812 609.44921875 54.5849609375 609.237304688 c 1
 60.4130859375 687.708984375 l 1
 102.794921875 678.543945312 148.345703125 674.87890625 192.6875 674.87890625 c 3
 239.103515625 674.87890625 284.223632812 680.052734375 323.65625 687.881835938 c 1xb8
EndSplineSet
Position2: "cpsp-1" dx=0 dy=0 dh=50 dv=100
Substitution2: "c2pc-1" l.pcap
Substitution2: "c2sc-1" l.smcp
EndChar

StartChar: M
Encoding: 77 77 38
Width: 998
VWidth: 1159
Flags: HW
HStem: -16.623 74.5576<92.3523 152.457 235.547 290.874 702.424 759.766> -2.69749 21G<461.346 532.269> 625.409 75.6445<849.367 920.727> 629.409 78.7305<105.79 161.293>
VStem: 155.592 78.6988<66.2683 328.829> 461.78 65.5771<-2.69749 77.6446> 750.643 98.7949<346.62 543.834> 763.174 103.555<70.4798 346.62>
AnchorPoint: "Top" 516 679 basechar 0
AnchorPoint: "Bottom" 497 -15 basechar 0
LayerCount: 2
Fore
SplineSet
933.934570312 -6.537109375 m 1x2d
 896.767578125 1.0009765625 859.424804688 5.4443359375 820.4453125 5.4443359375 c 3
 783.301757812 5.4443359375 744.67578125 1.1865234375 703.0546875 -8.623046875 c 1
 692.571289062 65.9345703125 l 1
 739.752929688 79.2197265625 762.573242188 78.841796875 763.173828125 95.9892578125 c 0xad
 768.297851562 242.274414062 758.0859375 398.505859375 750.642578125 528.833984375 c 1
 689.438476562 393.375 623.659361226 256.278679314 567.578310987 127.80211289 c 0
 550.805696924 89.3775852539 537.181926222 43.1063127441 527.356861964 -2.69748896484 c 1
 461.779808057 -2.69748896484 l 1
 460.912794923 39.4692049804 446.961168325 72.9844144776 428.62890625 118.715820312 c 0
 363.702091742 288.232608415 251.108398438 511.826171875 247.208007812 530.243164062 c 1
 236.659179688 403.84375 233.315429688 252.474609375 234.291015625 117.124023438 c 0
 234.708984375 61.615234375 227.954101562 83.53125 299.865234375 68.5048828125 c 1
 290.294921875 -6.3115234375 l 1
 259.361328125 1.1669921875 223.390625 5.6318359375 185.572265625 5.6318359375 c 3
 155.259765625 5.6318359375 123.534179688 1.498046875 92.822265625 -8.1396484375 c 1
 85.3388671875 65.7626953125 l 1
 149.021484375 74.2607421875 156.354492188 89.6845703125 155.592773438 104.715820312 c 1
 155.560546875 106.80859375 174.36328125 546.4921875 174.041992188 550.013671875 c 1
 176.409179688 572.703125 172.088867188 591.376953125 161.661132812 600.749023438 c 0
 153.837890625 607.779296875 145.263671875 615.424804688 94.337890625 614.409179688 c 1
 106.907226562 693.139648438 l 1x5e
 162.162109375 682.483398438 223.077148438 676.311523438 277.221679688 678.311523438 c 1
 303.599609375 679.02734375 311.393554688 653.454101562 312.713867188 649.9140625 c 0
 373.319335938 487.4140625 449.430729737 328.885844081 521 173 c 1
 519.392636541 181.151361711 736.961914062 659.21484375 737.486328125 660.2578125 c 0
 744.314453125 673.828125 756.978515625 684.301757812 773.9375 682.311523438 c 0
 825.057617188 676.310546875 869.771484375 681.053710938 920.018554688 686.053710938 c 1
 927.673828125 610.409179688 l 1
 870.638671875 603.98828125 849.635742188 615.436523438 849.4375 596.860351562 c 0x2e
 847.680664062 432.3046875 861.868164062 275.59375 866.728515625 90.90234375 c 0
 867.177734375 73.83984375 875.549804688 75.751953125 936.762695312 73.0205078125 c 1
 933.934570312 -6.537109375 l 1x2d
EndSplineSet
Position2: "cpsp-1" dx=0 dy=0 dh=50 dv=100
Substitution2: "c2pc-1" m.pcap
Substitution2: "c2sc-1" m.smcp
EndChar

StartChar: N
Encoding: 78 78 39
Width: 874
VWidth: 1159
Flags: HW
HStem: 616.926 78.7305<70.9424 129.189> 624.649 68.4929<784.239 838.3> 686.484 20G<606.458 638.738>
VStem: 132.844 83.6895<63.8891 326.605> 140.954 81.8384<220.752 510.21> 705.432 79.9968<-5.83242 27.9014 385.283 623.055> 705.432 63.0634<196.282 310.274>
AnchorPoint: "Bottom" 447 -15 basechar 0
AnchorPoint: "Top" 450 679 basechar 0
LayerCount: 2
Fore
SplineSet
70.9423828125 683.65625 m 1x88
 97.8564453125 683.897460938 154.229492188 674.26171875 189.85546875 673.828125 c 0
 210.3515625 673.609375 220.9140625 661.087890625 225.651367188 655.516601562 c 0
 370.8828125 486.291992188 516.939453125 360.647460938 689.204101562 210.282226562 c 1
 691.461914062 304.372070312 694.431640625 359.15234375 694.431640625 463.01953125 c 3
 694.431640625 489.763671875 694.243164062 515.921875 693.8203125 541.079101562 c 0
 692.134765625 640.499023438 656.357421875 603.807617188 589.131835938 615.09765625 c 1
 597.702148438 691.483398438 l 1x2c
 657.774414062 681.810546875 709.481445312 678.141601562 761.30859375 678.141601562 c 3
 782.659179688 678.141601562 804.139648438 679.138671875 826.681640625 680.828125 c 1
 836.336914062 610.75390625 l 1
 793.672851562 604.586914062 774.850585938 616.1796875 774.428710938 609.6484375 c 0x4c
 761.455078125 431.3359375 757.495117188 292.893554688 757.495117188 96.8984375 c 0
 757.495117188 69.9423828125 765.323242188 32.8974609375 771.323242188 10.1611328125 c 1
 700.506835938 -10.892578125 l 1
 682.8203125 36.6123046875 650.424804688 73.0087890625 616.22265625 110.033203125 c 0
 485.736328125 251.287109375 362.319335938 362.166015625 222.791992188 498.209960938 c 1x4a
 222.791992188 490.5390625 218.569335938 158.514648438 216.534179688 151.022460938 c 1
 213.596679688 51.501953125 238.481445312 81.302734375 332.39453125 73.6767578125 c 1
 320.083007812 -6.537109375 l 1
 279.971679688 2.8896484375 241.040039062 6.255859375 206.170898438 6.255859375 c 3
 164.536132812 6.255859375 124.443359375 0.4189453125 79.369140625 -5.1396484375 c 1
 68.884765625 79.98828125 l 1
 117.6875 78.37890625 131.805664062 69.62109375 132.844726562 90.9365234375 c 0x50
 139.573242188 213.059570312 140.953125 328.766601562 140.953125 455.26171875 c 3
 140.953125 493.840820312 140.869140625 513.745117188 140.844726562 547.764648438 c 1
 140.77734375 573.76171875 128.522460938 609.880859375 68.0283203125 604.92578125 c 1
 70.9423828125 683.65625 l 1x88
EndSplineSet
Position2: "cpsp-1" dx=0 dy=0 dh=50 dv=100
Substitution2: "c2pc-1" n.pcap
Substitution2: "c2sc-1" n.smcp
EndChar

StartChar: O
Encoding: 79 79 40
Width: 819
VWidth: 1159
Flags: HW
HStem: -25.279 65.0046<341.78 518.833> 636.754 68.3321<292.592 476.005>
VStem: 45.8674 113.828<236.94 453.447> 658.721 109.195<218.027 438.238>
AnchorPoint: "Bottom" 418 -15 basechar 0
AnchorPoint: "Top" 413 679 basechar 0
LayerCount: 2
Fore
SplineSet
381.015625 615.75390625 m 3
 256.154316179 615.75390625 166.6953125 513.064484343 166.6953125 341.669921875 c 3
 166.6953125 189.268396619 293.776167654 55.7255859375 433.575195312 55.7255859375 c 3
 566.924238903 55.7255859375 652.721679688 178.646782976 652.721679688 332.646484375 c 7
 652.721679688 470.868010198 532.76135118 615.75390625 381.015625 615.75390625 c 3
405.073242188 689.0859375 m 3
 593.69140625 689.0859375 767.916992188 540.353339333 767.916992188 328.946289062 c 3
 767.916992188 131.12446399 601.01953125 -16.279296875 414.392578125 -16.279296875 c 3
 242.52734375 -16.279296875 45.8671875 100.241799899 45.8671875 330.774414062 c 3
 45.8671875 532.926524033 215.166992188 689.0859375 405.073242188 689.0859375 c 3
EndSplineSet
Position2: "cpsp-1" dx=0 dy=0 dh=50 dv=100
Substitution2: "c2pc-1" o.pcap
Substitution2: "c2sc-1" o.smcp
EndChar

StartChar: P
Encoding: 80 80 41
Width: 671
VWidth: 1159
Flags: HW
HStem: -25.6232 68.3322<89.2763 129.98> -19.1396 73.5049<250.159 330.549> 198.131 67.5029<244.344 403.167> 205.219 66.8359<243.785 291.995> 622.551 68.7074<236.933 410.409>
VStem: 124.806 111.084<334.995 614.22> 132.439 111.346<66.4241 205.219 267.044 450.019> 507.36 105.097<360.281 520.728>
AnchorPoint: "Bottom" 233 -15 basechar 0
AnchorPoint: "Top" 329 679 basechar 0
LayerCount: 2
Fore
SplineSet
302.328125 265.633789062 m 1x2d
 425.436186951 265.633789062 507.360351562 344.428591257 507.360351562 440.8046875 c 1
 507.360351562 507.118164062 456.026367188 573.516601562 408.876953125 597.245117188 c 0
 385.8671875 608.825195312 342.084960938 616.764648438 310.76953125 617.55078125 c 0
 277.203125 618.393554688 235.834960938 606.3046875 235.889648438 603.994140625 c 0
 237.520507812 534.651367188 241.232849403 392.631249673 240.78515625 272.0546875 c 1x1d
 260.031768788 266.035642481 279.912079278 265.633789062 302.328125 265.633789062 c 1x2d
65.1279296875 681.0859375 m 1
 95.5908203125 677.2578125 111.642578125 675.2578125 152.318359375 675.2578125 c 1
 227.341796875 675.2578125 256.733398438 686.2578125 329.748046875 686.2578125 c 1
 495.119140625 686.2578125 612.4569 571.634294789 612.4569 445.97915 c 1
 612.4569 344.841129846 530.623641873 198.130859375 292.662109375 198.130859375 c 1xad
 278.583932111 198.130859375 254.280537304 203.046906459 243.78515625 205.21875 c 1
 244.871164107 150.669048035 247.360351562 100.46875 249.154296875 78.185546875 c 0
 250.21875 64.962890625 299.1015625 76.0419921875 336.649414062 67.365234375 c 1
 329.907226562 -6.1396484375 l 1x5b
 283.186523438 4.2001953125 248.916015625 5.1826171875 213.465820312 5.1826171875 c 3
 179.368164062 5.1826171875 143.8359375 6.439453125 91.611328125 -9.623046875 c 1
 68.81640625 58.708984375 l 1
 128.440429688 79.3349609375 131.587890625 65.1279296875 131.762695312 76.9384765625 c 0
 132.212890625 108.509765625 132.439453125 135.915039062 132.439453125 178.797851562 c 3x8b
 132.439453125 336.674804688 130.294921875 536.625976562 124.805664062 605.033203125 c 0
 124.423828125 609.788085938 113.107421875 609.671875 60.2998046875 609.35546875 c 1
 65.1279296875 681.0859375 l 1
EndSplineSet
Position2: "cpsp-1" dx=0 dy=0 dh=50 dv=100
Substitution2: "c2pc-1" p.pcap
Substitution2: "c2sc-1" p.smcp
EndChar

StartChar: Q
Encoding: 81 81 42
Width: 801
VWidth: 1361
Flags: HW
AnchorPoint: "Bottom" 321 -15 basechar 0
AnchorPoint: "Top" 394 679 basechar 0
LayerCount: 2
Fore
SplineSet
378.389648438 624.44921875 m 3
 250.202148438 624.44921875 149.262695312 516.061523438 149.262695312 372.174804688 c 3
 149.262695312 167.130859375 285.165039062 63.7421875 412.467773438 63.7421875 c 3
 540.430664062 63.7421875 639.065055762 174.931080664 639.065055762 327.399322265 c 3
 639.065055762 533.386371145 513.322265625 624.44921875 378.389648438 624.44921875 c 3
545 27 m 1
 605.111328125 -46.20703125 683.981445312 -82.982421875 740.060546875 -82.982421875 c 3
 760.150390625 -82.982421875 777.169921875 -82.505859375 786 -82.11328125 c 1
 803.794921875 -135.875976562 l 1
 788.725585938 -144.470703125 759.689453125 -156.842773438 724 -156.842773438 c 3
 610.086914062 -156.842773438 508.758789062 -99.9755859375 419.390625 -11.9345703125 c 1
 181.793945312 -11.9345703125 42.166015625 136.370117188 42.166015625 347.860351562 c 3
 42.166015625 547.921875 194.544921875 693.0859375 389.2421875 693.0859375 c 3
 584.94921875 693.0859375 744.892221387 547.595829894 744.892221387 356.77445 c 3
 744.892221387 207.51754646 663.086914062 74.2470703125 545 27 c 1
EndSplineSet
Position2: "cpsp-1" dx=0 dy=0 dh=50 dv=100
Substitution2: "salt-1" Q.alt
Substitution2: "c2pc-1" q.pcap
Substitution2: "c2sc-1" q.smcp
EndChar

StartChar: R
Encoding: 82 82 43
Width: 800
VWidth: 1159
Flags: HMW
AnchorPoint: "Bottom" 360 -15 basechar 0
AnchorPoint: "Top" 341 679 basechar 0
LayerCount: 2
Fore
SplineSet
241.7848 324.38855 m 5
 267.51362373 323.38855 296.561560401 321.3025 324.683255176 321.3025 c 7
 447.152334173 321.3025 486.986328125 391.998046875 486.986328125 477.16796875 c 7
 486.986328125 548.803710938 422.071289062 620.758789062 346.282226562 620.758789062 c 7
 290.514648438 620.758789062 236.509765625 613.129882812 240.293945312 597.474609375 c 4
 243.94140625 578.5703125 242.111623878 398.905215035 241.7848 324.38855 c 5
71.83203125 674.602539062 m 5
 114.921875 673.602539062 140.897460938 672.602539062 178.936523438 672.602539062 c 5
 238.501953125 672.602539062 264.133789062 693.171875 334.538085938 693.171875 c 5
 464.814453125 693.171875 592.161132812 608.592773438 592.161132812 484.75390625 c 5
 592.161132812 388.3671875 534.157143005 327.787698188 479.63355 293.6467 c 5
 598.342717304 95.5503916525 674.71875 43.0654296875 784.591796875 39.5048828125 c 5
 770.280273438 -29.4833984375 l 5
 608.5625 -25.6767578125 455.529981178 126.128816056 388.14985 259.0235 c 5
 366.776783819 255.99789444 351.959141134 254.3677 331.71712041 254.3677 c 5
 296.29875232 254.3677 270.224235205 257.675097265 241.7848 258.45375 c 5
 242.369457568 195.281880126 242.458984375 141.984375 243.063476562 86.3330078125 c 4
 243.149414062 72.9970703125 268.383789062 70.796875 313.473632812 69.7626953125 c 5
 299.989257812 -8.0537109375 l 5
 265.04296875 1.5224609375 228.749023438 6.4423828125 191.40234375 6.4423828125 c 7
 157.494140625 6.4423828125 122.76171875 1.984375 87.40234375 -7.1396484375 c 5
 73.0908203125 69.5048828125 l 5
 128.158203125 68.255859375 134.537109375 83.892578125 135.333984375 81.65625 c 5
 139.868164062 191.228515625 141.381364282 262.652870527 141.381364282 339.421918861 c 7
 141.381364282 420.562600511 139.655273438 485.89453125 137.860351562 590.359375 c 5
 136.116210938 605.557617188 123.78515625 603.614257812 71.83203125 605.614257812 c 5
 71.83203125 674.602539062 l 5
EndSplineSet
Position2: "cpsp-1" dx=0 dy=0 dh=50 dv=100
Substitution2: "salt-1" R.alt
Substitution2: "c2pc-1" r.pcap
Substitution2: "c2sc-1" r.smcp
EndChar

StartChar: S
Encoding: 83 83 44
Width: 588
VWidth: 1159
Flags: HW
HStem: -16.3976 77.3936<206.48 399.949> -11.3116 21G<77.9928 142.953> 636.029 73.9707<227.13 400.355> 683.742 20G<452.617 518.012>
VStem: 77.9928 63.0743<-4.56975 13.7015> 87.8928 97.116<473.814 594.759> 439.547 95.1636<99.3277 226.726>
AnchorPoint: "Bottom" 315 -15 basechar 0
AnchorPoint: "Top" 321 679 basechar 0
LayerCount: 2
Fore
SplineSet
57.4658203125 186.615234375 m 1x4a
 124 197 l 1
 142.144516867 148.637976379 148.065795455 128.953293883 155.9765625 121.123046875 c 0
 184.715131197 92.7588183592 260.611742887 64.99609375 316.819335938 64.99609375 c 3
 412.976552845 64.99609375 439.546875 114.403113569 439.546875 170.4921875 c 3
 439.546875 248.97265625 319.946833706 290.973685275 231.421875 326.3671875 c 0
 210.878976642 334.614646158 90.892578125 376.363685136 90.892578125 501.580078125 c 3
 90.892578125 592.312696035 178.886320743 687 316.080078125 687 c 3xa6
 379.169921875 687 419.251953125 673.936523438 443.495117188 659.09765625 c 0
 456.689453125 651.021484375 448.295898438 653.971679688 456.9375 680.7421875 c 1x16
 518.01171875 665.34375 l 1
 506 632.024414062 504.038085938 614.95703125 507.732421875 596.448242188 c 0
 518 545 518.384765625 531.229492188 444 537 c 1
 433.59375 559.576171875 432.0078125 564.512695312 422.592773438 574.387695312 c 0
 402.981445312 594.958984375 367.069335938 613.029296875 306.32421875 613.029296875 c 3
 247.006974702 613.029296875 188.008789062 579.233705001 188.008789062 525.245117188 c 3
 188.008789062 456.046565094 246.196331605 441.778671604 400.51171875 374.232421875 c 0
 513.291992188 324.586914062 534.7105 243.225866309 534.7105 179.718327929 c 3
 534.7105 96.8735520626 477.353233578 -12.3974609375 299.72265625 -12.3974609375 c 3xa6
 255.985624695 -12.3974609375 200.616979877 1.55228258535 150.19140625 26.51171875 c 1
 151.332717478 18.8886230512 144.840105986 14.4310255451 141.067382812 0.6884765625 c 1
 77.9931640625 7.4306640625 l 1
 81.3509359774 78.4494425717 77.8748296418 79.3741581271 57.4658203125 186.615234375 c 1x4a
EndSplineSet
Position2: "cpsp-1" dx=0 dy=0 dh=50 dv=100
Substitution2: "c2pc-1" s.pcap
Substitution2: "c2sc-1" s.smcp
EndChar

StartChar: T
Encoding: 84 84 45
Width: 726
VWidth: 1159
Flags: HMW
AnchorPoint: "Bottom" 368 -15 basechar 0
AnchorPoint: "Top" 368 679 basechar 0
LayerCount: 2
Fore
SplineSet
135.391601562 679.672851562 m 0
 265.151367188 680.009765625 401.020507812 677.56640625 535.299804688 677.56640625 c 3
 569.196289062 677.56640625 602.946289062 677.732421875 636.3515625 678.171875 c 0
 656.987304688 678.424804688 664.78143235 692.6558 673.60933235 703.4837 c 1
 723.28598235 671.0326 l 1
 705.854311892 630.628813655 685.520480274 584.622099617 686.271 536.15125 c 1
 609.97115 547.63495 l 1
 609.97115 547.895019662 622.9135142 602.7795424 622.9135142 602.7795424 c 1
 596.8400464 603.21498125 484.568359375 606.4765625 423.54296875 607.586914062 c 1
 421.848632812 450.198341461 417.5390625 272.800959143 417.5390625 112.368164062 c 3
 417.5390625 110.25 421.431640624 108.41796875 421.237304688 107.021484375 c 0
 420.93945259 66.5083689815 408.245940899 81.9433644047 520.720703125 74.0205078125 c 1
 510.978515625 -5.623046875 l 1
 477.75029401 3.55720407939 434.360616673 7.771484375 389.611328125 7.771484375 c 3
 325.768464745 7.771484375 259.255790436 -0.517114401368 215.444335938 -15.1064453125 c 1
 201.9609375 69.451171875 l 1
 273.151961763 71.9348522048 304.704101521 79.4326478001 304.817382812 86.837890625 c 0
 305.864257812 172.203891092 307.948242188 392.263244195 307.948242188 526.354492188 c 3
 307.948242188 561.032226562 308.200195312 589.608398438 309.056640625 609.0859375 c 1
 265.005859375 608.08984375 202.36277895 607.54740645 151.67747995 606.97458025 c 0
 107.268211155 606.503477241 113.30201 613.3768 77.4097174 538.846709 c 1
 3.6796174 569.728059 l 1
 26.82397098 611.8245216 56.81816579 684.61971505 77.19949696 721.22555 c 1
 99.03475908 703.4778002 121.580078125 679.619140625 135.391601562 679.672851562 c 0
EndSplineSet
Position2: "cpsp-1" dx=0 dy=0 dh=50 dv=100
Substitution2: "c2pc-1" t.pcap
Substitution2: "c2sc-1" t.smcp
EndChar

StartChar: space
Encoding: 44 44 46
Width: 217
VWidth: 1159
Flags: HW
HStem: -134.937 283.586
VStem: 20.1295 174.45<36.3883 79.9613>
LayerCount: 2
Fore
SplineSet
69.203125 -134.936523438 m 1
 34 -82 l 1
 61.5012661706 -63.9090571161 92 -28 84.5163 -12.1721 c 0
 73.5887548994 10.9394746352 54.9052957631 29.3951175695 30.60235 39.1177629883 c 0
 24.6884 41.4837 20.1295185059 49.7635870117 20.1295185059 56.8596129883 c 3
 20.1295185059 63.9565314941 25.3393209983 68.6672924629 30.60235 72.2364185059 c 0
 62.2939584472 93.7281003906 70.8264136426 106.867768773 88.0345996094 138.003999219 c 0
 91.1136675293 143.575217969 98.5934811035 148.648930714 105.69039961 148.648930714 c 3
 112.787318115 148.648930714 118.304623188 142.975784145 122.250173633 138.003999219 c 0
 143.282202929 111.501556104 158.93723306 92.5946672891 179.634068505 84.3007370117 c 0
 190.088315039 80.1113626465 194.579731495 72.8996750488 194.579731495 65.6340685059 c 3
 194.579731495 17.2613040812 148.856714713 -85.9128626567 69.203125 -134.936523438 c 1
EndSplineSet
Position2: "cpsp-1" dx=0 dy=0 dh=7 dv=14
EndChar

StartChar: period
Encoding: 46 46 48
Width: 217
VWidth: 1159
Flags: HW
LayerCount: 2
Fore
SplineSet
186.857308105 39.9046066406 m 0
 151.957056836 20.1471091796 143.172421826 11.7709362793 125.978268505 -19.0950825684 c 0
 122.921513818 -24.6787967285 116.601462988 -28.5570455566 109.505437012 -28.5570455566 c 3
 102.408518505 -28.5570455566 94.0188503906 -24.5020759278 90.6666685059 -19.0950825684 c 0
 74.8996695312 5.86953256836 65.2053890137 21.7902556153 32.1535659179 41.4495748535 c 0
 26.6760627441 44.6491342285 21.6798418946 53.2774748535 21.6798418946 60.3743933594 c 3
 21.6798418946 67.4704193359 26.8956249512 72.1955203125 32.1535659179 75.7503063477 c 0
 61.679898291 96.0817001465 74.1945713867 106.224922901 90.6666685059 137.115040039 c 0
 93.6154271484 142.756768604 102.408518505 147.759971534 109.505437012 147.759971534 c 3
 116.601462988 147.759971534 122.796559716 142.626459326 125.978268505 137.115040039 c 0
 140.320790722 112.718966066 153.927761523 93.5040755372 186.857308105 74.2062306641 c 0
 192.358909571 71.0388023437 196.319271094 65.9263436523 196.319271094 58.8294251465 c 3
 196.319271094 51.7325066406 192.416031446 42.9890297363 186.857308105 39.9046066406 c 0
EndSplineSet
Position2: "cpsp-1" dx=0 dy=0 dh=7 dv=14
EndChar

StartChar: dotlessi
Encoding: 305 305 50
Width: 263
VWidth: 1159
Flags: HMW
AnchorPoint: "Bottom" 135 -15 basechar 0
AnchorPoint: "Ogonek" 189 18 basechar 0
AnchorPoint: "Top" 145 537 basechar 0
LayerCount: 2
Fore
SplineSet
181 212 m 7
 181 171 184 114 189 75 c 5
 189 67 199.087515515 64.3221949247 207 62 c 4
 222.332985102 57.5 237.667014898 56.75 253 56 c 5
 248 -10 l 5
 207.620909203 -4.9228515625 162.318636196 1 118 1 c 5
 79.3024553571 1 56.3258928571 -5.00043402778 14 -9 c 5
 8 54 l 5
 26.3185188138 55.125 53.3232655881 58.6205805761 70 63 c 4
 81 65.888671875 88.0276946393 76.3600303106 89 89 c 4
 91 115 92 179 92 208 c 7
 92 229.316873562 94.0229743269 313.793231058 86 386 c 4
 85 395 84 403 70 403 c 5
 65 403 47 399 38 397 c 5
 28 463 l 5
 89.7910447761 474.454545455 118.626865672 480.181818182 166 517 c 5
 210 485 l 5
 204 468 195.622009466 441.071896956 192 421 c 4
 184 376.666826071 181 231.000382571 181 212 c 7
EndSplineSet
Substitution2: "case-1" I
Substitution2: "pcap-1" i.pcap
Substitution2: "smcp-1" i.smcp
EndChar

StartChar: uniFB01
Encoding: 64257 64257 51
Width: 537
VWidth: 1159
Flags: HW
HStem: -7 33<326.576 383.392> -6 36<34 95.891 473.708 547.909> 1 32<191.619 271.026> 360 37<39 113 187 374.27> 701 55<287.006 403.458>
VStem: 114 71<42.7113 360 397 601.139> 396 65<39.2303 341.179>
LayerCount: 2
Back
SplineSet
351 435 m 4
 290.862745098 436.333333333 236.137254902 437.666666667 177 439 c 5
 176 394.292207792 170 324.162337662 170 304 c 4
 170 232.601036269 177.207328392 133.970758796 185 92 c 4
 188.872453669 71.1432480337 199.006620776 65.1246275813 219 64 c 4
 236.777777778 63 257.222222222 62 275 61 c 5
 270 -8 l 5
 227 -3 167 1 118 1 c 4
 87.2956521739 1 38.9130434783 -4 11 -7 c 5
 9 59 l 5
 21.16 60 35.3561221283 60.1614929676 47 62 c 4
 66 65 73.247949137 69.0798483843 75 82 c 4
 82.5 137.30726257 87 213.631284916 87 280 c 4
 87 306.761363636 87 387.9375 85 437 c 5
 61 436 35 434 8 433 c 5
 8 503 l 5
 33 502 60 500 82 499 c 5
 80 534 79 545 79 558 c 4
 79 614 126.291388649 655.63311092 178 697 c 4
 212.25 721 272.758333333 749 315 749 c 4
 380.080357143 749 455.714285714 733 512 696 c 5
 518.405956187 662.9025597 480.96709363 626.404092479 456 612 c 5
 395.056818182 646 332.147727273 670 283 670 c 4
 195.390243902 670 193.318800847 639.020118044 184 556 c 4
 183.211243717 548.973061582 181 529 180 498 c 5
 235.813333333 498.2 285.26 498.6 341 499 c 4
 402.907304594 499.444257658 431.626865672 504.727272727 479 517 c 5
 523 485 l 5
 517 468 508.622009466 441.071896956 505 421 c 4
 497 376.666826071 494 231.000382571 494 212 c 4
 494 171 502 114.319206503 502 75 c 4
 502 67 512.087515515 64.3221949246 520 62 c 4
 535.332985102 57.5 550.667014898 56.75 566 56 c 5
 561 -10 l 5
 520.620909203 -4.9228515625 475.318636196 1 431 1 c 4
 392.302455357 1 369.325892857 -5.00043402778 327 -9 c 5
 321 54 l 5
 339.318518814 55.125 366.323265588 58.6205805761 383 63 c 4
 394 65.888671875 401.027694639 76.3600303106 402 89 c 4
 404 115 405 179 405 208 c 4
 405 232.670089628 407.304906512 330.462410965 399 414 c 4
 396.873526683 435.389819834 377.516053334 434.412099241 351 435 c 4
EndSplineSet
Fore
SplineSet
312 435 m 0
 265.34178499 436.333333333 222.882352941 437.666666667 177 439 c 1
 176 394.292207792 170 324.162337662 170 304 c 0
 170 232.601036269 177.207328392 133.970758796 185 92 c 0
 188.872453669 71.1432480337 199.016265951 65.2846686174 219 64 c 0
 234.555555556 63 252.444444444 62 268 61 c 1
 263 -8 l 1
 221.980263158 -3 164.743421053 1 118 1 c 0
 87.2956521739 1 38.9130434783 -4 11 -7 c 1
 9 59 l 1
 21.16 60 35.3561221283 60.1614929676 47 62 c 0
 66 65 73.247949137 69.0798483843 75 82 c 0
 82.5 137.30726257 87 213.631284916 87 280 c 0
 87 306.761363636 87 387.9375 85 437 c 1
 61 436 35 434 8 433 c 1
 8 503 l 1
 33 502 60 500 82 499 c 1
 80 534 79 545 79 558 c 0
 79 614 123.769612161 658.999144288 178 697 c 0
 212.25 721 272.758333333 749 315 749 c 0
 367.196428571 749 427.857142857 733 473 696 c 1
 479.405956187 662.9025597 441.96709363 626.404092479 417 612 c 1
 369.795454545 646 321.068181818 670 283 670 c 0
 195.390243902 670 193.318800847 639.020118044 184 556 c 0
 183.211243717 548.973061582 181 529 180 498 c 1
 222.293333333 498.2 259.76107631 498.72173149 302 499 c 0
 363.907304594 499.444257658 392.626865672 504.727272727 440 517 c 1
 484 485 l 1
 478 468 469.622009466 441.071896956 466 421 c 0
 458 376.666826071 455 231.000382571 455 212 c 0
 455 171 463 114.319206503 463 75 c 0
 463 67 473.087515515 64.3221949246 481 62 c 0
 496.332985102 57.5 511.667014898 56.75 527 56 c 1
 522 -10 l 1
 481.620909203 -4.9228515625 436.318636196 1 392 1 c 0
 361.860566192 1 343.96535886 -5.00043402778 311 -9 c 1
 305 59 l 1
 316.522939254 59.5 332.920959221 61.7690879424 344 63 c 0
 355 65.888671875 362.027694639 76.3600303106 363 89 c 0
 365 115 366 179 366 208 c 0
 366 232.670089628 368.304906512 330.462410965 360 414 c 0
 357.873526683 435.389819834 338.509947389 434.18183059 312 435 c 0
EndSplineSet
LCarets2: 1 298
Ligature2: "liga-1" f i
EndChar

StartChar: uni0237
Encoding: 567 567 52
Width: 242
VWidth: 1159
Flags: HMW
AnchorPoint: "Top" 145 537 basechar 0
LayerCount: 2
Fore
SplineSet
-36 -175 m 1
 -32 -117 -18 -85 20 -52 c 0
 41 -34 63 -11 71 18 c 0
 73 25 84 66 84 147 c 3
 84 270 82 348 77 379 c 0
 75 391 68 392 61 392 c 3
 57 392 40 387 32 386 c 1
 20 449 l 1
 75 458 104 470 153 514 c 1
 201 490 l 1
 196 473 187 447 184 428 c 0
 177.933333333 388 171 275 171 257 c 3
 177 184 177 92 177 57 c 3
 177 4 163.896860009 -33.2895758332 143 -57 c 0
 119.857142857 -88 83.2142857143 -110 62 -128 c 0
 50 -138 37 -156 38 -175 c 1
 -36 -175 l 1
EndSplineSet
EndChar

StartChar: U
Encoding: 85 85 53
Width: 824
VWidth: 1159
Flags: HW
AnchorPoint: "Bottom" 428 -15 basechar 0
AnchorPoint: "Top" 431 679 basechar 0
LayerCount: 2
Fore
SplineSet
58.396484375 686 m 1
 86.6317237544 681.35792022 131.336404051 678.908203125 176.989257812 678.908203125 c 3
 215.807330482 678.908203125 255.278979511 680.900160555 284.811523438 685.0859375 c 1
 293.381835938 616.18359375 l 1
 245.727701755 610.183578545 229.921238945 618.602312561 229.583007812 602.233398438 c 0
 229.089446727 587.278524812 222.000164959 396.954278681 232.690429688 266.7421875 c 24
 237 217 241.081054688 174.22265625 266.22265625 143.590820312 c 0
 300.378967233 98.2013649575 351.968521939 71.6708984375 461.627929688 71.6708984375 c 3
 480.532272269 71.6708984375 549.86730528 77.0093802563 594.838867188 133.676757812 c 0
 621.672851562 164.193359375 635.302734375 201.356445312 640.783203125 262.34375 c 0
 648.921874998 349.448333563 643.933593749 509.885980421 643.280273438 600.607421875 c 0
 643.132199432 616.958508193 625.974738827 612.269560371 582.494140625 613.26953125 c 1
 584.494140625 686.171875 l 1
 611.972108561 680.793217162 658.356247186 676.318359375 699.787109375 676.318359375 c 3
 736.230184125 676.318359375 768.973170921 679.234343832 783.565429688 686.9140625 c 1
 789.306640625 610.442382812 l 1
 747.472342912 611.812310923 722.655121594 609.24542337 722.549804688 604.462890625 c 0
 722.926757812 591.125679609 728.093750004 474.291485307 723.864257812 262.171875 c 0
 722.443358056 183.613110281 697.146575435 123.970064402 655.375976562 77.8818359375 c 0
 603.011910167 15.8936600558 522.487832949 -13.3974609375 427.2265625 -13.3974609375 c 3
 310.929774508 -13.3974609375 230.212192208 20.6614028523 180.645507812 78.3115234375 c 0
 141.089364791 121.225521846 125.037010496 177.613719133 121.482421875 245.9140625 c 0
 119.535812379 281.165560553 122.099617389 581.978879098 117.06640625 596.334960938 c 0
 113.882929154 608.587772183 102.84197544 608.093552824 50.654296875 613.09765625 c 1
 58.396484375 686 l 1
EndSplineSet
Position2: "cpsp-1" dx=0 dy=0 dh=50 dv=100
Substitution2: "c2pc-1" u.pcap
Substitution2: "c2sc-1" u.smcp
EndChar

StartChar: V
Encoding: 86 86 54
Width: 827
VWidth: 1159
Flags: HW
AnchorPoint: "Bottom" 421 -15 basechar 0
AnchorPoint: "Top" 422 679 basechar 0
LayerCount: 2
Fore
SplineSet
272.369140625 684.634765625 m 1
 270.541015625 610.249023438 l 1
 255.543934497 610.081054688 234.757045983 610.076342289 230.639648438 609.083984375 c 0
 222.487304689 607.119140625 223.473632813 602.583984375 226.540039062 594.18359375 c 1
 229.194335938 585.351563914 436.998046875 153.538027443 439.987304688 140.088867188 c 1
 446.464831626 156.189760952 622.335606114 580.20278897 627.559570312 588.581054688 c 1
 634.587107567 595.686896206 634.958974648 599.38083232 627.2578125 601.600585938 c 0
 617.167655912 604.508934205 589.932206663 604.845124187 577.141601562 607.991210938 c 1
 579.055664062 685.118164062 l 1
 608.416342272 676.59375 645.002675174 676.23046875 683.366210938 676.23046875 c 3
 720.632084827 676.23046875 759.25661715 680.360895056 778.90234375 688.860351562 c 1
 788.47265625 608.474609375 l 1
 735.85289602 594.43606726 717.297580036 595.923919814 711.127929688 581.893554688 c 1
 691.134993479 547.267726687 536.986091162 214.298295722 476.102539062 58.828125 c 0
 466.68840576 34.788513952 459.360440905 14.4684860576 453.639648438 -8.798828125 c 1
 384.793945312 -9.712890625 l 1
 377.946286876 18.257128866 374.264150995 20.7333354257 361.0703125 54.9140625 c 0
 318.38022683 165.50948684 195.953769813 390.760437871 104.71875 586.18359375 c 0
 89.9637412578 617.788457533 89.0685066773 605.990806684 32.1259765625 618.474609375 c 1
 43.5234375 689.376953125 l 1
 88.0619463714 679.705041596 124.333896384 676.552734375 153.428710938 676.552734375 c 3
 188.411291525 676.552734375 220.798648557 681.36328125 272.369140625 684.634765625 c 1
EndSplineSet
Position2: "cpsp-1" dx=0 dy=0 dh=50 dv=100
Substitution2: "c2pc-1" v.pcap
Substitution2: "c2sc-1" v.smcp
EndChar

StartChar: W
Encoding: 87 87 55
Width: 1100
VWidth: 1159
Flags: HW
AnchorPoint: "Bottom" 566 -15 basechar 0
AnchorPoint: "Top" 561 679 basechar 0
LayerCount: 2
Fore
SplineSet
1057.625 689.688476562 m 1
 1069.10839844 624.442382812 l 1
 1008.55194206 595.859933459 1015.07872395 617.173402032 976.342773438 527.689453125 c 1
 877.442432112 269.233104632 849.386253339 179.802245787 799.774414062 46.828125 c 0
 789.895487469 19.7443548579 789.623362732 18.2673001727 778.591796875 -6.3974609375 c 1
 710.600585938 -9.2255859375 l 1
 708.704576141 21.3008638711 706.475827182 24.4102287338 692.612304688 66.4833984375 c 0
 656.605064066 172.123360464 609.964491918 281.521786578 574.831054688 386.409179688 c 1
 498.600289319 211.163846207 433.061102207 45.076863386 430.68359375 36.3974609375 c 0
 425.167100844 15.3950946944 425.728226638 10.5736936048 418.513671875 -8.3974609375 c 1
 355.922851562 -8.3974609375 l 1
 342.466369205 29.4286951809 340.544667938 35.6954887172 312.233398438 110.256835938 c 0
 219.859895211 347.626987023 128.204069 543.469054037 124.639648438 552.151367188 c 0
 120.505079695 562.473304484 106.290801735 585.739653703 90.955078125 596.836914062 c 0
 69.3628848485 611.905249901 56.4213711221 612.132400653 31.3662109375 614.872070312 c 1
 44.677734375 691.516601562 l 1
 70.657997564 680.710254675 115.003971766 675.833984375 159.579101562 675.833984375 c 3
 203.848770617 675.833984375 248.346024926 684.272394497 275.05859375 689.602539062 c 1
 285.456054688 615.560546875 l 1
 244.530694116 606.157325165 228.686523438 616.112779294 228.686523438 591.366210938 c 1
 228.686523438 584.60159177 228.845607757 578.679544677 232.373046875 567.881835938 c 1
 233.064035381 559.205635053 402.156415916 161.698459072 408.451171875 142.794921875 c 1
 415.747909812 161.178697629 541.11373002 445.846097618 544.655273438 458 c 1
 507.170181121 562.929626699 482.083814667 600.331753444 476.44140625 608.090820312 c 1
 470.391530834 613.94281105 450.551928803 614.131731692 429.055664062 615.958007812 c 1
 436.453125 685.602539062 l 1
 461.005125704 679.682431087 502.225287934 676.338867188 539.646484375 676.338867188 c 3
 578.926841878 676.338867188 619.636998548 680.102939556 650.0703125 688.602539062 c 1
 658.640625 616.130859375 l 1
 644.499852557 614.824446909 581.24835122 612.694578801 595.418945312 611.760742188 c 0
 607.185185431 610.985351562 608.206789868 604.389648438 609.14453125 592.893554688 c 1
 609.170749607 590.145310581 765.280962285 156.066613592 770.958984375 139.133789062 c 1
 821.087941621 281.868304194 874.192057265 434.191918053 906.647460938 554.278320312 c 0
 920.076670376 605.283330109 888.079406163 608.637388946 825.413085938 613.474609375 c 1
 828.155273438 684.688476562 l 1
 851.808253028 679.506218184 884.387765214 676.803710938 920.990234375 676.803710938 c 3
 963.637858889 676.803710938 1012.10017972 680.930672203 1057.625 689.688476562 c 1
EndSplineSet
Position2: "cpsp-1" dx=0 dy=0 dh=50 dv=100
Substitution2: "c2pc-1" w.pcap
Substitution2: "c2sc-1" w.smcp
EndChar

StartChar: X
Encoding: 88 88 56
Width: 801
VWidth: 1159
Flags: HW
HStem: -15.3115 62.2461<71.9355 130.71> -9.31152 69.9883<176.984 253.396 672.902 730.485> 613.044 66.7305<69.7783 134.576 271.457 302.048 625.609 691.906>
AnchorPoint: "Bottom" 400 -15 basechar 0
AnchorPoint: "Top" 398 679 basechar 0
LayerCount: 2
Fore
SplineSet
69.7783203125 682.946289062 m 1xa0
 116.264160041 680.465360855 152.348033435 678.719726562 179.09765625 678.719726562 c 3
 217.025637982 678.719726562 247.025252583 680.68584157 302.047851562 687.774414062 c 1
 304.875976562 621.043945312 l 1
 294.123610523 617.207252307 284.41890573 615.276171772 270.822265625 612.560546875 c 0
 268.670898438 612.130859375 270.375 599.587890625 271.2734375 598.323242188 c 1
 272.692382812 598.761718749 406.21484375 414.506835938 408.490234375 412.7265625 c 1
 422.702148438 435.896281795 499.10585539 556.440675241 520.817382812 592.108398438 c 0
 524.716796875 598.407226562 527.95703125 606.377929688 521.754882812 607.475585938 c 1
 512.594195008 608.986342384 487.225295362 611.454527447 478.120117188 620.388671875 c 1
 487.689453125 684.205078125 l 1
 513.904456496 679.15767991 538.525487693 676.881835938 563.288085938 676.881835938 c 3
 604.363942242 676.881835938 645.716707689 680.555230163 691.344726562 687.205078125 c 1
 697 620.216796875 l 1
 637.950855807 609.991133147 623.375164263 611.50630744 593.516601562 572.872070312 c 0
 586.368899168 563.486343176 571.199099283 535.823197638 445.185546875 367.762695312 c 1
 468.03515625 337.668383858 636.810546875 127.707122077 652.86328125 106.416992188 c 1
 677.246960427 76.7246842738 685.071843925 72.4289797778 742.54296875 63.6767578125 c 1
 729.145507812 -6.3115234375 l 1x60
 701.473872142 1.0662835395 667.63462989 4.5029296875 632.997070312 4.5029296875 c 3
 583.015033759 4.5029296875 531.427617075 -0.0195528932115 493.2734375 -8.1396484375 c 1
 487.532226562 58.6767578125 l 1
 500.549480637 62.8734752626 516.692290393 65.0896544187 525.565429688 66.5830078125 c 0
 542.394531251 70.1318359375 540.981242872 77.0459505973 535.317382812 85.1123046875 c 0
 455.680664062 201.264914384 401.278320312 278.650981774 388.388671875 297.409179688 c 1
 337.081218018 227.974456209 272.847614837 125.513016096 243.1015625 77.1181640625 c 1
 242.155029878 75.6553766096 247.569016502 67.1160486318 253.396484375 66.828125 c 0
 263.939933275 66.3071831572 283.489599845 66.896810603 294.64453125 62.24609375 c 1
 292.81640625 -5.3115234375 l 1
 248.774489909 -0.843234823851 212.814911175 2.1240234375 176.983398438 2.1240234375 c 3
 144.073195196 2.1240234375 111.280373274 -0.59197493898 71.935546875 -7.3115234375 c 1
 69.021484375 54.9345703125 l 1
 110.666141456 63.3322285159 130.221907118 71.5647507413 156.83984375 97.12109375 c 0
 163.872836757 103.87360947 192.499867256 147.243014239 347.76171875 341.520507812 c 1
 162.090258794 572.850590066 147.412610589 595.171628561 135.399414062 606.985351562 c 0
 117.95790029 620.301454708 93.0477540997 616.326542345 68.7783203125 620.872070312 c 1
 69.7783203125 682.946289062 l 1xa0
EndSplineSet
Position2: "cpsp-1" dx=0 dy=0 dh=50 dv=100
Substitution2: "c2pc-1" x.pcap
Substitution2: "c2sc-1" x.smcp
EndChar

StartChar: Y
Encoding: 89 89 57
Width: 736
VWidth: 1159
Flags: HW
AnchorPoint: "Bottom" 393 -15 basechar 0
AnchorPoint: "Top" 386 679 basechar 0
LayerCount: 2
Fore
SplineSet
273.505859375 610.958007812 m 1
 254.135236231 611.8482133 251.443431848 603.560546875 240.677734375 603.560546875 c 0
 239.128802223 603.560546875 232.354211602 593.560511434 233.30078125 592.09765625 c 1
 292.630482888 480.918652014 370.109786474 384.962791857 396.447265625 348.267578125 c 1
 435.359543151 414.189313935 542.225806243 599.466738855 542.42578125 594.168945312 c 1
 546.129535388 598.765476717 548.304870995 606.109475349 536.524414062 606.943359375 c 0
 526.536191504 607.650379424 509.440109229 608.47055542 498.651367188 613.130859375 c 1
 504.479492188 687.688476562 l 1
 525.779179047 682.696796804 566.745156205 677.391601562 608.3828125 677.391601562 c 3
 637.28930041 677.391601562 666.440541706 682.545712791 687.517578125 689.430664062 c 1
 697.517578125 609.958007812 l 1
 658.849165738 609.88587065 642.435179997 603.904633411 632.750976562 590.432617188 c 1
 563.620538264 515.411059679 491.03831771 393.00875941 443.922851562 291.08984375 c 1
 443.292038221 249.283962277 440.157997555 208.541512648 450.3125 91.828125 c 0
 451.833699171 76.1653451824 496.307987844 69.5681968939 549.571289062 66.1064453125 c 1
 540.915039062 -6.1396484375 l 1
 487.729087155 0.00800716778032 438.260687694 4.46484375 388.904296875 4.46484375 c 3
 343.566785532 4.46484375 298.321772356 0.289566500396 249.930664062 -10.537109375 c 1
 232.446289062 63.451171875 l 1
 302.1560077 71.990087445 340.264578661 82.6898286908 338.134765625 98.017578125 c 1
 337.784037944 101.313612511 334.965146233 260.552335392 335.962890625 263.680664062 c 1
 312.932584764 296.514469519 220.162667603 455.453327252 105.5234375 590.913085938 c 1
 101.252518027 600.015225377 75.4764553372 602.617133406 43.8125 616.614257812 c 1
 49.640625 686.774414062 l 1
 81.9903871182 682.668117626 130.581478955 677.553710938 174.552734375 677.553710938 c 3
 209.920829094 677.553710938 242.718856724 679.666259615 264.849609375 685.602539062 c 1
 273.505859375 610.958007812 l 1
EndSplineSet
Position2: "cpsp-1" dx=0 dy=0 dh=50 dv=100
Substitution2: "c2pc-1" y.pcap
Substitution2: "c2sc-1" y.smcp
EndChar

StartChar: Z
Encoding: 90 90 58
Width: 724
VWidth: 1159
Flags: HW
HStem: -6.3116 67.4132<217.375 591.627> 592.449 74.1035<140.203 519.407> 686.021 20G<95.5974 132.067>
AnchorPoint: "Bottom" 360 -15 basechar 0
AnchorPoint: "Top" 372 679 basechar 0
LayerCount: 2
Fore
SplineSet
36.9375 547.66796875 m 1
 67.259661869 614.294848796 67.5951507318 708.066441933 123.599609375 719.020507812 c 1
 140.533708751 699.663131696 162.222774583 679.603838696 164.526367188 679.552734375 c 0
 212.782979174 678.460323565 546.368957667 673.295947781 641.94921875 678.115234375 c 0
 652.092919333 678.616454616 651.559032914 678.097984917 653.802734375 677.725585938 c 1
 679.512695312 639.358398438 l 1
 680.319506336 639.768068654 674.67465855 632.842710677 673.966796875 632.669921875 c 0
 668.092447572 631.231512423 225.6328125 68.966796875 217.375 67.1015625 c 1
 313.71875 66.70703125 423.803378266 74.128303545 487.84375 72.0107421875 c 0
 593.022124421 68.5182464698 605.882797337 91.7722767472 633.796875 178.146484375 c 1
 696.440429688 149.522460938 l 1
 658.374753938 60.3953756873 644.140754692 15.0668569512 612.970703125 -29.794921875 c 1
 580.662383628 -10.4296263617 580.620795496 5.60999970708 492.469726562 4.0966796875 c 0
 376.00523544 2.0990482806 123.897460938 8.0419921875 60.580078125 -0.3115234375 c 1
 40.52734375 53.193359375 l 1
 82.7099609375 74.193359375 114.59375 105.26953125 145.169921875 138.451171875 c 1
 266.671875 284.719726562 395.341321424 456.157330106 516.321289062 606.221679688 c 1
 516.373946372 606.182408399 519.407226562 610.221679688 519.407226562 610.221679688 c 1
 496.913029425 605.730371768 169.219377212 605.995458903 157.724609375 605.44921875 c 1
 135.87972744 611.135517742 127.888202123 598.843388348 97.6962890625 527.555664062 c 1
 36.9375 547.66796875 l 1
EndSplineSet
Position2: "cpsp-1" dx=0 dy=0 dh=50 dv=100
Substitution2: "c2pc-1" z.pcap
Substitution2: "c2sc-1" z.smcp
EndChar

StartChar: parenleft
Encoding: 40 40 59
Width: 351
VWidth: 1515
Flags: HW
LayerCount: 2
Fore
SplineSet
305 714 m 1
 335 654 l 1
 188 580.948228883 115 442.14986376 115 271 c 3
 115 99.8888888889 173 -21.1409214092 335 -114 c 1
 308 -177 l 1
 133 -81.5925925926 37 69.8148148148 37 271 c 3
 37 472.269320843 139 629.964871194 305 714 c 1
EndSplineSet
Position2: "cpsp-1" dx=0 dy=0 dh=50 dv=100
Position2: "'case' vertical ajustments for all-caps-1" dx=0 dy=125 dh=0 dv=0
EndChar

StartChar: zero
Encoding: 48 48 63
Width: 573
VWidth: 1159
Flags: HW
LayerCount: 2
Fore
SplineSet
282 431 m 3
 171 431 136 317 136 259 c 3
 136 171 186 70 305 70 c 3
 379 70 440 153 440 248 c 3
 440 365 353 431 282 431 c 3
285 508 m 3
 456 508 522 364 522 252 c 3
 522 140 449 -12 297 -12 c 3
 134 -12 51 112 51 260 c 3
 51 336 107 508 285 508 c 3
EndSplineSet
Substitution2: "'zero' Slashed Zero lookup 22-1" zero.alt
Substitution2: "dnom-1" zero.denom
Substitution2: "numr-1" zero.numerator
Substitution2: "lnum-1" zero.proportionallining
Substitution2: "tnum-1" zero.tabulartext
EndChar

StartChar: one
Encoding: 49 49 64
Width: 485
VWidth: 1159
Flags: HW
LayerCount: 2
Fore
SplineSet
117.524414062 499.12109375 m 1
 189.672128854 494.438329348 335.915068994 502.450452993 378.8125 514.05078125 c 9
 378.984375 450.084960938 l 1
 296.468730675 448.316929396 294.219036747 430.859446191 292.806640625 417.62890625 c 0
 289.402160508 378.358486325 289.665039062 308.629814655 289.665039062 242.504882812 c 3
 289.665039062 160.608066234 295.474533498 99.661053904 302.337890625 76.615234375 c 0
 306.736710409 63.262671857 329.519966497 57.3773913359 380.9296875 55.734375 c 9
 377.154296875 -0.65625 l 1
 305.5123858 -0.0986328125 219.193846814 -0.0283203125 110.567382812 -0.65625 c 9
 103.021484375 54.5673828125 l 1
 135.763569642 56.1120197886 190.356523781 69.3104573194 193.157226562 75.8779296875 c 0
 202.020004693 99.0405079718 206.169921875 130.235064743 206.169921875 242.504882812 c 3
 206.169921875 343.026133974 204.960865849 364.470950193 200.547851562 413.208984375 c 0
 198.512473999 432.486238842 184.651227416 436.657344328 115.690429688 442.640625 c 9
 117.524414062 499.12109375 l 1
EndSplineSet
Substitution2: "dnom-1" one.denom
Substitution2: "numr-1" one.numerator
Substitution2: "tnum-1" one.tabulartext
Substitution2: "lnum-1" one.proportionallining
EndChar

StartChar: two
Encoding: 50 50 65
Width: 623
VWidth: 1159
Flags: HW
LayerCount: 2
Fore
SplineSet
87.302734375 386.836914062 m 1
 123.980253671 431.68583749 193.160491339 515.731445312 289.674804688 515.731445312 c 1
 395.63878765 515.731445312 445.02734375 426.194600354 445.02734375 357.551757812 c 3
 445.02734375 219.575001779 223.648708109 117.965097942 201.237304688 77.86328125 c 1
 326.039860158 87.6882869403 402.158607567 75.6184169764 414.154296875 82.6318359375 c 1
 456.62413382 100.914904091 479.825074196 141.532225991 499.125976562 166.438476562 c 1
 558.072265625 121.48828125 l 1
 558.072265625 121.48828125 510.359938424 80.9584353012 494.185546875 -11.912109375 c 1
 481.110902269 -1.23708173675 359.538779624 0.9921875 334.098632812 0.9921875 c 1
 254.951826748 0.9921875 134.602097773 3.76627430396 107.774414062 -6.544921875 c 1
 81.046875 57.76171875 l 1
 145.408343027 127.662238289 350.268554688 238.240282637 350.268554688 344.666015625 c 3
 350.268554688 404.887793359 307.578457229 425.686523438 268.663085938 425.686523438 c 1
 227.191004079 425.686523438 167.498716895 386.951728103 126.244140625 342.372070312 c 1
 87.302734375 386.836914062 l 1
EndSplineSet
Substitution2: "dnom-1" two.denom
Substitution2: "numr-1" two.numerator
Substitution2: "tnum-1" two.tabulartext
Substitution2: "lnum-1" two.proportionallining
EndChar

StartChar: three
Encoding: 51 51 66
Width: 490
VWidth: 1159
Flags: HW
LayerCount: 2
Fore
SplineSet
91.6611328125 -123.62890625 m 1
 263.54708969 -65.6119174511 326.293945312 -9.55870690353 326.293945312 55.8349609375 c 3
 326.293945312 132.962610287 272.884319617 159.036243076 233.853515625 184.943359375 c 1
 216.486177207 173.91254081 165.236529373 147.880763098 130.74609375 138.388671875 c 1
 99.5302734375 183.491210938 l 1
 195.67312775 235.645170291 291.3671875 280.544268662 291.3671875 362.170898438 c 3
 291.3671875 397.750300104 261.169822076 425.580624023 228.697865625 425.580624023 c 3
 171.56986123 425.580624023 138.932906104 388.97669248 111.177351855 364.872159278 c 1
 73.9510619628 402.511373926 l 1
 99.8139851562 444.115723535 179.711400684 507.384854834 249.019701513 507.384854834 c 3
 331.194224707 507.384854834 382.790434278 448.02138086 382.790434278 381.367524072 c 3
 382.790434278 297.559056728 330.329719465 261.564348048 306.267578125 240.3359375 c 1
 349.172675672 214.649459822 417.740234375 165.614198351 417.740234375 68.4609375 c 3
 417.740234375 -55.4290682166 213.870190824 -148.784580583 118 -177.099609375 c 1
 91.6611328125 -123.62890625 l 1
EndSplineSet
Substitution2: "dnom-1" three.denom
Substitution2: "numr-1" three.numerator
Substitution2: "tnum-1" three.tabulartext
Substitution2: "lnum-1" three.proportionallining
EndChar

StartChar: four
Encoding: 52 52 67
Width: 641
VWidth: 1159
Flags: HW
LayerCount: 2
Fore
SplineSet
359.951171875 74.9599609375 m 1
 359.951171875 175.426330189 361.159519887 258.608406746 355.930883204 326.52306416 c 1
 355.930883204 326.52306416 237.784464748 172.404139587 160.889648438 73.408203125 c 1
 218.967343506 74.9599609375 313.356743159 74.9599609375 359.951171875 74.9599609375 c 1
466.108818359 471.175559472 m 1
 444.689590398 424.868215746 441.502624571 350.695737294 440.897706982 224.267536572 c 0
 440.55351767 152.331728821 441.624385982 160.554288418 442.193359375 77.39453125 c 1
 516.842433034 76.5282351841 503.138147588 82.0349310915 549.87890625 122.48046875 c 1
 549.87890625 122.48046875 591.503169428 105.833466249 595.077148438 103.841796875 c 1
 595.077148438 103.841796875 572.727086522 36.232989454 559.060546875 -8.634765625 c 1
 526.680623236 -0.279416755379 477.008571188 1.98720714906 442.193359375 2.1435546875 c 1
 441.48037571 -46.3520634997 450.699325412 -89.4580089827 465.4140625 -105.715820312 c 1
 417.388439432 -113.103068244 422.391025799 -156.095169761 392 -177.099609375 c 1
 392 -177.099609375 323.115168684 -142.959655092 320.409179688 -138.801757812 c 1
 357.622869435 -101.554242458 360.669975907 -57.7928730422 360.952148438 1.044921875 c 1
 59.59327038 1.044921875 125.966911877 9.94457029005 80.1083984375 -34.75390625 c 1
 80.1083984375 -34.75390625 21.4462220357 4.04517047019 17.505859375 7.71484375 c 1
 37.1960901944 27.4549496647 377.388561935 439.777186778 405.127050536 507.017878183 c 1
 466.108818359 471.175559472 l 1
EndSplineSet
Substitution2: "dnom-1" four.denom
Substitution2: "numr-1" four.numerator
Substitution2: "tnum-1" four.tabulartext
Substitution2: "lnum-1" four.proportionallining
EndChar

StartChar: five
Encoding: 53 53 68
Width: 488
VWidth: 1159
Flags: HW
LayerCount: 2
Fore
SplineSet
102.69921875 499.0390625 m 1
 256.250991516 491.950717209 290.179603673 495.631585183 320.098632812 497.995117188 c 0
 351.400280649 500.466374277 375.683163167 548.040321315 385.01953125 570.239257812 c 1
 385.01953125 570.239257812 430.492422805 539.563581069 433.568359375 537.970703125 c 1
 403.518498358 483.73894848 371.958871464 410.753445236 351.440429688 410.86328125 c 0
 269.734044048 411.300388175 276.326813766 410.03353433 173.65234375 410.284179688 c 1
 173.65234375 410.284179688 174.005477924 321.940653026 173.424804688 308.461914062 c 1
 308.730213229 316.501947111 388.470703125 237.880778556 388.470703125 122.732421875 c 3
 388.470703125 -38.9668011996 223.587635937 -157.603482359 69 -177.099609375 c 1
 69 -177.099609375 69.3986299408 -115.162573757 66.654296875 -111.411132812 c 1
 131.620330966 -103.229801043 306.97265625 -47.8611458637 306.97265625 111.155273438 c 3
 306.97265625 149.161897424 280.474349454 235.799020386 97.517578125 227.197265625 c 1
 104.558112047 304.810418512 106.481063422 408.7616833 102.69921875 499.0390625 c 1
EndSplineSet
Substitution2: "dnom-1" five.denom
Substitution2: "numr-1" five.numerator
Substitution2: "tnum-1" five.tabulartext
Substitution2: "lnum-1" five.proportionallining
EndChar

StartChar: six
Encoding: 54 54 69
Width: 603
VWidth: 1159
Flags: HW
LayerCount: 2
Fore
SplineSet
384.087890625 676.493164062 m 5
 384.087890625 676.493164062 403.990597725 619.61037578 408.567382812 614.150390625 c 5
 228.487998209 509.783366183 175.508 423.698280518 175.508 261.36505 c 3
 175.508 192.592178692 218.274981927 62.248046875 322.010742188 62.248046875 c 3
 372.618743201 62.248046875 443.15205 110.627068244 443.15205 185.8696 c 3
 443.15205 302.696220343 376.107106002 340.865549903 322.172261865 340.865549903 c 3
 295.315040679 340.865549903 282.203016456 326.146852321 269.47525288 317.644942528 c 1
 236.533210888 370.02995 l 1
 257.363035098 395.863725 290.03988618 420.6649 340.65616538 420.6649 c 3
 451.439013003 420.6649 527.25895 317.112859969 527.25895 197.19295 c 3
 527.25895 83.5660419472 429.08310834 -14.0537109375 306.094726562 -14.0537109375 c 3
 140.011144607 -14.0537109375 86.6972106934 148.484872703 86.6972106934 243.2464 c 3
 86.6972106934 426.975713376 177.598739051 570.254457592 384.087890625 676.493164062 c 5
EndSplineSet
Substitution2: "dnom-1" six.denom
Substitution2: "numr-1" six.numerator
Substitution2: "tnum-1" six.tabulartext
Substitution2: "lnum-1" six.proportionallining
EndChar

StartChar: seven
Encoding: 55 55 70
Width: 575
VWidth: 1159
Flags: HW
LayerCount: 2
Fore
SplineSet
179.084960938 507.116210938 m 1
 179.773353625 506.083524826 194.768773191 500.25212358 206.2109375 499.977539062 c 0
 323.365130755 497.208016817 485.987977408 499.028236941 507.037109375 500.927734375 c 1
 507.037109375 500.927734375 525.509836237 448.39591517 529.170898438 444.54296875 c 1
 503.528597584 404.632633136 219.539176689 -134.829303124 209.734375 -172.337890625 c 1
 209.734375 -172.337890625 108.386322598 -172.113512823 106.305664062 -172.180664062 c 1
 203.195372184 20.1726928826 300.901450774 182.842399286 415.913085938 401.1015625 c 0
 419.329944661 407.335859328 414.325429404 414.909347803 404.180664062 415.647460938 c 0
 339.851755421 420.344081066 330.201944638 420.350129823 282.171875 419.440429688 c 0
 162.384433385 417.582713306 136.880603498 413.700283927 110.012695312 343.680664062 c 1
 110.012695312 343.680664062 61.8106510239 368.984082824 57.427734375 370.1484375 c 1
 57.427734375 370.1484375 113.49002002 493.116848069 122.692382812 537.783203125 c 1
 179.084960938 507.116210938 l 1
EndSplineSet
Substitution2: "dnom-1" seven.denom
Substitution2: "numr-1" seven.numerator
Substitution2: "tnum-1" seven.tabulartext
Substitution2: "lnum-1" seven.proportionallining
EndChar

StartChar: eight
Encoding: 56 56 71
Width: 570
VWidth: 1159
UnlinkRmOvrlpSave: 1
Flags: HW
LayerCount: 2
Fore
SplineSet
272.333984375 596.135742188 m 3
 237.108400983 596.135742188 203.35546875 570.940661593 203.35546875 523.268554688 c 3
 203.35546875 382.115003186 488.876953125 362.149062541 488.876953125 173.89453125 c 3
 488.876953125 87.6819690175 437.276279164 -12.5263671875 279.974609375 -12.5263671875 c 3
 163.43678299 -12.5263671875 82.57421875 59.3987685114 82.57421875 167.532226562 c 3
 82.57421875 321.800668889 365.52734375 392.678527547 365.52734375 505.934570312 c 3
 365.52734375 566.348785178 321.444351094 596.135742188 272.333984375 596.135742188 c 3
275.196289062 660.852539062 m 3
 309.469560689 660.852539062 448 652.211302001 448 499 c 3
 448 356.592503849 173 324.056565347 173 182 c 7
 173 144.479504719 209.4739847 54 309 54 c 3
 359.913157609 54 401 88.506777561 401 146 c 3
 401 205.435124094 376.776527499 231.752900761 337 260 c 0
 199.000247266 358.00020556 119.263671875 413.715947823 119.263671875 491.041015625 c 3
 119.263671875 614.638491857 220.559812246 660.852539062 275.196289062 660.852539062 c 3
EndSplineSet
Substitution2: "dnom-1" eight.denom
Substitution2: "numr-1" eight.numerator
Substitution2: "lnum-1" eight.proportionallining
Substitution2: "tnum-1" eight.tabulartext
EndChar

StartChar: uniFB00
Encoding: 64256 64256 73
Width: 642
VWidth: 1159
Flags: HW
HStem: -6 39<34 100.133 318.611 384.133 475.174 568.568> 1 32<191.619 269.028 475.619 566.018> 360 37<39 113 187 399 471 624> 669 55<273.933 387.321> 701 55<557.254 661.117>
VStem: 114 71<42.7113 360 397 588.557> 400 69<44.5312 360 397 610.446>
LayerCount: 2
Fore
SplineSet
379 499 m 1
 377 534 376 545 376 558 c 0
 376 574.251683646 379.982751536 589.29337904 386.900390625 603.469726562 c 1
 348.89659197 632.917988475 310.537536933 653 280 653 c 3
 234.705792683 653 204.745700407 625.280223539 194 550 c 0
 193 543.724137931 191 525.793103448 190 498 c 1
 228.133333333 499 262.564512922 503 300 503 c 3
 326.707916796 503 355.513513514 500 379 499 c 1
454.2421875 680.060546875 m 1
 461.007604095 685.735656059 467.962896697 691.370293367 475 697 c 0
 508.75 721 568.375 749 610 749 c 3
 647 749 690 733 722 696 c 1
 728.405956187 662.9025597 690.96709363 626.404092479 666 612 c 1
 635 646 603 670 578 670 c 3
 496.756097561 670 495.029532143 639.020118044 481 556 c 0
 480 549 478 529 477 498 c 1
 532.12 499 581.94 501 636 503 c 1
 636 433 l 1
 580.94117647 435 529.05882353 437 474 439 c 1
 473 394.292207792 467 324.162337662 467 304 c 3
 467 232.601036269 474.207328392 133.970758796 482 92 c 0
 487.580889111 71.1432480337 502.186012295 65.1246275813 531 64 c 0
 548.777777778 63 569.222222222 62 587 61 c 1
 582 -8 l 1
 534.756578947 -3 468.835526316 1 415 1 c 3
 389.173913043 1 348.47826087 -4 325 -7 c 1
 323 59 l 1
 329.72 60 337.565225387 60.1614929676 344 62 c 0
 363 65 370.247949137 69.0798483843 372 82 c 0
 379.5 137.30726257 384 213.631284916 384 280 c 3
 384 306.761363636 384 387.9375 382 437 c 1
 356.441558442 436 328.770630839 433 300 433 c 3
 261.559869985 433 225.405228758 437 187 439 c 1
 186 394.292207792 180 324.162337662 180 304 c 3
 180 232.601036269 187.207328392 133.970758796 195 92 c 0
 197.733496708 71.1432480337 204.88702643 65.1246275813 219 64 c 0
 237.412698413 63 258.587301587 62 277 61 c 1
 272 -8 l 1
 231.263157895 -3 174.421052632 1 128 1 c 3
 94.4260869565 1 41.5217391305 -4 11 -7 c 1
 9 59 l 1
 24.36 60 42.291943741 60.1614929676 57 62 c 0
 76 65 83.247949137 69.0798483843 85 82 c 0
 92.5 137.30726257 97 213.631284916 97 280 c 3
 97 306.761363636 97 387.9375 95 437 c 1
 67.8831168831 436 38.5064935065 434 8 433 c 1
 8 503 l 1
 36.3783783784 502 67.027027027 500 92 499 c 1
 90 530.440677966 89 540.322033898 89 552 c 3
 89 601.151079137 133.587910603 634.523605725 178 674 c 0
 211.5 700.769230769 270.683333333 732 312 732 c 3
 358.815434472 732 413.017712285 716.280148763 454.2421875 680.060546875 c 1
EndSplineSet
Substitution2: "salt-1" uniFB00.alt
LCarets2: 1 311
Ligature2: "liga-1" f f
EndChar

StartChar: question
Encoding: 63 63 74
Width: 394
VWidth: 1159
Flags: HW
LayerCount: 2
Fore
SplineSet
55.171875 578.322265625 m 1
 57.0597448877 595.480993542 57.85546875 610.983257016 57.85546875 624.993164062 c 3
 57.85546875 686.727047125 37.88671875 712.359750166 37.88671875 725.950195312 c 3
 37.88671875 734.158843342 48.3825975269 739.863048023 80.912109375 743.326171875 c 1
 101.911981539 688.326171875 125.347838873 688.326171875 155.34765625 688.326171875 c 3
 255.220433571 688.326171875 383.8203125 611.427111468 383.8203125 474.154296875 c 3
 383.8203125 371.581251651 319 318 259 299 c 0
 216.001961128 283.969300264 202 274.07518797 206.215820312 214 c 1
 206.215820312 214 179.601627984 209.982421875 141.82421875 209.982421875 c 1
 134.696376578 217.710412386 128.52138029 246.894049855 128.52138029 279.093402885 c 3
 128.52138029 314.029889681 135.790818847 352.51659059 157 371 c 0
 202.330253207 406.013516519 320.33984375 359.744148134 320.33984375 465.154296875 c 3
 320.33984375 549.857871087 241.176830016 585.364729586 139.033099141 585.364729586 c 3
 112.316434429 585.364729586 84.0275811843 582.935585386 55.171875 578.322265625 c 1
EndSplineSet
Refer: 48 46 N 1 0 0 1 65.5254 0 2
Position2: "cpsp-1" dx=0 dy=0 dh=50 dv=100
Substitution2: "smcp-1" question.smcp
Substitution2: "pcap-1" question.pcap
EndChar

StartChar: exclam
Encoding: 33 33 75
Width: 291
VWidth: 1159
Flags: HW
LayerCount: 2
Fore
SplineSet
112.6558 209 m 17
 112.6558 339 110.6558 437 103.6558 533 c 0
 101.061876924 580 85.4983384614 604 86.7953 654 c 1
 180.994438372 664 231.001388372 692 236.81615 661 c 1
 220.81615 625 222.81615 602 216.81615 533 c 0
 203.736125862 408 182.33245 342 182.33245 208 c 9
 112.6558 209 l 17
EndSplineSet
Refer: 48 46 N 1 0 0 1 36.7093 0 2
Substitution2: "pcap-1" exclam.pcap
Substitution2: "smcp-1" exclam.smcp
Position2: "cpsp-1" dx=0 dy=0 dh=50 dv=100
EndChar

StartChar: paragraph
Encoding: 182 182 76
Width: 558
VWidth: 1159
UnlinkRmOvrlpSave: 1
Flags: HW
LayerCount: 2
Fore
SplineSet
325.916015625 673 m 1
 384.700195312 681 l 1
 374.700195312 45 l 1
 317.916015625 57 l 1
 325.916015625 673 l 1
514.700195312 741 m 1
 516.700195312 664.868164062 l 1
 474.700195312 661.42791748 318.125460971 654.838624887 258.700195312 609.82421875 c 0
 231.607820798 589.301851099 235.311523438 557.432245669 235.311523438 289 c 3
 235.311523438 163.792285156 235.068458499 120.236690744 246.700195312 110.131835938 c 0
 267.601693759 92.9893046617 374.417480469 72.6329764716 451.047851562 65.1318359375 c 5
 438.700195312 -10 l 5
 227.348059741 33.9285855587 186.571688425 68.5084573095 128.700195312 131 c 0
 70.7001953125 197 26.0919035529 278.498610671 25.7001953125 343 c 0
 25.6014772944 359.255591946 21.2998046875 370.966885604 21.2998046875 382.532226562 c 1
 21.2998046875 385.723904542 22.4685985992 393.197848545 24.7001953125 399 c 0
 54.7001953125 477 105.842800187 586.795342609 206.700195312 657 c 0
 308.700195312 728 514.700195312 741 514.700195312 741 c 1
EndSplineSet
Position2: "cpsp-1" dx=0 dy=0 dh=50 dv=100
EndChar

StartChar: ampersand
Encoding: 38 38 78
Width: 676
VWidth: 1159
Flags: HW
LayerCount: 2
Fore
SplineSet
209.3116 350.8605 m 1
 143.479865928 322.7645625 104.53715 269.38228125 104.53715 216 c 3
 104.53715 122.289970589 155.261391177 64.279 238.3442 64.279 c 3
 303.012825001 64.279 340.8901625 126.394019 371.3768 166.1069 c 1
 309.721560868 301.650428972 242.781586956 337.047146728 209.3116 350.8605 c 1
197 570.2373 m 1
 177.986805768 570.2373 149.16035 553.191360869 149.16035 525 c 3
 149.16035 478.745448183 191.087595283 458.362086364 218.60235 438.7627 c 1
 251.163327344 460.635084416 267.0652 480.887292208 267.0652 501.1395 c 3
 267.0652 535.010970589 238.125226087 570.2373 197 570.2373 c 1
646.8279 439.0652 m 1
 599.958799397 439.0652 562.650227766 426.676302099 551.94655 397.63495 c 0
 523.161944737 320.270728847 498.375201316 257.469184616 460.7953 184.6558 c 1
 492.507380769 90.4196421428 525.766392307 60.19295 551.29075 60.19295 c 3
 585.176104605 60.19295 608.071614473 103.59500625 620.8931 131.05345 c 1
 672 108 l 1
 640 35.093470354 616 -11.39765 530 -11.39765 c 3
 477 -11.39765 433 34.1539207964 406 91.5489 c 1
 374 65.6962361345 332 -11 199 -11 c 3
 80 -11 17 85 17 172 c 3
 17 278.525383496 77.3272286185 352.67540534 146.15125 387.1395 c 1
 110.614204546 411.283039062 81 452.141335938 81 506 c 3
 81 593 156 626 231 653 c 1
 316 623 351 575 351 498 c 3
 351 482.886254546 316.273042857 432.821972727 283.7627 404.4837 c 1
 332.080175 385.848685245 395.6558 322.651678688 426.1721 256.2138 c 1
 452.122881632 302.219161454 483.595626296 378.555744833 493.0978 421.97915 c 0
 499.9102 453.313633674 454.4942 472.596392857 431.7862 481.0326 c 1
 448.2699 531.39765 l 1
 500.971423636 509.34667069 592.571690909 490.052063793 655.3116 491.43025 c 1
 646.8279 439.0652 l 1
EndSplineSet
Substitution2: "pcap-1" ampersand.pcap
Substitution2: "smcp-1" ampersand.smcp
Position2: "cpsp-1" dx=0 dy=0 dh=50 dv=100
EndChar

StartChar: quotesingle
Encoding: 39 39 79
Width: 200
VWidth: 1159
Flags: HW
LayerCount: 2
Fore
SplineSet
49.1721 699.700178505 m 9
 149.74185 699.700178505 l 17
 148.876604339 630.734178505 128.542494518 537.034178505 126.3116 445.700178505 c 9
 72.60235 445.700178505 l 17
 70.2681950232 536.911178505 50.1673835482 630.890178505 49.1721 699.700178505 c 9
EndSplineSet
Position2: "cpsp-1" dx=0 dy=0 dh=7 dv=14
EndChar

StartChar: bracketleft
Encoding: 91 91 85
Width: 246
VWidth: 1515
Flags: HW
LayerCount: 2
Fore
SplineSet
112.079101562 634.05078125 m 1
 112.079101562 -94.05078125 l 5
 219 -106.581054688 l 5
 219 -177 l 5
 37 -177 l 5
 37 717 l 1
 219 717 l 1
 219 647.581054688 l 1
 112.079101562 634.05078125 l 1
EndSplineSet
Position2: "cpsp-1" dx=0 dy=0 dh=50 dv=100
Position2: "'case' vertical ajustments for all-caps-1" dx=0 dy=90 dh=0 dv=0
EndChar

StartChar: asterisk
Encoding: 42 42 87
Width: 418
VWidth: 1159
Flags: HW
LayerCount: 2
Fore
SplineSet
219 434 m 1
 186.458007812 379.728515625 195.21875 355.607421875 155.166992188 298.321289062 c 1
 127.56640625 293.521484375 86.7666015625 333.12109375 80.7666015625 354.721679688 c 1
 116.360351562 411.98046875 135.599609375 411.98046875 171.193359375 461.676757812 c 1
 108.581054688 481.920898438 87.7099609375 447.216796875 21.966796875 481.920898438 c 1
 7.56640625 509.521484375 36.3671875 559.921875 50.7666015625 570.721679688 c 1
 116.54296875 554.340820312 122.908203125 536.140625 181.2578125 517.030273438 c 1
 173.010742188 580.461914062 158.014648438 595.513671875 152.766601562 664.321289062 c 1
 170.766601562 683.524414062 228.3671875 677.5234375 247.567382812 663.12109375 c 1
 248.036132812 595.75 241.002929688 584.169921875 239.127929688 522.0625 c 1
 296.866210938 550.469726562 304.4921875 570.354492188 368.766601562 595.920898438 c 1
 387.966796875 587.520507812 407.166992188 538.321289062 396.3671875 507.12109375 c 1
 335.647460938 475.288085938 319.456054688 491.962890625 261.772460938 469.224609375 c 1
 304.66015625 422.509765625 327.079101562 421.397460938 369.966796875 369.12109375 c 1
 367.56640625 345.12109375 320.766601562 316.321289062 293.166992188 316.321289062 c 1
 247.971679688 367.315429688 256.083007812 385.948242188 219 434 c 1
EndSplineSet
EndChar

StartChar: Acute
Encoding: 58018 58018 90
Width: 222
VWidth: 1159
Flags: HW
AnchorPoint: "Top" 64 699 mark 0
LayerCount: 2
Fore
SplineSet
24.1630859375 788.33984375 m 1
 58.7080078125 822.586914062 128.305664062 871.32421875 181.919921875 894.923828125 c 1
 181.919921875 894.923828125 211.140625 851.69140625 229.780273438 807.189453125 c 1
 172.706054688 797.33203125 108.177734375 773.428710938 50.6806640625 740.551757812 c 1
 24.1630859375 788.33984375 l 1
EndSplineSet
EndChar

StartChar: acutecomb
Encoding: 769 769 92
Width: 0
VWidth: 1159
Flags: HW
HStem: 569.951 193.429
VStem: -232.611 230.611
AnchorPoint: "Top" -174 537 mark 0
AnchorPoint: "TopMark" -180 537 mark 0
AnchorPoint: "TopMark" -185 768 basemark 0
LayerCount: 2
Fore
SplineSet
-232.611328125 613.625 m 1
 -191.348220325 657.84751608 -109.856469681 725.712153957 -48.2109375 763.379882812 c 1
 -48.2109375 763.379882812 -19.1595663114 725.132086187 -2 683 c 1
 -66.3864957766 658.897178037 -140.216317355 618.277768662 -206.94140625 569.951171875 c 1
 -232.611328125 613.625 l 1
EndSplineSet
EndChar

StartChar: uni0302
Encoding: 770 770 93
Width: 0
VWidth: 1159
Flags: HW
HStem: 518.6 167.801
VStem: -353.25 312.5
AnchorPoint: "TopMark" -179 768 basemark 0
AnchorPoint: "TopMark" -180 537 mark 0
AnchorPoint: "Top" -174 537 mark 0
LayerCount: 2
Fore
SplineSet
-30.2001953125 612.200195312 m 1
 -73 576 l 1
 -174.950195312 649.981445312 l 1
 -275.900390625 576 l 1
 -318.700195312 612.200195312 l 1
 -199.900390625 731.80078125 l 1
 -150 731.80078125 l 1
 -30.2001953125 612.200195312 l 1
EndSplineSet
EndChar

StartChar: gravecomb
Encoding: 768 768 94
Width: 0
VWidth: 1159
Flags: HW
HStem: 514.951 193.429
VStem: -403.611 230.611
AnchorPoint: "TopMark" -185 768 basemark 0
AnchorPoint: "TopMark" -180 537 mark 0
AnchorPoint: "Top" -174 537 mark 0
LayerCount: 2
Fore
SplineSet
-116 613.625 m 1
 -141.669921875 569.951171875 l 1
 -208.39453125 618.27734375 -282.224609375 658.897460938 -346.611328125 683 c 1
 -329.452148438 725.131835938 -300.400390625 763.379882812 -300.400390625 763.379882812 c 1
 -238.754882812 725.711914062 -157.262695312 657.84765625 -116 613.625 c 1
EndSplineSet
EndChar

StartChar: Grave
Encoding: 58019 58019 96
Width: 222
VWidth: 1159
Flags: HW
AnchorPoint: "Top" 64 699 mark 0
LayerCount: 2
Fore
SplineSet
102.948242188 786.120117188 m 1
 76.4296875 738.331054688 l 1
 18.9326171875 771.208007812 -45.5947265625 795.111328125 -102.668945312 804.96875 c 1
 -84.0302734375 849.469726562 -54.80859375 892.703125 -54.80859375 892.703125 c 1
 -1.1943359375 869.102539062 68.4033203125 820.3671875 102.948242188 786.120117188 c 1
EndSplineSet
EndChar

StartChar: uni030A
Encoding: 778 778 98
Width: 0
VWidth: 1159
Flags: HW
HStem: 483.394 57.6064<-240.831 -153.535> 649.258 55.6064<-239.825 -154.14>
VStem: -309.22 57.2266<551.719 637.165> -142.007 54.2266<552.404 637.85>
AnchorPoint: "TopMark" -185 752 basemark 0
AnchorPoint: "TopMark" -180 537 mark 0
AnchorPoint: "Top" -174 537 mark 0
LayerCount: 2
Fore
SplineSet
-176 715.864257812 m 3
 -202.477503141 715.864257812 -226.993164062 694.712805154 -226.993164062 665.870117188 c 3
 -226.993164062 635.711216989 -203.457857572 615.606445312 -176 615.606445312 c 3
 -149.522496859 615.606445312 -125.006835938 636.757897971 -125.006835938 665.600585938 c 3
 -125.006835938 693.748428074 -148.542142428 715.864257812 -176 715.864257812 c 3
-176 767.470703125 m 3
 -121.497070312 767.470703125 -74.7802734375 722.479326021 -74.7802734375 665.220703125 c 3
 -74.7802734375 605.670297476 -123.443603516 562 -176 562 c 3
 -232.118314303 562 -280.219726562 603.3 -280.219726562 665.25 c 3
 -280.219726562 724.222158813 -230.114088792 767.470703125 -176 767.470703125 c 3
EndSplineSet
EndChar

StartChar: uni031B
Encoding: 795 795 99
Width: 0
VWidth: 1159
Flags: W
HStem: 330 18<-84.5 -47.4434>
VStem: 12.8818 62.7432<400.38 466.056>
AnchorPoint: "Horn" -73.5 341.8 mark 0
LayerCount: 2
Fore
SplineSet
12.8818359375 414.884765625 m 7
 12.8818359375 428.595703125 2.005859375 439.401367188 -15.744140625 450.72265625 c 5
 -6.4501953125 476.256835938 12.16015625 492.322265625 32.20703125 492.322265625 c 7
 58.421875 492.322265625 75.625 468.857421875 75.625 444.775390625 c 7
 75.625 399.205078125 -15.2378927954 330.428 -84.5 330 c 1
 -85 348 l 1
 -41.3873810375 349.464 12.8818359375 384.092773438 12.8818359375 414.884765625 c 7
EndSplineSet
Validated: 1
EndChar

StartChar: tildecomb
Encoding: 771 771 100
Width: 0
VWidth: 1159
Flags: HW
HStem: 503.699 86<-197.253 -128.633> 551.037 85.4463<-282.098 -208.924>
VStem: -354 294.106
AnchorPoint: "TopMark" -185 768 basemark 0
AnchorPoint: "TopMark" -180 537 mark 0
AnchorPoint: "Top" -174 537 mark 0
LayerCount: 2
Fore
SplineSet
-317.416015625 601.708984375 m 1x60
 -289.614860112 666.190916225 -247.625625234 715.192382812 -240.600585938 715.192382812 c 3x60
 -200.552923824 715.192382812 -128.795543932 668.408203125 -115.815429688 668.408203125 c 3
 -106.215271394 668.408203125 -85.7889345928 693.53091314 -74.59375 724.178710938 c 1
 -23.3095703125 700.893554688 l 1
 -43.0160134907 641.043630573 -80.722396108 582.408203125 -92.482421875 582.408203125 c 3xa0
 -130.423202617 582.408203125 -204.374879275 629.74609375 -222.263671875 629.74609375 c 3
 -234.089762674 629.74609375 -252.489903949 597.894982291 -265 578 c 1
 -317.416015625 601.708984375 l 1x60
EndSplineSet
EndChar

StartChar: uni0306
Encoding: 774 774 105
Width: 0
VWidth: 1159
Flags: HW
HStem: 436.274 54.719<-267.503 -128.241>
VStem: -330.178 28.08<532.771 549.079> -92.9023 28.081<535.635 549.079>
AnchorPoint: "Top" -174 537 mark 0
AnchorPoint: "TopMark" -180 537 mark 0
AnchorPoint: "TopMark" -179 768 basemark 0
LayerCount: 2
Fore
SplineSet
-327.15234375 685.375 m 1
 -279.072265625 713.135742188 l 1
 -264.143274579 672.900429107 -219.575301308 652.71875 -174.861328125 652.71875 c 3
 -130.240051195 652.71875 -85.4747733721 672.815654398 -69.8759765625 713.135742188 c 1
 -21.794921875 685.375 l 1
 -43.9987530778 612.458 -109.600301999 576 -175 576 c 3
 -240.467693038 576 -305.733900966 612.458 -327.15234375 685.375 c 1
EndSplineSet
EndChar

StartChar: uni0313
Encoding: 787 787 111
Width: 0
VWidth: 1159
Flags: HW
HStem: 437.371 229.704
VStem: -223.695 141.305<576.145 611.439>
AnchorPoint: "Top" -174 537 mark 0
AnchorPoint: "TopMark" -180 537 mark 0
AnchorPoint: "TopMark" -179 768 basemark 0
LayerCount: 2
Fore
SplineSet
-202 569 m 1
 -228 612 l 1
 -205.134558473 624.435512276 -182 641 -186 660 c 0
 -187.051428511 664.994285429 -189.678755803 667.518133704 -192 671 c 0
 -192.767648146 672.151472219 -194 674.600163088 -194 677 c 3
 -194 685.307040928 -190.87155917 690.229992503 -187 695 c 0
 -180.337298529 703.208872594 -169.392010473 709.867688928 -160 714 c 0
 -156.047301404 715.739114348 -150.431683168 718 -144 718 c 3
 -133.572333455 718 -124.010921974 714.271866635 -115 705 c 0
 -108.647191561 698.463222435 -104.808687015 694.244379521 -100 686 c 0
 -95.0932678976 677.587524509 -92 671.341428756 -92 662 c 3
 -92 639.570364627 -132.115008847 591.731507195 -202 569 c 1
EndSplineSet
EndChar

StartChar: uni0315
Encoding: 789 789 113
Width: 0
VWidth: 1159
Flags: HW
HStem: 450.494 206.751
VStem: -59.75 61<571.847 641.311>
AnchorPoint: "TopRight" -110.5 531 mark 0
LayerCount: 2
Fore
SplineSet
-59.75 657.245 m 9
 23.25 639.245117188 l 1
 9.0849609375 577.094726562 -14.2685546875 493.133789062 -77 442.494140625 c 9
 -118 464.494140625 l 1
 -79.029296875 521.860351562 -68.2984 587.855 -59.75 657.245 c 9
EndSplineSet
EndChar

StartChar: Circumflex
Encoding: 58020 58020 159
Width: 281
VWidth: 1159
Flags: HMW
AnchorPoint: "Top" 140 699 mark 0
LayerCount: 2
Fore
SplineSet
289.504882812 790.361328125 m 5
 262.096679688 741.85546875 l 5
 140.5 786.262695312 l 5
 18.9033203125 741.85546875 l 5
 -8.5048828125 790.361328125 l 5
 121.845703125 880.400390625 l 5
 159.154296875 880.400390625 l 5
 289.504882812 790.361328125 l 5
EndSplineSet
EndChar

StartChar: Tilde
Encoding: 58022 58022 161
Width: 329
VWidth: 1159
Flags: HW
HStem: 823.699 86<178.231 254.047> 871.037 85.4463<84.4895 165.336>
VStem: 5.04756 324.946
AnchorPoint: "Top" 165 699 mark 0
LayerCount: 2
Fore
SplineSet
3.4677734375 773.708984375 m 1x60
 34.1845703125 838.190429688 80.576171875 887.192382812 88.337890625 887.192382812 c 3x60
 132.584960938 887.192382812 211.8671875 840.408203125 226.208007812 840.408203125 c 3
 236.815429688 840.408203125 259.3828125 865.53125 271.751953125 896.178710938 c 1
 328.4140625 872.893554688 l 1
 306.641601562 813.043945312 264.981445312 754.408203125 251.98828125 754.408203125 c 3xa0
 210.068359375 754.408203125 128.362304688 801.74609375 108.59765625 801.74609375 c 3
 95.53125 801.74609375 75.2021484375 769.89453125 61.3798828125 750 c 1
 3.4677734375 773.708984375 l 1x60
EndSplineSet
EndChar

StartChar: Breve
Encoding: 58023 58023 162
Width: 321
VWidth: 1159
Flags: HW
AnchorPoint: "Top" 162 699 mark 0
LayerCount: 2
Fore
SplineSet
1.7646484375 836.463867188 m 5
 37.185546875 884.797851562 l 5
 54.7912104024 858.823523682 107.350641429 832.28125 160.081054688 832.28125 c 7
 212.670288783 832.28125 265.42969093 858.750273903 283.814453125 884.797851562 c 5
 319.235351562 836.463867188 l 5
 296.146876196 791.119524493 227.933317297 753.447265625 159.9296875 753.447265625 c 7
 91.8748763968 753.447265625 24.0301523934 791.119524493 1.7646484375 836.463867188 c 5
EndSplineSet
EndChar

StartChar: Ring
Encoding: 58026 58026 165
Width: 281
VWidth: 1159
Flags: HW
HStem: 736.972 38.3723<100.526 176.371> 868.246 38.3722<102.629 177.208>
VStem: 53.0137 39.124<783.978 858.53> 186.862 39.1243<785.059 858.629>
AnchorPoint: "Top" 141 699 mark 0
LayerCount: 2
Fore
SplineSet
140.5 887.891601562 m 3
 113.448746617 887.891601562 88.4013671875 865.849618447 88.4013671875 835.79296875 c 3
 88.4013671875 805.736132812 112.447744641 785.698242188 140.5 785.698242188 c 3
 167.551424731 785.698242188 192.598632812 807.740225303 192.598632812 837.796875 c 3
 192.598632812 865.849481869 168.552433047 887.891601562 140.5 887.891601562 c 3
140.5 948.760742188 m 3
 201.972191512 948.760742188 254.661132812 900.46049706 254.661132812 838.989257812 c 3
 254.661132812 773.125441195 199.775718961 724.828125 140.5 724.828125 c 3
 79.0281537196 724.828125 26.3388671875 768.737109375 26.3388671875 834.600585938 c 3
 26.3388671875 900.461199171 81.2242226537 948.760742188 140.5 948.760742188 c 3
EndSplineSet
EndChar

StartChar: Uni030B
Encoding: 58027 58027 166
Width: 300
VWidth: 1159
Flags: W
HStem: 728.472 183.528
VStem: 20.5 261.258
AnchorPoint: "Top" 87 699 mark 0
LayerCount: 2
Fore
SplineSet
20.5 754.3 m 17
 41.5 808.3 62 861 95 912 c 9
 95 912 128.44 895.56 149.5 882.3 c 1
 107.5 838.3 91.5 814.3 47.5 734.3 c 9
 20.5 754.3 l 17
120.971 755.492 m 17
 156.841 800.993 191.854 845.396 238.322 884.52 c 9
 238.322 884.52 265.494 859.021 281.758 840.184 c 1
 228.729 810.386 206.41 792.112 140.943 728.472 c 9
 120.971 755.492 l 17
EndSplineSet
Validated: 1
EndChar

StartChar: eogonek
Encoding: 281 281 253
Width: 464
VWidth: 1159
UnlinkRmOvrlpSave: 1
Flags: HW
HStem: -326 60.1279<280.116 355.674>
VStem: 193.562 69.21<-249.43 -117.14>
AnchorPoint: "Top" 209 465 basechar 0
LayerCount: 2
Fore
SplineSet
366.630859375 52.54296875 m 1
 276.377929688 -47.1502175719 262.771484375 -94.5674013864 262.771484375 -186 c 3
 262.771484375 -236.143554688 288.107421875 -265.872070312 320.166015625 -265.872070312 c 3
 339.918945312 -265.872070312 363.635742188 -255.18359375 387.97265625 -231.599609375 c 9
 387.97265625 -231.599609375 399.081054688 -241.926757812 401.771484375 -250 c 1
 374.767578125 -302.788085938 329.271484375 -326 287.771484375 -326 c 3
 237.798828125 -326 193.561523438 -284.413085938 193.561523438 -214.834960938 c 3
 193.561523438 -150.617750838 236.666992188 -26.3930451996 359.931640625 73.76171875 c 1
 366.630859375 52.54296875 l 1
EndSplineSet
Refer: 4 101 N 1 0 0 1 0 0 3
Substitution2: "smcp-1" eogonek.smcp
Substitution2: "case-1" Eogonek
Substitution2: "pcap-1" eogonek.pcap
EndChar

StartChar: uni0328
Encoding: 808 808 254
Width: 0
VWidth: 1159
Flags: W
HStem: -300 60.1279<-182.983 -105.326>
VStem: -267.438 69.209<-226.6 -119.119>
AnchorPoint: "Ogonek" -104.35 21.6582 mark 0
LayerCount: 2
Fore
SplineSet
-94.3691 15.543 m 1
 -184.622 -62 -198.229 -98.8815 -198.229 -170 c 3
 -198.229 -213.865 -172.893 -239.872 -140.834 -239.872 c 3
 -121.081 -239.872 -97.3641 -229.184 -73.0273 -205.6 c 9
 -73.0273 -205.6 -61.9188 -215.927 -59.2285 -224 c 1
 -86.2326 -276.788 -131.729 -300 -173.229 -300 c 3
 -223.201 -300 -267.438 -262.154 -267.438 -198.835 c 3
 -267.438 -146.411 -224.333 -45 -101.068 36.7617 c 1
 -94.3691 15.543 l 1
EndSplineSet
Validated: 1
EndChar

StartChar: Aogonek
Encoding: 260 260 255
Width: 730
VWidth: 0
HStem: -346.802 72.7783<509.644 579.002> 245 42<247 437.657> 692 20G<358 405.73>
VStem: 360 43<632.023 712> 417.273 71.958<-253.556 -112.611>
LayerCount: 2
Fore
SplineSet
247 287 m 1
 300 282 410 283 459 283 c 1
 420 383 394 443 352 545 c 9
 311 444 284 378 247 287 c 1
515.106 9.30371 m 0
 528.580338516 25.1898171388 540.25 48 535 76 c 0
 512 139 498 173 475 236 c 1
 415 246 318 252 231 245 c 9
 204.87 183.38 185 147 164 87 c 0
 152 51 176 29 247 34 c 9
 245 -10 l 1
 190 1 82 4 27 -5 c 9
 27 -5 23 20 22 34 c 1
 71 48 95 57 106 80 c 0
 198 289 276 470 344 640 c 0
 359 678 356 679 360 712 c 9
 403 712 l 9
 408.46 684.7 403 681 417 642 c 0
 489.318 423.284 532.922 291.261 632 78.1982 c 0
 640 60.9938 671.846 35.0799 702 32 c 9
 702 32 701 8 700 -4 c 1
 648.463 32.9972 584.223 32.6444 544 -14 c 0
 498.216367131 -67.0927599884 489.231445312 -140.721568606 489.231445312 -196.747070312 c 3
 489.231445312 -237.611373161 518.631004142 -274.0234375 550.14453125 -274.0234375 c 3
 569.969724697 -274.0234375 593.77495698 -267.592408263 618.200195312 -253.40234375 c 9
 618.200195312 -253.40234375 629.310038072 -263.730014861 632 -271.801757812 c 1
 605.823 -315.298757812 555.232 -346.801757812 515 -346.801757812 c 3
 465.302222486 -346.801757812 417.2734375 -298.236689929 417.2734375 -235.232421875 c 3
 417.2734375 -105.15651352 478.973157111 -33.2965417808 515.106 9.30371 c 0
EndSplineSet
Validated: 33
Position2: "cpsp-1" dx=0 dy=0 dh=50 dv=100
Substitution2: "c2pc-1" aogonek.pcap
Substitution2: "c2sc-1" aogonek.smcp
EndChar

StartChar: Uni0328
Encoding: 58029 58029 257
Width: 0
VWidth: 1159
Flags: W
HStem: -338.23 73.7197<-184.546 -117.498>
VStem: -275.584 71.875<-244.983 -118.496>
AnchorPoint: "Ogonek" -105.35 23.6582 mark 0
LayerCount: 2
Fore
SplineSet
-92.1719 12.3926 m 1
 -164.514989866 -37.5177021671 -203.708984375 -122.700132364 -203.708984375 -187.03125 c 3
 -203.708984375 -228.469229743 -175.522824414 -264.510742188 -144.514648438 -264.510742188 c 3
 -123.539764965 -264.510742188 -98.3555048772 -255.777742187 -72.5146484375 -236.510742188 c 9
 -72.5146484375 -236.510742188 -61.4052257941 -246.838961447 -58.7158203125 -254.911132812 c 1
 -85.7705506897 -302.647325281 -138.205109564 -338.23046875 -179.78515625 -338.23046875 c 3
 -228.965068015 -338.23046875 -275.583984375 -289.420252063 -275.583984375 -227.85546875 c 3
 -275.583984375 -144.145292738 -241.514987387 -38.8975355005 -98.8711 45.1113 c 1
 -92.1719 12.3926 l 1
EndSplineSet
Validated: 1
EndChar

StartChar: Eogonek
Encoding: 280 280 258
Width: 672
VWidth: 0
UnlinkRmOvrlpSave: 1
Flags: H
HStem: -347.889 73.7197<484.634 553.852> -9 35<56 102.007> 333 36<205 473.393> 657 31<48 108.489>
VStem: 124 81<87.2765 333 369 603.172> 395.766 71.875<-257.592 -149.807> 497 36<249 305.348> 538 30<537 619.889>
AnchorPoint: "Top" 330 699 basechar 0
LayerCount: 2
Fore
SplineSet
48 688 m 1
 120.521055818 684.355725838 206.588460485 682.969176485 287.955928091 682.969176485 c 0
 429.86328558 682.969176485 557.47511282 687.186564497 574 691 c 1
 585.145145837 681.247997393 589.133414459 675.741599913 589.133414459 667.087387512 c 0
 589.133414459 650.893580795 575.168856119 623.677987617 568 537 c 1
 538 534 l 1
 527 570 546 617 510 628 c 0
 468.488636507 639.860389569 402.664140046 646.076658986 339.417525988 646.076658986 c 0
 306.677490841 646.076658986 274.628246937 644.410894684 247 641 c 0
 229 639 216 625 215 607 c 0
 211 525.313559322 206 444.635593221 205 369 c 1
 269 371 429 371 443 372 c 0
 480 377 485 403 501 447 c 1
 535 440 l 1
 526.800908316 409.132831309 523.486685813 378.498275435 523.486685813 347.871954284 c 0
 523.486685813 314.997648821 527.305294619 282.132831309 533 249 c 1
 497 240 l 1
 477 311 484 324 443 328 c 0
 399 333 298 332 205 333 c 1
 204 235.613545816 208 147.262948207 220 81 c 0
 224 64 233 50 250 49 c 0
 295.831179232 44.5647245905 336.319436302 40.3723092792 374.696225476 40.3723092792 c 0
 414.193090286 40.3723092792 451.453436792 44.8130178498 490 58 c 0
 550.414440108 78.6680979317 560.916666667 101 601 177 c 1
 629 170 l 1
 601.909278218 96.0751847998 563.005363884 18.4683882549 538.489257812 -19.9775390625 c 0
 508.313510966 -67.2988618945 467.640625 -148.391015834 467.640625 -206.689453125 c 0
 467.640625 -242.779181534 495.826784961 -274.168945312 526.834960938 -274.168945312 c 0
 547.809960937 -274.168945312 572.993960937 -265.436945313 598.834960938 -246.168945312 c 1
 598.834960938 -246.168945312 609.943822568 -256.497164572 612.633789062 -264.569335938 c 1
 585.578932221 -312.305955472 533.145209671 -347.888671875 491.565429688 -347.888671875 c 0
 442.385016588 -347.888671875 395.765625 -303.499671875 395.765625 -247.513671875 c 0
 395.765625 -172.157942368 443.587456716 -80.3722695124 506.53125 0.1865234375 c 1
 426.116814261 0.92057786207 344.873636713 3.07020290016 269.953021447 3.07020290016 c 0
 188.876938008 3.07020290016 115.205017511 0.552841530585 58 -9 c 1
 48 26 l 1
 101 36 124 49 124 77 c 1
 125.797958971 111.804426856 126.787753827 207.154066657 126.787753827 309.259280672 c 0
 126.787753827 434.312117879 125.303061543 569.498316407 122 616 c 0
 121 643 116 643 43 657 c 1
 48 688 l 1
EndSplineSet
Position2: "cpsp-1" dx=0 dy=0 dh=50 dv=100
Substitution2: "c2pc-1" eogonek.pcap
Substitution2: "c2sc-1" eogonek.smcp
EndChar

StartChar: Iogonek
Encoding: 302 302 259
Width: 453
VWidth: 0
UnlinkRmOvrlpSave: 1
Flags: HW
HStem: -346.889 73.7197<164.804 231.852> -10 40<16.125 119.789> 652 43<21.3488 120.801>
VStem: 73.7656 71.875<-253.641 -109.865> 131 90<41.0295 293.416> 137.915 75.6029<80.3904 534.592>
LayerCount: 2
Fore
SplineSet
207.177734375 3.734375 m 1xf0
 167.264648438 -46.17578125 145.640625 -131.358398438 145.640625 -195.689453125 c 3
 145.640625 -237.126953125 173.827148438 -273.168945312 204.834960938 -273.168945312 c 3
 225.810546875 -273.168945312 250.994140625 -264.435546875 276.834960938 -245.168945312 c 9
 276.834960938 -245.168945312 287.944335938 -255.497070312 290.633789062 -263.569335938 c 1
 263.579101562 -311.305664062 211.14453125 -346.888671875 169.564453125 -346.888671875 c 3
 120.384765625 -346.888671875 73.765625 -298.078125 73.765625 -236.513671875 c 3
 73.765625 -152.803710938 98.1953125 -47.5556640625 200.478515625 36.453125 c 1
 207.177734375 3.734375 l 1xf0
EndSplineSet
Refer: 34 73 N 1 0 0 1 0 0 3
Position2: "cpsp-1" dx=0 dy=0 dh=50 dv=100
Substitution2: "c2pc-1" iogonek.pcap
Substitution2: "c2sc-1" iogonek.smcp
EndChar

StartChar: iogonek
Encoding: 303 303 260
Width: 287
VWidth: 0
UnlinkRmOvrlpSave: 1
Flags: HW
HStem: -326 60.1279<129.017 206.674> -7 33<41 95 192 262> 572 102<106.589 191.411>
VStem: 44.5625 69.209<-252.6 -120.517> 97 104<581.438 664.599> 105 71<57 330>
LayerCount: 2
Fore
SplineSet
176 12.9248046875 m 5xe4
 121.924804688 -74.3896484375 113.771484375 -115.919921875 113.771484375 -196 c 7
 113.771484375 -239.865234375 139.106445312 -265.872070312 171.166015625 -265.872070312 c 7
 190.918945312 -265.872070312 214.635742188 -255.18359375 238.97265625 -231.599609375 c 5
 238.97265625 -231.599609375 250.081054688 -241.926757812 252.771484375 -250 c 5
 225.768554688 -302.788085938 180.271484375 -326 138.771484375 -326 c 7
 88.798828125 -326 44.5625 -288.154296875 44.5625 -224.834960938 c 7xf0
 44.5625 -167.208984375 74.80859375 -55.732421875 161.30078125 34.1435546875 c 5
 176 12.9248046875 l 5xe4
EndSplineSet
Refer: 8 105 N 1 0 0 1 0 0 3
Substitution2: "smcp-1" iogonek.smcp
Substitution2: "case-1" Iogonek
Substitution2: "pcap-1" iogonek.pcap
EndChar

StartChar: uogonek
Encoding: 371 371 262
Width: 539
VWidth: 0
UnlinkRmOvrlpSave: 1
Flags: HW
HStem: -324.658 60.1279<313.017 390.674> -18.7812 20G<319.052 378.615> -11 55<171 272> 338 31<291 350>
VStem: 69 76<71 327> 228.562 69.21<-251.259 -142.76> 358 65<36 52 75 331>
LayerCount: 2
Fore
SplineSet
379 -20 m 1xde
 308.413085938 -92.994140625 297.771484375 -127.711914062 297.771484375 -194.658203125 c 3
 297.771484375 -238.5234375 323.107421875 -264.530273438 355.166015625 -264.530273438 c 3
 374.918945312 -264.530273438 398.635742188 -253.841796875 422.97265625 -230.2578125 c 1
 422.97265625 -230.2578125 434.081054688 -240.584960938 436.771484375 -248.658203125 c 1
 409.767578125 -301.446289062 364.271484375 -324.658203125 322.771484375 -324.658203125 c 3
 272.798828125 -324.658203125 228.561523438 -286.8125 228.561523438 -223.493164062 c 3
 228.561523438 -173.491210938 265.803710938 -76.765625 372.30078125 1.21875 c 1
 379 -20 l 1xde
EndSplineSet
Refer: 20 117 N 1 0 0 1 0 0 3
Substitution2: "smcp-1" uogonek.smcp
Substitution2: "case-1" Uogonek
Substitution2: "pcap-1" uogonek.pcap
EndChar

StartChar: uni0327
Encoding: 807 807 268
Width: 0
VWidth: 1159
UnlinkRmOvrlpSave: 1
Flags: HW
VStem: -195 62.4277<-164.273 -94.0566>
AnchorPoint: "Bottom" -193 -15 mark 0
LayerCount: 2
Fore
SplineSet
-283 -172 m 1
 -278.965820312 -121.80859375 l 1
 -243.574404884 -125.244627242 -209.825195312 -125.382709688 -209.825195312 -103.997070312 c 3
 -209.825195312 -92.6079730485 -216.150321394 -86.1115385651 -221.4609375 -82.1259765625 c 1
 -252.948242188 -59.4599609375 l 1
 -250.535248801 -57.698392598 -248.042839695 -55.045495327 -245.346679688 -52.0732421875 c 0
 -229.045341594 -34.1026086957 -221.092316902 -26.9686956522 -201 -2 c 1
 -141 6 l 1
 -141 6 -165.584014487 -42.1562847527 -168.897460938 -50.92578125 c 1
 -151.354332095 -59.8466796875 -133.397460938 -72.059792339 -133.397460938 -103.42578125 c 3
 -133.397460938 -156.707176565 -216.974575919 -185.889577706 -283 -172 c 1
EndSplineSet
EndChar

StartChar: cedillafloating
Encoding: 58084 58084 269
Width: 0
VWidth: 1159
Flags: W
VStem: -195 63.126<-165.104 -94.3473>
AnchorPoint: "Bottom" -193 -15 mark 0
LayerCount: 2
Fore
SplineSet
-289.175 -200.003 m 1
 -285.141 -177.812 l 1
 -239 -188 -195 -161.724 -195 -125 c 3
 -195 -109.445 -206 -85 -236.636 -95.1289 c 1
 -241.123 -72.4629 l 1
 -199.113 -38.5203 -131.874 -44.0724 -131.874 -109.349 c 3
 -131.874 -179.786 -219.751 -230.116 -289.175 -200.003 c 1
EndSplineSet
Validated: 33
EndChar

StartChar: Uni0327
Encoding: 58030 58030 281
Width: 0
VWidth: 1159
Flags: W
VStem: -194.928 70.897<-182.621 -103.12>
AnchorPoint: "Bottom" -191 -15 mark 0
LayerCount: 2
Fore
SplineSet
-302.112 -226.844 m 1
 -297.393 -200.881 l 1
 -243.408 -212.801 -194.928 -182.057 -194.928 -139.091 c 0
 -194.928 -120.892 -206.823 -92.29 -240.667 -104.142 c 1
 -245.892 -77.6221 l 1
 -241.051 -73.5835 -235.91 -70.2296 -230.581 -67.5294 c 0
 -201.19 -48.4085 -207.089 -43.3329 -187.571 4.44336 c 1
 -142.571 12.4434 l 1
 -142.571 12.4434 -152.525 -33.2849 -173.391 -61.6674 c 1
 -145.899 -69.2159 -124.031 -91.6921 -124.031 -124.709 c 0
 -124.031 -204.066 -223.518 -260.771 -302.112 -226.844 c 1
EndSplineSet
Validated: 33
EndChar

StartChar: Cedillafloating
Encoding: 58085 58085 282
Width: 0
VWidth: 1159
Flags: W
VStem: -194.928 70.8965<-182.621 -103.74>
AnchorPoint: "Bottom" -193 -15 mark 0
LayerCount: 2
Fore
SplineSet
-302.112 -226.844 m 1
 -297.393 -200.881 l 1
 -243.408 -212.801 -194.928 -182.057 -194.928 -139.091 c 3
 -194.928 -120.892 -206.798 -92.29 -240.642 -104.142 c 1
 -245.892 -77.6221 l 1
 -199.032 -34.292 -124.031 -58.5156 -124.031 -124.709 c 3
 -124.031 -204.066 -223.518 -260.771 -302.112 -226.844 c 1
EndSplineSet
Validated: 33
EndChar

StartChar: Uni030F
Encoding: 58034 58034 295
Width: 300
VWidth: 1159
Flags: W
HStem: 727.907 184.093
VStem: -108.738 262.238
AnchorPoint: "Top" 87 699 mark 0
LayerCount: 2
Fore
SplineSet
153.5 754.3 m 9
 126.5 734.3 l 17
 82.5 814.3 66.5 838.3 24.5 882.3 c 1
 45.5596 895.56 79 912 79 912 c 17
 112 861 132.5 808.3 153.5 754.3 c 9
52.0479 754.928 m 9
 32.0752 727.907 l 17
 -33.3916 791.548 -55.71 809.821 -108.738 839.619 c 1
 -92.4766 858.457 -65.3037 883.955 -65.3037 883.955 c 17
 -18.835 844.832 16.1777 800.429 52.0479 754.928 c 9
EndSplineSet
Validated: 1
EndChar

StartChar: uni01EA
Encoding: 490 490 308
Width: 819
VWidth: 0
UnlinkRmOvrlpSave: 1
Flags: HW
HStem: -346.889 73.7197<406.804 473.852> -25.279 65.0046<341.78 518.833> 636.754 68.3321<292.592 476.005>
VStem: 45.8674 113.828<236.94 453.447> 315.766 71.875<-253.641 -127.154> 658.721 109.195<218.027 438.238>
AnchorPoint: "Middle" 417.697 364.853 basechar 0
AnchorPoint: "Top" 420 699 basechar 0
LayerCount: 2
Fore
SplineSet
499.177734375 3.734375 m 1
 426.834960938 -46.17578125 387.640625 -131.358398438 387.640625 -195.689453125 c 3
 387.640625 -237.126953125 415.827148438 -273.168945312 446.834960938 -273.168945312 c 3
 467.810546875 -273.168945312 492.994140625 -264.435546875 518.834960938 -245.168945312 c 9
 518.834960938 -245.168945312 529.944335938 -255.497070312 532.633789062 -263.569335938 c 1
 505.579101562 -311.305664062 453.14453125 -346.888671875 411.564453125 -346.888671875 c 3
 362.384765625 -346.888671875 315.765625 -298.078125 315.765625 -236.513671875 c 3
 315.765625 -152.803710938 349.834960938 -47.5556640625 492.478515625 36.453125 c 1
 499.177734375 3.734375 l 1
EndSplineSet
Refer: 40 79 N 1 0 0 1 0 0 3
Position2: "cpsp-1" dx=0 dy=0 dh=50 dv=100
EndChar

StartChar: uni01EB
Encoding: 491 491 309
Width: 550
VWidth: 0
UnlinkRmOvrlpSave: 1
Flags: HW
HStem: -326 60.1279<272.366 350.024> -27 74<228.683 364.173> 443 77<186.028 324.893>
VStem: 20 100<175.411 347.705> 187.912 69.209<-252.6 -139.048> 426 104<146.108 331.039>
AnchorPoint: "Top" 251 465 basechar 0
AnchorPoint: "Middle" 255 206 basechar 0
LayerCount: 2
Fore
SplineSet
360.98046875 13.54296875 m 1
 270.727539062 -74.0302734375 257.12109375 -115.682617188 257.12109375 -196 c 3
 257.12109375 -239.865234375 282.45703125 -265.872070312 314.515625 -265.872070312 c 3
 334.268554688 -265.872070312 357.986328125 -255.18359375 382.322265625 -231.599609375 c 9
 382.322265625 -231.599609375 393.431640625 -241.926757812 396.12109375 -250 c 1
 369.1171875 -302.788085938 323.62109375 -326 282.12109375 -326 c 3
 232.149414062 -326 187.912109375 -288.154296875 187.912109375 -224.834960938 c 3
 187.912109375 -172.674804688 223.05859375 -76.5009765625 320.63671875 8 c 9
 360.98046875 13.54296875 l 1
EndSplineSet
Refer: 14 111 N 1 0 0 1 0 0 3
Substitution2: "case-1" uni01EA
EndChar

StartChar: thorn
Encoding: 254 254 317
Width: 515
VWidth: 1159
Flags: W
HStem: -348 32<8.34375 55.6963> -342 34<151.753 229> -10 46<184.803 329.513> 369 43<198.188 323.819> 654 29<16 45.5305>
VStem: 67 82<-302.037 -18.4171> 80 65<-197.411 7 69.4004 345.78 368 599.495> 406 69<130.435 275.055>
LayerCount: 2
Fore
SplineSet
145 332 m 9x3b
 144 241 143 189 143 98 c 3
 143 92 147 85 154 79 c 0
 185 52 227 36 268 36 c 3
 345 36 406 96 406 180 c 3
 406 270 352 369 251 369 c 3
 207 369 155 342 145 332 c 9x3b
76 31 m 24
 79.1289 217.79 80 367 80 510 c 3
 80 570 80 607 76 627 c 0
 71 654 64 656 46 656 c 3
 36 656 25 654 16 654 c 1
 11 683 l 1
 48 690 104 718 154 759 c 1
 175 743 l 1
 165 717 157 687 156 667 c 0
 151 599 145 484 145 368 c 1xbb
 178 382 234 412 294 412 c 3
 399 412 475 315 475 223 c 3
 475 94 363.004 -10 225 -10 c 3
 198 -10 170 -2 144 7 c 1
 144 -75 144 -247 149 -284 c 0
 151 -299 170 -303 181 -304 c 0
 197 -305 216 -307 230 -308 c 1
 229 -342 l 1x7d
 190 -341 159 -339 117 -339 c 3
 87 -339 39 -344 9 -348 c 1
 6 -316 l 1
 17 -315 25 -313 36 -311 c 0
 59 -305 65 -294 67 -266 c 0xbd
 72 -214 74.0589 -84.8672 76 31 c 24
EndSplineSet
Validated: 1
Substitution2: "pcap-1" thorn.pcap
Substitution2: "case-1" Thorn
Substitution2: "smcp-1" thorn.smcp
EndChar

StartChar: Thorn
Encoding: 222 222 318
Width: 594
VWidth: 1159
Flags: W
HStem: -9 35<33 79.7574> 178 45<189.142 391.092> 519 42<188.8 373.894> 661 31<15.871 81.5947>
VStem: 103 86.1416<54.7783 182.945 226.958 514.181 554.895 640.551> 465 87<299.251 431.707>
LayerCount: 2
Fore
SplineSet
300 652.244140625 m 1
 269.541015625 652.76953125 239.069335938 648.46484375 211 641 c 0
 193.498046875 636.344726562 190 622 189 604 c 0
 188.240234375 587.23828125 187.66015625 570.91015625 187.219726562 554.89453125 c 1
 223.961914062 557.525390625 259.918945312 561 309 561 c 3
 442 561 552 478 552 375 c 3
 552 258.262695312 417.193359375 178 292 178 c 3
 251.719726562 178 228.8125 181.861328125 189.141601562 182.9453125 c 1
 190.319335938 145.3203125 192.446289062 106.4140625 198 75 c 0
 201.80078125 58.8486328125 209.211914062 38.1826171875 306 36.1611328125 c 1
 302 -10.6103515625 l 1
 253.839897611 0.765337346976 217.431629665 6.17477902914 177.51514646 6.17477902914 c 3
 138.247715333 6.17477902914 95.5852303172 0.939824883774 35 -9 c 1
 25 26 l 1
 78 36 103 49 103 77 c 1
 104.6 108.20234375 105.4 187.70734375 105.4 277.3266875 c 3
 105.4 411.755703125 103.6 568.941992187 100 620 c 0
 99 647 85 647 12 661 c 1
 17 692 l 1
 64.3137479468 686.877828443 116.634803726 684.064503692 169.426581172 684.064503692 c 3
 212.805530712 684.064503692 256.502306442 685.964030206 298 690.04296875 c 1
 300 652.244140625 l 1
189.073242188 226.958007812 m 1
 228.5625 225.396484375 249.3671875 223 290 223 c 3
 436 223 465 311 465 364 c 3
 465 424 404 519 288 519 c 3
 266.518554688 519 216.749023438 516.599609375 187.26171875 510.466796875 c 1
 185.9765625 417.948242188 187.340820312 313.534179688 189.073242188 226.958007812 c 1
EndSplineSet
Validated: 33
Position2: "cpsp-1" dx=0 dy=0 dh=50 dv=100
Substitution2: "c2pc-1" thorn.pcap
Substitution2: "c2sc-1" thorn.smcp
EndChar

StartChar: AE
Encoding: 198 198 319
Width: 1067
VWidth: 1159
Flags: HW
HStem: -9 35<449 500.854> -5 39<22.5469 80.8864> 3.06988 37.3024<636.857 887.73> 247 42<296.875 529.631> 334 36<608 868.393> 661 31<394.871 460.439>
VStem: 525 93<373.564 639.016> 529.631 78.3691<90.5 243.369 285.991 334 370 605.156> 892 36<248.75 306.348 394.846 442.094> 933 30<539 620.59> 993 28<152.034 171.75>
AnchorPoint: "Top" 580.585 699 basechar 0
AnchorPoint: "Bottom" 569.957 -15 basechar 0
LayerCount: 2
Fore
SplineSet
396 692 m 1x5de0
 459.272012394 686.532048312 556.561190777 684.572593564 653.192821453 684.572593564 c 0
 803.974281922 684.572593564 953.154767421 689.343407866 969 693 c 1
 980.145145837 683.247997393 984.133414459 677.741599913 984.133414459 669.087387512 c 0
 984.133414459 652.893580795 970.168856119 625.677987617 963 539 c 1
 933 536 l 1
 922 572 941 619 905 630 c 0
 863.488636507 641.860389569 801.137444756 648.076658986 740.260246011 648.076658986 c 0
 708.746754637 648.076658986 677.628246937 646.410894684 650 643 c 0
 632 641 619 627 618 609 c 0x5ee0
 614 526.970338983 609 445.953389831 608 370 c 1
 672 372 824 372 838 373 c 0
 875 378 880 404 896 448 c 1
 930 441 l 1
 921.800908316 410.132831309 918.486685813 379.498275435 918.486685813 348.871954284 c 0
 918.486685813 315.997648821 922.305294619 283.132831309 928 250 c 1
 892 241 l 1
 872 312 879 325 838 329 c 0
 794 334 701 333 608 334 c 1
 607 236.227091633 611 147.525896414 623 81 c 0
 627 64 636 50 653 49 c 0
 698.831179232 44.5647245905 737.376555516 40.3723092792 773.782518979 40.3723092792 c 0
 811.251037011 40.3723092792 846.453436792 44.8130178498 885 58 c 0
 944 78 954 101 993 177 c 1
 1021 170 l 1
 1005 104 994 62 982 0 c 1
 877.083081066 1.45355771389 767.073393242 3.06987648348 667.598205869 3.06987648348 c 0x3de0
 584.624915197 3.06987648348 509.225266505 0.552582785989 451 -9 c 1
 441 26 l 1x9de0
 494 36 527 49 527 77 c 1
 528.380926187 103.914026086 529.284877868 166.790357996 529.630859375 241.087890625 c 1
 467.278003094 249.660049211 355.177385742 253.494120142 272.916992188 247 c 1
 235.500997091 184.6 209.014082931 147.759493671 176.979 87 c 0
 158.157 51 172.988 29 244.937 34 c 1
 239.599 -10 l 1
 207.9511992 -3.42116167511 156.803289353 0.296115413079 108.669988834 0.296115413079 c 0
 76.3230769561 0.296115413079 45.3376267038 -1.38268590218 22.5469 -5 c 1
 22.5469 -5 18.2832 20 19.9365 34 c 1
 71.5889 48 102.294 57 117.652 80 c 0
 245.893953454 285.468704307 363.399910804 480.400810666 462.046875 648.923828125 c 1
 441.407911312 652.540879605 417.029954203 656.00792895 391 661 c 1
 396 692 l 1x5de0
499.977539062 640.265625 m 1
 473.026905511 593.239042544 345.505326951 370.882231497 296.875 289 c 1
 347.043311173 284.20133642 475.957582399 285.850220822 529.76953125 285.991210938 c 1
 529.972511301 417.75573903 528.516654383 568.318110715 525 618 c 0
 524.612992871 628.452823952 515.381822824 635.158711011 499.977539062 640.265625 c 1
EndSplineSet
Position2: "cpsp-1" dx=0 dy=0 dh=50 dv=100
Substitution2: "c2pc-1" ae.pcap
Substitution2: "c2sc-1" ae.smcp
EndChar

StartChar: ae
Encoding: 230 230 322
Width: 578
VWidth: 1159
Flags: HW
HStem: -9 43<55.5195 159.444> -8 50<352.222 471.185> 370 52<125.933 201.869 343.725 424.068>
VStem: 20.5195 62<43.6209 136.135> 33.5195 77<309.417 362.65> 232.563 66.1328<101.524 187.689>
AnchorPoint: "Top" 283.52 465 basechar 0
AnchorPoint: "Bottom" 280.52 -15 basechar 0
LayerCount: 2
Fore
SplineSet
377.0390625 370 m 3x24
 326.278719064 370 302.810560282 297.663 298.51953125 235 c 1
 354.699834148 252.032433645 398.568531543 265.102867156 451 280.043888283 c 0
 454.427925828 281.020719826 457.892452671 282.005547075 461.399414062 283 c 1
 452.000374893 327 416.520227033 370 377.0390625 370 c 3x24
298.696289062 208 m 1
 292.974298242 114.19 340.927221317 42 415.579101562 42 c 0
 459.760156319 42 496.420201755 64 522.740234375 87 c 1
 542.48046875 60 l 1
 503.000416941 27 446.600342928 -8 381.739257812 -8 c 0x6c
 322.890360859 -8 279.251437273 23.5508112068 256.813476562 66.7822265625 c 1
 205.228345517 35.8105157066 137.177172641 -9 81.51953125 -9 c 0
 29.51953125 -9 20.51953125 27 20.51953125 71 c 0xb4
 20.51953125 94 21.51953125 118 27.51953125 130 c 0
 33.51953125 144 37.51953125 146 47.51953125 151 c 0
 109.414158207 181.947854681 161.344264726 193.958798282 234.149414062 215.887695312 c 1
 236.215325925 236.80876966 240.159157669 255.819837221 245.502929688 273.045898438 c 1
 247.775975008 296.66094289 231.973659935 317.780982646 225.51953125 327 c 0
 215.51953125 342 174.51953125 370 146.51953125 370 c 0
 116.51953125 370 110.51953125 360 110.51953125 342 c 0
 110.51953125 333 116.51953125 320 117.51953125 315 c 1
 42.51953125 285 l 1
 38.51953125 295 33.51953125 315 33.51953125 325 c 0xac
 33.51953125 339 40.51953125 354 60.51953125 366 c 1
 115.519831974 403 183.519585598 422 198.51953125 422 c 0
 217.891557867 422 278.109640607 380.30223605 295.180664062 361.27734375 c 1
 331.300874921 400.960098949 373.675122288 417 390.19921875 417 c 0
 444.720283949 417 502.060352519 372 520.859375 323 c 0
 525.561314492 311 539.66013306 303 550 302 c 1
 550 278 l 1
 470.100091905 257 380.696194742 232 298.696289062 208 c 1
232.563476562 187.689453125 m 1
 195.776106783 176.736291403 155.916706123 165.698128427 138.51953125 157 c 0
 107.519808033 142 82.51953125 125.461 82.51953125 92 c 0
 82.51953125 62.1348 100.519851247 34 132.51953125 34 c 0xb4
 156.685686189 34 214.544057141 66.8281059285 248.280273438 85.912109375 c 1
 237.057418482 115.432138083 231.974484175 149.746287693 232.563476562 187.689453125 c 1
EndSplineSet
Substitution2: "pcap-1" ae.pcap
Substitution2: "case-1" AE
Substitution2: "smcp-1" ae.smcp
EndChar

StartChar: germandbls
Encoding: 223 223 327
Width: 579
VWidth: 1159
Flags: W
HStem: -9 40<37 88.8477 173.148 208.525 365.019 460.981> 356 30<40 95.2842> 705 51<244.321 344.378>
VStem: 100 65<36.3341 356 396.595 588.58> 276 67<305.481 354.885> 301 22<88.2815 107.227> 396.559 58.286<487.211 649.856> 477 62<53.3627 166.162>
LayerCount: 2
Fore
SplineSet
312 756 m 0xfb
 411.877 756 454.845 679.623 454.845 588.779 c 0
 454.845 446.016 343 385.103 343 345 c 0xfb
 343 322 360.358 300 417 276 c 1
 495.85 246.667 539 186.985 539 128 c 0
 539 33.1543 458.812 -9 408 -9 c 0
 365.699560976 -9 332.401317073 2 300 16 c 1
 304 30 306 44 306 59 c 0
 306 68.3555 304.571 95.6445 301 105 c 1
 323 112 l 1xf7
 342.104493506 56.8506 380.314818182 31 426 31 c 0
 451.5 31 477 56.9092 477 106 c 0
 477 163.711 429.343 194.988 396 212 c 0
 347 237 276 253 276 324 c 0
 276 346 396.559 432.484 396.559 571.703 c 0
 396.559 648.474 347.395 705 278 705 c 0
 190.602 705 180.067 591.244 171 454 c 1
 167.34 417.394 165 295.325 165 249 c 0
 165 182.096 166.167 119.272 172 54 c 0
 172.739 39 177.174 34 189 33 c 0
 196.534 32 203.466 32 211 31 c 1
 208 -6 l 1
 182.625 -1 146.375 1 121 1 c 0
 97.2266 1 60.7734 -2 37 -6 c 1
 36 30 l 1
 47 31 61 31 72 33 c 1
 89.5947 40 91.8652 53 93 81 c 1
 97.375 120.633 100 172.459 100 222 c 0
 99.4055 259.124 99.1645 308.001 99.0667 356 c 1
 40 356 l 1
 40 386 l 1
 59.9402 389.935 79.0951 397.74 99.0097 401.801 c 1
 99 418.369 99 434.298 99 449 c 0
 99 579.533 140.062 647.199 205 704 c 0
 235.911 731 265.237 756 312 756 c 0xfb
EndSplineSet
Validated: 1
MultipleSubs2: "case-2" S S
Substitution2: "pcap-1" uni1E9E.pcap
Substitution2: "case-1" uni1E9E
Substitution2: "smcp-1" uni1E9E.smcp
EndChar

StartChar: greater
Encoding: 62 62 333
Width: 463
VWidth: 0
Flags: HW
LayerCount: 2
Fore
SplineSet
57.419825 417.14678 m 1
 106 485.116 l 1
 412 276.116 l 1
 82 66.116 l 1
 45.97915 125.93215 l 1
 271.722325 268.39318 l 1
 57.419825 417.14678 l 1
EndSplineSet
Position2: "'case' vertical ajustments for all-caps-1" dx=0 dy=90 dh=0 dv=0
EndChar

StartChar: braceleft
Encoding: 123 123 336
Width: 266
VWidth: 1515
Flags: HW
LayerCount: 2
Fore
SplineSet
248.639648438 710.299804688 m 1
 248.639648438 710.299804688 248.639648438 674.664248046 248.639648438 651.880859375 c 1
 196.323816206 651.221004746 164.708984375 631.710655991 164.708984375 565 c 3
 164.708984375 494.769 193.708984375 478.467 193.708984375 404 c 3
 193.708984375 352.587867239 158.365421875 288.695668248 132.348632812 267.299804688 c 1
 158.365421875 245.903999463 193.708984375 182.011974686 193.708984375 130.599609375 c 3
 193.708984375 56.131809375 164.708984375 39.830489375 164.708984375 -30.400390625 c 3
 164.708984375 -97.1116334597 196.323816206 -116.621393407 248.639648438 -117.28125 c 1
 248.639648438 -175.700195312 l 1
 161.652297918 -178.738724827 77.791015625 -141.066685173 77.791015625 -5.7001953125 c 3
 77.791015625 54.2272067041 100.291015625 86.5951077933 100.291015625 133.599609375 c 3
 100.291015625 173.661758319 72.1738895523 226.648161331 11.5 245.16015625 c 1
 11.5 289.439453125 l 1
 72.1738895523 307.950651137 100.291015625 360.938069872 100.291015625 401 c 3
 100.291015625 448.003934096 77.791015625 480.371888713 77.791015625 540.299804688 c 3
 77.791015625 675.666331003 161.652297918 713.338331003 248.639648438 710.299804688 c 1
EndSplineSet
Position2: "cpsp-1" dx=0 dy=0 dh=50 dv=100
Position2: "'case' vertical ajustments for all-caps-1" dx=0 dy=90 dh=0 dv=0
EndChar

StartChar: asciitilde
Encoding: 126 126 339
Width: 431
VWidth: 0
Flags: HW
LayerCount: 2
Fore
SplineSet
28.2340700037 246.486557305 m 1
 63.5645087977 303.282198633 128.770830411 355.790039062 137.525390625 355.790039062 c 3
 172.755292511 355.790039062 247.415444965 287.080078125 281.662109375 287.080078125 c 3
 295.296560412 287.080078125 332.575435387 318.160529484 352.199614153 352.771699927 c 1
 404.33245 310.140407123 l 1
 374.062312558 257.51585224 318.450603611 193.833984375 303.41796875 193.833984375 c 3
 269.417193706 193.833984375 183.061329467 263.291992188 150.959960938 263.291992188 c 3
 134.598620047 263.291992188 95.7573578876 226.350928264 78.5592214391 203.283021586 c 1
 28.2340700037 246.486557305 l 1
EndSplineSet
Position2: "cpsp-1" dx=0 dy=0 dh=50 dv=100
Position2: "'case' vertical ajustments for all-caps-1" dx=0 dy=90 dh=0 dv=0
EndChar

StartChar: kgreenlandic
Encoding: 312 312 345
Width: 520
VWidth: 1159
Flags: W
HStem: -5 33<33.6364 85.0934 314.455 358.094 457 501.545> 344 29<39.7931 76.7086> 374 27<269 299.949 413.248 459.333> 395 20G<145.5 187>
VStem: 105 64<42.314 204 227 346.994>
LayerCount: 2
Fore
SplineSet
179 211 m 1xe8
 169 204 l 1
 169 140.25 171.723635175 78.5727361869 175 54 c 0
 177 39 185.619315018 37.1522739927 196 33 c 0
 206 29 216 28 230 27 c 1
 225 -7 l 1
 191 -1 172 4 130 4 c 3
 100 4 64 -3 34 -5 c 1
 32 28 l 1
 43 29 54.2438024311 30.030722479 64 33 c 0
 87 40 93.3132247115 48.0575369992 96 76 c 0
 101 128 105 170 105 235 c 3
 105 253.368013699 103.27297056 281.632471039 101 318 c 0
 100 334 94 348 77 348 c 3
 71 348 51 345 41 344 c 1
 36 373 l 1
 88 381.884615385 124 387.538461538 167 415 c 1xd8
 187 399 l 1
 181 385 174.184346429 357.982026431 173 347 c 0
 171 328.454705882 168 273.908529412 167 227 c 1
 201.5858 255.29682906 250.733796152 297.620653704 285 330 c 0
 291.596571429 336.233333333 301 348.518518519 301 355 c 3
 301 373 277 372 267 374 c 1
 269 401 l 1
 295 399 330 399 357 399 c 3
 388.166666667 399 428.777777778 399 459 403 c 1
 461 371 l 1
 400.820895522 364.000222222 364.689666047 341.369176033 333 319 c 2
 231 247 l 1
 297.824402928 186.179636497 367.532605558 122.858938129 446 52 c 1
 462 37 490 29 504 28 c 1
 501 -6 l 1
 467 0 449 4 407 4 c 3
 377 4 345 -3 315 -5 c 1
 312 28 l 1
 348 33 348 37 359 38 c 1
 296.777686305 99.8038948798 205.773756239 186.901875399 179 211 c 1xe8
EndSplineSet
Validated: 1
MultipleSubs2: "case-2" K quoteleft
EndChar

StartChar: OE
Encoding: 338 338 346
Width: 1081
VWidth: 1159
Flags: W
HStem: -7 49<336.528 518.419> 3.06988 37.3024<639.125 901.73> 334 36<614 882.393> 650 44<298.396 500.529>
VStem: 37 93<266.365 448.041> 531 93<373.564 620.777> 534.995 79.0053<90.5 334 370 605.156> 906 36<248.75 306.348 394.846 442.094> 947 30<539 620.59> 1007 28<152.034 171.75>
LayerCount: 2
Fore
SplineSet
385 650 m 3xbdc0
 244 650 130 535.515933333 130 377 c 3
 130 202.722537538 273 42 443 42 c 3
 495.7 42 533 62.631 533 92 c 1
 534.422110588 116.770777747 534.994687396 175.604459673 534.994687396 244.572312164 c 0xbbc0
 534.994687396 369.591771373 533.113224845 527.911675418 531 577 c 0
 528.17 641.262 448.642 650 385 650 c 3xbdc0
424 -7 m 3
 210 -7 37 145.659140762 37 336 c 3
 37 527.127628169 212 694 422 694 c 3
 507.490017004 694 461.789007914 684.96875 696.956054688 684.96875 c 3
 838.863027557 684.96875 966.475003159 689.186881304 983 693 c 1
 994.145145837 683.247997393 998.133414459 677.741599913 998.133414459 669.087387512 c 0
 998.133414459 652.893580795 984.168856119 625.677987617 977 539 c 1
 947 536 l 1
 936 572 955 619 919 630 c 0
 856 648 737 653 656 643 c 0
 638 641 625 627 624 609 c 0xbdc0
 620 526.970338983 615 445.953389831 614 370 c 1
 678 372 838 372 852 373 c 0
 889 378 894 404 910 448 c 1
 944 441 l 1
 935.800908316 410.132831309 932.486685813 379.498275435 932.486685813 348.871954284 c 0
 932.486685813 315.997648821 936.305294619 283.132831309 942 250 c 1
 906 241 l 1
 886 312 893 325 852 329 c 0
 808 334 707 333 614 334 c 1
 613 236.227091633 617 147.525896414 629 81 c 0
 633 64 642 50 659 49 c 0
 704.831179232 44.5647245905 745.319436302 40.3723092792 783.696225476 40.3723092792 c 0
 823.193090286 40.3723092792 860.453436792 44.8130178498 899 58 c 0
 958 78 968 101 1007 177 c 1
 1035 170 l 1
 1019 104 1008 62 996 0 c 1
 886.301 -0.545565 771.508 3.06988 667.928 3.06988 c 3x7bc0
 487.932 3.06988 491.022 -7.00001 424 -7 c 3
EndSplineSet
Validated: 33
Position2: "cpsp-1" dx=0 dy=0 dh=50 dv=100
Substitution2: "c2pc-1" oe.pcap
Substitution2: "c2sc-1" oe.smcp
EndChar

StartChar: uni2605
Encoding: 9733 9733 347
Width: 821
VWidth: 0
Flags: W
LayerCount: 2
Fore
SplineSet
796.5 438.6 m 1
 558 264.9 l 1
 648.9 -15 l 1
 410.4 158.7 l 1
 171.9 -15 l 1
 262.8 265.8 l 1
 24.2998 438.6 l 1
 318.6 437.7 l 1
 410.4 718.5 l 1
 501.3 438.6 l 1
 796.5 438.6 l 1
EndSplineSet
Validated: 1
EndChar

StartChar: uni2606
Encoding: 9734 9734 348
Width: 821
VWidth: 30
Flags: W
LayerCount: 2
Fore
SplineSet
687.677 404.8 m 1
 466.221 390.918 l 1
 410.41 606.049 l 1
 354.579 390.141 l 1
 133.292 404.738 l 1
 320.536 284.324 l 1
 239.062 78.2873 l 1
 410.4 219.894 l 1
 581.711 78.307 l 1
 500.264 283.547 l 1
 687.677 404.8 l 1
796.5 438.6 m 1
 558 264.9 l 1
 648.9 -15 l 1
 410.4 158.7 l 1
 171.9 -15 l 1
 262.8 265.8 l 1
 24.2998 438.6 l 1
 318.6 437.7 l 1
 410.4 718.5 l 1
 501.3 438.6 l 1
 796.5 438.6 l 1
EndSplineSet
Validated: 1
EndChar

StartChar: uni261C
Encoding: 9756 9756 349
Width: 2241
Flags: W
HStem: -39.8809 34.5928<702.366 803.644>
VStem: 65.4062 47.9922<389.495 407.811>
LayerCount: 2
Fore
SplineSet
65.4062 488.98 m 1
 133.471 493.169 171.866 495.579 238.634 514.306 c 1
 246.596 504.546 534.656 534.515 542.911 561.332 c 1
 564.898 551.482 577.512 547.037 605.929 570.229 c 1
 773.769 556.794 986.458 616.839 1106 648 c 1
 1329.25 569.701 1572.25 468.729 1696.18 430.638 c 1
 1739.57 483.052 1793.53 507.924 1848.05 516.793 c 1
 2110.43 547.303 l 1
 2163.02 255.056 2175.68 -29.6611 2148.35 -306.85 c 1
 1892.24 -297.519 l 1
 1875.45 -261.822 1858.65 -226.126 1841.85 -190.43 c 1
 1814.48 -179.761 1789.09 -165.358 1754.94 -149.172 c 1
 1614.8 -241.059 1469.34 -206.779 1327.96 -171.926 c 1
 1302.89 -235.181 1261.64 -288.312 1185.82 -267.69 c 1
 1164.81 -330.418 1107.45 -355.95 1072.25 -326.185 c 0
 999.4 -264.557 891.756 -230.288 835.198 -172.483 c 1
 682.232 -206.512 560.41 -112.538 687.913 48.1104 c 1
 660.334 112.992 745.543 185.467 777.889 271.683 c 1
 695.375 282.243 590.004 307.018 566.297 298.763 c 0
 515.511 281.073 363.284 309.172 334.218 317.119 c 1
 176.398 304.119 59.9014 331.849 65.4062 488.98 c 1
227.493 480.275 m 1
 178.401 472.663 150.689 468.371 101.594 460.757 c 1
 93.8691 413.082 244.447 408.912 227.493 480.275 c 1
1084.38 592.183 m 0
 825.397 554.269 996.286 546.32 636.788 522.399 c 0
 585.692 519 590.137 488.802 569.033 486.987 c 0
 550.55 485.4 544.591 511.314 526.415 507.695 c 0
 434.1 489.321 365.902 488.599 263.3 476.39 c 1
 250.997 394.928 192.292 410.334 113.398 407.811 c 1
 114.412 376.567 264.124 347.652 350.099 377.665 c 1
 407.623 368.682 461.089 357.379 523.575 380.384 c 1
 604.456 372.626 651.254 355.211 727.339 401.371 c 1
 807.605 356.047 974.055 358.16 1064.13 421.6 c 1
 1070.94 421.779 1071.33 413.38 1077.52 410.565 c 1
 1051.33 362.256 1084.46 312.087 1114.36 315.387 c 0
 1130.39 317.154 1149.22 354.088 1163.9 376.21 c 0
 1172.19 388.706 1208.8 379.251 1202.08 365.563 c 0
 1164.56 289.234 1183.03 221.194 1302.92 308.083 c 0
 1330.21 327.857 1391.28 329.565 1389.06 296.334 c 0
 1387.54 273.576 1345.13 302.372 1303.25 264.596 c 0
 1210.07 180.539 1123.04 118.563 1008.84 107.013 c 1
 996.464 98.4824 989.483 93.6709 977.105 85.1396 c 1
 876.257 142.62 705.042 54.8047 694.435 -5.28809 c 1
 757.921 -1.57617 796.29 11.3975 834.737 -28.0469 c 1
 861.688 11.0107 922.306 3.84277 985.483 11.0127 c 1
 998.435 5.33398 1005.74 2.13281 1018.69 -3.54395 c 1
 1031.07 4.98828 1038.05 9.79883 1050.42 18.3291 c 1
 1063.43 11.9795 1070.77 8.39844 1083.78 2.04883 c 1
 1093.29 11.6924 1098.66 17.1289 1108.17 26.7725 c 1
 1169 0.666992 1265.6 3.79102 1298.85 55.3369 c 0
 1307.77 69.1582 1331.21 74.7871 1353.92 73.9941 c 0
 1497.96 68.9609 1697.02 60.1641 1760.13 150.666 c 0
 1796.28 202.51 1766.13 361.801 1721.3 387.54 c 1
 1551.99 437.4 1391.01 515.096 1175.49 584.343 c 0
 1141.59 595.234 1119.66 597.348 1084.38 592.183 c 0
823.456 -100.385 m 1
 821.674 -60.501 792.91 -39.6387 757.787 -39.8809 c 0
 715.507 -40.1699 663.499 -75.8311 669.326 -101.442 c 0
 672.815 -116.764 791.04 -134.5 823.456 -100.385 c 1
1825.2 474.796 m 1
 1793.57 452.477 1775.72 439.887 1744.09 417.571 c 1
 1790.28 409.132 l 1
 1834.35 392.028 1910.85 90.5078 1840.19 -91.3711 c 1
 1844.61 -94.3838 1847.1 -96.085 1851.52 -99.1006 c 1
 1989.62 -17.6104 1923.24 389.222 1825.2 474.796 c 1
EndSplineSet
Validated: 33
EndChar

StartChar: uni261E
Encoding: 9758 9758 350
Width: 2241
Flags: HMW
LayerCount: 2
Fore
SplineSet
2162.17 488.98 m 1
 2167.68 331.849 2051.18 304.119 1893.36 317.119 c 1
 1864.29 309.172 1712.07 281.073 1661.28 298.763 c 0
 1637.57 307.018 1532.2 282.243 1449.69 271.683 c 1
 1482.03 185.467 1567.24 112.992 1539.66 48.1104 c 1
 1667.17 -112.538 1545.34 -206.512 1392.38 -172.483 c 1
 1335.82 -230.288 1228.18 -264.557 1155.32 -326.185 c 0
 1120.13 -355.95 1062.77 -330.418 1041.76 -267.69 c 1
 965.937 -288.312 924.688 -235.181 899.613 -171.926 c 1
 758.235 -206.779 612.779 -241.059 472.641 -149.172 c 1
 438.485 -165.358 413.094 -179.761 385.725 -190.43 c 1
 368.927 -226.126 352.131 -261.822 335.333 -297.519 c 1
 79.2285 -306.85 l 1
 51.9014 -29.6611 64.5586 255.056 117.149 547.303 c 1
 379.524 516.793 l 1
 434.047 507.924 488.01 483.052 531.394 430.638 c 1
 655.332 468.729 898.328 569.701 1121.58 648 c 1
 1241.12 616.839 1453.81 556.794 1621.65 570.229 c 1
 1650.07 547.037 1662.68 551.482 1684.67 561.332 c 1
 1692.92 534.515 1980.98 504.546 1988.94 514.306 c 1
 2055.71 495.579 2094.11 493.169 2162.17 488.98 c 1
2000.08 480.275 m 1
 1983.13 408.912 2133.71 413.082 2125.98 460.757 c 1
 2076.89 468.371 2049.18 472.663 2000.08 480.275 c 1
1143.19 592.183 m 0
 1107.92 597.348 1085.99 595.234 1052.09 584.343 c 0
 836.569 515.096 675.586 437.4 506.281 387.54 c 1
 461.443 361.801 431.295 202.51 467.448 150.666 c 0
 530.558 60.1641 729.622 68.9609 873.661 73.9941 c 0
 896.366 74.7871 919.808 69.1582 928.726 55.3369 c 0
 961.981 3.79102 1058.58 0.666992 1119.41 26.7725 c 1
 1128.92 17.1289 1134.29 11.6924 1143.8 2.04883 c 1
 1156.8 8.39844 1164.14 11.9795 1177.15 18.3291 c 1
 1189.53 9.79883 1196.51 4.98828 1208.89 -3.54395 c 1
 1221.83 2.13281 1229.14 5.33398 1242.09 11.0127 c 1
 1305.27 3.84277 1365.89 11.0107 1392.84 -28.0469 c 1
 1431.29 11.3975 1469.66 -1.57617 1533.14 -5.28809 c 1
 1522.54 54.8047 1351.32 142.62 1250.47 85.1396 c 1
 1238.09 93.6709 1231.11 98.4824 1218.74 107.013 c 1
 1104.54 118.563 1017.5 180.539 924.325 264.596 c 0
 882.445 302.372 840.035 273.576 838.518 296.334 c 0
 836.301 329.565 897.366 327.857 924.653 308.083 c 0
 1044.55 221.194 1063.02 289.234 1025.5 365.563 c 0
 1018.77 379.251 1055.38 388.706 1063.68 376.21 c 0
 1078.36 354.088 1097.19 317.154 1113.21 315.387 c 0
 1143.12 312.087 1176.25 362.256 1150.06 410.565 c 1
 1156.25 413.38 1156.63 421.779 1163.45 421.6 c 1
 1253.52 358.16 1419.97 356.047 1500.24 401.371 c 1
 1576.32 355.211 1623.12 372.626 1704 380.384 c 1
 1766.49 357.379 1819.95 368.682 1877.48 377.665 c 1
 1963.45 347.652 2113.17 376.567 2114.18 407.811 c 1
 2035.29 410.334 1976.58 394.928 1964.28 476.39 c 1
 1861.67 488.599 1793.48 489.321 1701.16 507.695 c 0
 1682.99 511.314 1677.03 485.4 1658.54 486.987 c 0
 1637.44 488.802 1641.88 519 1590.79 522.399 c 0
 1231.29 546.32 1402.18 554.269 1143.19 592.183 c 0
1404.12 -100.385 m 1
 1436.54 -134.5 1554.76 -116.764 1558.25 -101.442 c 0
 1564.08 -75.8311 1512.07 -40.1699 1469.79 -39.8809 c 0
 1434.67 -39.6387 1405.9 -60.501 1404.12 -100.385 c 1
402.373 474.796 m 1
 304.342 389.222 237.955 -17.6104 376.058 -99.1006 c 1
 380.473 -96.085 382.967 -94.3838 387.383 -91.3711 c 1
 316.725 90.5078 393.227 392.028 437.294 409.132 c 1
 483.483 417.571 l 1
 451.853 439.887 434.009 452.477 402.373 474.796 c 1
EndSplineSet
Validated: 33
EndChar

StartChar: uni211F
Encoding: 8479 8479 429
Width: 831
UnlinkRmOvrlpSave: 1
Flags: HW
HStem: -10 44<264 272> 323 44<178 306.579>
VStem: 88 90<71.4111 283.488 429.868 640.189> 456 87<441.267 575.707>
LayerCount: 2
Fore
SplineSet
485 -72 m 5
 591 95.0902527076 741 461.097472924 737 479 c 5
 626 519 l 5
 617.75 542.192771084 663.209090147 573.033501641 692 596 c 5
 739.19 579.23 765.81 569.77 813 553 c 5
 773 475 572.146067416 -19.3583460949 537 -97 c 5
 485 -72 l 5
EndSplineSet
Refer: 43 82 N 1 0 0 1 0 0 2
EndChar

StartChar: uni2123
Encoding: 8483 8483 430
Width: 827
UnlinkRmOvrlpSave: 1
Flags: HW
HStem: 658 36<188.341 269 596.689 669.375 765.391 828.825> 658 38<10.0789 73.9741>
VStem: 397 46<-27 41.9461>
LayerCount: 2
Fore
SplineSet
201 -72 m 1x20
 307 95.0902527076 457 461.097472924 453 479 c 1
 342 519 l 1
 333.75 542.192771084 379.209090147 573.033501641 408 596 c 1
 455.19 579.23 481.81 569.77 529 553 c 1
 489 475 288.146067416 -19.3583460949 253 -97 c 1
 201 -72 l 1x20
EndSplineSet
Refer: 54 86 N 1 0 0 1 0 0 2
EndChar

StartChar: estimated
Encoding: 8494 8494 431
Width: 752
VWidth: 0
Flags: W
HStem: -9 50.917<266.135 484.333> 310.923 51.15<191.384 562.454> 632.006 50.917<264.706 485.147>
VStem: 30.1973 161.187<217.349 310.923 362.073 455.702> 562.454 159.576<362.073 456.3>
LayerCount: 2
Fore
SplineSet
632.777 191.846 m 1
 676.861 166.441 l 1
 673.98 161.581 l 2
 613.377 59.3301 501.767 -9 376 -9 c 0
 189.553 -9 30.1973 142.604 30.1973 338.341 c 0
 30.1973 525.945 184.438 682.615 375.52 682.923 c 2
 376.044 682.923 l 2
 564.48 682.923 722.035 529.016 722.03 336.942 c 0
 722.03 329.967 721.813 323.039 721.4 316.168 c 2
 721.084 310.923 l 1
 191.384 310.923 l 1
 191.384 107.399 l 1
 242.467 66.2236 307.069 41.917 376 41.917 c 0
 483.087 41.917 578.216 100.053 629.964 187.113 c 2
 632.777 191.846 l 1
191.384 566.668 m 1
 191.384 362.073 l 1
 562.454 362.073 l 1
 562.454 565.158 l 1
 511.302 606.997 446.18 632.006 376.044 632.006 c 2
 375.598 632.006 l 2
 305.803 631.894 241.805 607.323 191.384 566.668 c 1
EndSplineSet
Validated: 33
EndChar

StartChar: uni2023
Encoding: 8227 8227 436
Width: 614
Flags: W
HStem: 245.313 86.8271<277.825 527.585>
LayerCount: 2
Back
Fore
SplineSet
555 306.641 m 9
 555 276 l 17
 520 256 406.973 263.594 356 245.313 c 0
 137.841 205.319 171.251 96.8509 73.7197 8.78027 c 1
 52.1201 23.8203 l 17
 78.4402 121.58 102.61 383.548 37.0801 561.5 c 1
 69.96 569.021 l 17
 118.84 486.301 160.28 337.61 325.64 332.141 c 0
 415.653 328.91 517.4 321.212 555 306.641 c 9
EndSplineSet
Validated: 33
EndChar

StartChar: dagger
Encoding: 8224 8224 437
Width: 442
Flags: W
HStem: -237 10G<208 216> 247 98 290 55 728 10G<216 238>
VStem: 165 134<639 645 621 646 644 645 621 662> 202 39<-219 -3> 202 207<61 289 186 289 266 315 266 324>
LayerCount: 2
Fore
SplineSet
275 370 m 1x90
 247 262 246 250 234 -18 c 9
 209 -18 l 17
 195 266 194.440429688 282.899414062 168 370 c 1
 196 441 201 460 209 523 c 1
 134 513 l 2
 79 503 83 491 57 491 c 3
 43.9615951896 491 17 518 17 535 c 3
 17 552 45.9580078125 580 58 580 c 3
 83 580 84 569 134 560 c 2
 209 550 l 1
 198 620 l 2
 191 658 177 681 177 702 c 3
 177 718 205 741 222 741 c 3
 239 741 267 718 267 704 c 3
 267 681 253 657 246 620 c 2
 235 550 l 1
 310 560 l 2
 365 570 360 581 386 581 c 3
 398.165039062 581 427 554 427 537 c 3
 427 520 398.038085938 492 385 492 c 3
 360 492 360 504 310 513 c 2
 234 523 l 1
 242 461 247 442 275 370 c 1x90
EndSplineSet
Validated: 1
EndChar

StartChar: daggerdbl
Encoding: 8225 8225 438
Width: 442
Flags: W
HStem: -6 21G<212.5 229.5> 154 89<27.3301 140.031 301.969 413.942> 491 89<28.326 133.984 310.016 414.906>
VStem: 176 90<3.37628 120.469 620.011 730.972>
LayerCount: 2
Fore
SplineSet
176 369 m 1
 198.536585366 440 202.56097561 460 209 523 c 1
 134 513 l 2
 79 503 83 491 57 491 c 3
 43.9619140625 491 17 518 17 535 c 3
 17 552 45.9580078125 580 58 580 c 3
 83 580 84 569 134 560 c 2
 209 550 l 1
 198 620 l 2
 191 658 177 681 177 702 c 3
 177 718 205 741 222 741 c 3
 239 741 267 718 267 704 c 3
 267 681 253 657 246 620 c 2
 235 550 l 1
 310 560 l 2
 365 570 360 581 386 581 c 3
 398.165039062 581 427 554 427 537 c 3
 427 520 398.038085938 492 385 492 c 3
 360 492 360 504 310 513 c 2
 234 523 l 1
 240.43902439 461 244.463414634 441 267 369 c 1
 244.463414634 298 240.43902439 275 234 212 c 1
 309 222 l 2
 364 232 360 244 386 244 c 3
 399.038085938 244 426 217 426 200 c 3
 426 183 397.041992188 155 385 155 c 3
 360 155 359 166 309 175 c 2
 234 185 l 1
 245 115 l 2
 252 77 266 54 266 33 c 3
 266 17 238 -6 221 -6 c 3
 204 -6 176 17 176 31 c 3
 176 54 190 78 197 115 c 2
 208 185 l 1
 133 175 l 2
 78 165 83 154 57 154 c 3
 44.8349609375 154 16 181 16 198 c 3
 16 215 44.9619140625 243 58 243 c 3
 83 243 83 231 133 222 c 2
 209 212 l 1
 202.56097561 274 198.536585366 297 176 369 c 1
EndSplineSet
Validated: 1
EndChar

StartChar: longs
Encoding: 383 383 445
Width: 357
VWidth: 1159
Flags: W
HStem: -6 36<34 97.3708 215.17 284.568> 1 32<191.619 282.018> 356 25<46 67.3182> 701 55<273.459 377.117>
VStem: 113 72<42.1466 356 403 602.768>
AnchorPoint: "Top" 262 748 basechar 0
AnchorPoint: "Bottom" 156 -15 basechar 0
LayerCount: 2
Fore
SplineSet
359 756 m 3x78
 391 756 441 745 466 723 c 1
 465 696 466 696 417 659 c 1
 378 677 347 701 309 701 c 3
 206 701 201 609 191 498 c 0
 187.339 461.394 185 339.326 185 293 c 3
 185 211 186 134 191 54 c 0
 192 39 198 34 214 33 c 0x78
 239 32 262 32 287 31 c 1
 284 -6 l 1xb8
 242 -1 182 1 140 1 c 3x78
 110 1 64 -2 34 -6 c 1
 33 30 l 1xb8
 44 31 58 31 69 33 c 0
 100 40 104 53 106 81 c 0
 111 133 114 201 114 266 c 3
 114 285.149 113 320.574 113 356 c 1
 46 356 l 1
 46 381 l 1
 113 403 l 1
 113 439.562 113 481.75 113 493 c 3
 113 601 156 657 224 704 c 0
 263 731 300 756 359 756 c 3x78
EndSplineSet
Validated: 1
Substitution2: "case-1" S
Substitution2: "pcap-1" s.pcap
Substitution2: "smcp-1" s.smcp
EndChar

StartChar: ohorn
Encoding: 417 417 448
Width: 550
VWidth: 0
UnlinkRmOvrlpSave: 1
Flags: HW
HStem: -27 74<228.683 364.173> 365.36 24.3843<349.604 421.731> 382.741 20G<338.441 342.053> 443 77<186.028 324.893>
VStem: 20 100<175.411 347.705> 426 104<146.108 331.039> 442.501 86.0273<403.736 481.559>
AnchorPoint: "Top" 251 465 basechar 0
AnchorPoint: "Bottom" 249 -15 basechar 0
AnchorPoint: "Middle" 255 206 basechar 0
LayerCount: 2
Fore
SplineSet
334.482421875 402.741210938 m 5xba
 349.62424831 396.926343349 372.471667174 389.744140625 386.686523438 389.744140625 c 7
 411.796269819 389.744140625 442.501138157 408.271731058 442.501138157 441.560602678 c 7
 442.501138157 449.63955766 438.983530489 459.025418514 428.6640625 470.818359375 c 5
 444.576416165 489.781030223 464.379979468 500.219391987 482.796821553 500.219391987 c 7
 512.365850716 500.219391987 528.528388939 475.09191665 528.528388939 445.9790134 c 7
 528.528388939 396.089685559 450.426516037 365.359813167 388.72825766 365.359813167 c 7xda
 357.132622939 365.359813167 342.400200021 377.606700862 334.482421875 402.741210938 c 5xba
EndSplineSet
Refer: 14 111 N 1 0 0 1 0 0 2
Substitution2: "smcp-1" ohorn.smcp
Substitution2: "case-1" Ohorn
Substitution2: "pcap-1" ohorn.pcap
EndChar

StartChar: uhorn
Encoding: 432 432 449
Width: 526
VWidth: 0
UnlinkRmOvrlpSave: 1
Flags: W
HStem: -11 55<175.733 263.795> 338 31<292 351.243> 402 20G<128 167>
VStem: 70 76<75.1633 330.249> 359 64<36.0058 52 76.9705 331.63> 493.501 86.0273<404.739 481.559>
AnchorPoint: "Top" 265 465 basechar 0
AnchorPoint: "Bottom" 256 -15 basechar 0
LayerCount: 2
Fore
SplineSet
410 375 m 5
 418.121414362 381.745491074 430.375771951 388.077148438 438 390.077148438 c 5
 462.968647592 396.077148438 493.500976562 408.485648026 493.500976562 441.560546875 c 7
 493.500976562 449.639517266 489.983409974 459.025396022 479.6640625 470.818359375 c 5
 495.576431876 489.781246013 515.380014732 500.219726562 533.796875 500.219726562 c 7
 563.365825233 500.219726562 579.528320312 475.092318034 579.528320312 445.979492188 c 7
 579.528320312 396.08959691 501.426629866 370.359375 439.728515625 365.359375 c 5
 422.413060772 365.359375 414.339204806 368.517835056 410 375 c 5
285 369 m 1
 339.422818792 375.199161305 395.899328859 382.557301496 438 390.077148438 c 1
 445 378 l 1
 431 335.584 423 173.632 423 137 c 3
 423 107 426.284077022 81.1592297825 429 54 c 0
 430 44 433 36 443 36 c 3
 447 36 473 43 493 48 c 1
 499 17 l 1
 463 8 419.410107664 -9.647473084 386 -18 c 0
 382 -19 381 -22 376 -22 c 3
 359 -22 359 0 354 52 c 1
 313 34 236 -11 178 -11 c 3
 140 -11 102.934188969 5.51320688895 86 44 c 0
 75 69 70 95 70 143 c 3
 70 198 73 255 73 312 c 0
 73 322 69 331 59 331 c 3
 49 331 28 319 22 317 c 1
 12 348 l 1
 53 359 107 394 149 422 c 1
 167 406 l 1
 152 336 146 254 146 177 c 3
 146 106 161 44 232 44 c 3
 269 44 322 69 353 85 c 1
 354 154 359 291 359 298 c 3
 359 337 329 337 292 338 c 1
 285 369 l 1
EndSplineSet
Substitution2: "smcp-1" uhorn.smcp
Substitution2: "case-1" Uhorn
Substitution2: "pcap-1" uhorn.pcap
EndChar

StartChar: yen
Encoding: 165 165 451
Width: 463
VWidth: 1159
UnlinkRmOvrlpSave: 1
Flags: HW
HStem: -195.143 27.832<290.394 317.58> -20 36<93 383> 80 36<93 383>
VStem: 207.261 75.8369<-163.561 112.389>
LayerCount: 2
Fore
SplineSet
274.890625 169.708984375 m 1
 274.314622807 115.248982948 272.283654214 50.1171047102 283.09765625 -128.499023438 c 0
 285.015173967 -160.170886375 292.119204273 -161.0586431 320.783203125 -167.310546875 c 1
 317.580078125 -195.142578125 l 1
 274.689595576 -186.83690152 222.038207283 -183.218788643 178.485351562 -198.678710938 c 1
 171.08984375 -171.665039062 l 1
 195.610467016 -162.26863286 206.390990071 -155.268664903 207.260742188 -117.220703125 c 0
 207.787638441 -104.621204106 205.843021338 150.767976016 205.118164062 143.750976562 c 1
 204.034116885 150.049303618 155.095264654 248.178623374 87.2695828038 343.999997223 c 0
 76.0701508093 359.82210075 59.2291043945 378.720580661 49 385 c 1
 139 433 l 1
 144.933661013 402.938576204 168.652866704 351.939024868 181.091541944 327.999991964 c 0
 221.31584563 250.585724695 252.239236655 211.848881796 255.486328125 207.837890625 c 1
 299.730787717 303.031969433 321.320964056 356.628741888 331 433 c 1
 345.5 424.066173481 396.25 400.848034565 418 391 c 1
 345.004852928 317.965777551 314.263107929 249.458544383 274.890625 169.708984375 c 1
EndSplineSet
Refer: 1970 58113 N 0.29 0 0 1.125 93 -2 2
Refer: 1970 58113 N 0.29 0 0 1.125 93 98 2
Position2: "'lnum-2' vertical adjustment" dx=0 dy=190 dh=0 dv=0
EndChar

StartChar: eth
Encoding: 240 240 453
Width: 471
VWidth: 1159
UnlinkRmOvrlpSave: 1
Flags: HW
HStem: -5 49<172.89 302.553> 359 46<174.141 312.607> 700 27.4531<77.2373 85.8109>
VStem: 28 64<133.432 266.724> 366 69<130.061 336.627>
LayerCount: 2
Fore
SplineSet
354 309 m 1
 322 347 236.429148452 359 222 359 c 3
 198 359 92 331.004882812 92 226 c 3
 92 129.916992188 150.98046875 44 252 44 c 3
 332.374023438 44 366 128.150390625 366 202 c 3
 366 372.223208516 223 618 65 700 c 1
 69.0966796875 706.58203125 77.2373046875 727.453125 77.2373046875 727.453125 c 1
 260.283740169 675.166289781 435 439.719447105 435 235 c 3
 435 113.962890625 360.284179688 -5 193 -5 c 3
 102.911132812 -5 28 65.923828125 28 171 c 3
 28 326.389648438 176 405 264 405 c 3
 280.100844176 405 312.529887067 398.835864585 329 392 c 1
 354 309 l 1
EndSplineSet
Refer: 1970 58113 N 0.284488 0.177084 -0.547233 0.872389 104.756 489.958 2
Substitution2: "pcap-1" eth.pcap
Substitution2: "case-1" Eth
Substitution2: "smcp-1" eth.smcp
EndChar

StartChar: quotereversed
Encoding: 8219 8219 462
Width: 200
VWidth: 1159
Flags: W
HStem: 451 252
VStem: 29 141
LayerCount: 2
Fore
SplineSet
157 451 m 1
 39 516 29 627 29 633 c 3
 29 639 32 644 37 646 c 0
 58 657 76 673 87 694 c 0
 89 699 95 703 101 703 c 3
 107 703 113 699 115 694 c 0
 126 673 142 657 163 646 c 0
 168 644 170 639 170 633 c 3
 170 627 168 620 163 618 c 0
 142 607 120 592 110 570 c 0
 96 539 139 497 173 476 c 1
 157 451 l 1
EndSplineSet
Validated: 33
Position2: "cpsp-1" dx=0 dy=0 dh=7 dv=14
EndChar

StartChar: uni20B9
Encoding: 8377 8377 466
Width: 426
VWidth: 1159
UnlinkRmOvrlpSave: 1
Flags: W
HStem: -42 23<381.506 409> 283 31<32 113.386> 460.095 28.999<33.25 411.25>
VStem: 248 79<400.509 544.149>
LayerCount: 2
Fore
SplineSet
33.25 666.09375 m 1
 411.25 666.09375 l 1
 411.25 637.094726562 l 1
 33.25 637.094726562 l 1
 33.25 666.09375 l 1
33.25 489.09375 m 1
 411.25 489.09375 l 1
 411.25 460.094726562 l 1
 33.25 460.094726562 l 1
 33.25 489.09375 l 1
32.5 666 m 1
 57.25390625 666 67.658203125 666 96 666 c 0
 222.431640625 666 327 583 327 480 c 0
 327 393 262.599609375 334 189 304 c 1
 265.474609375 110.581054688 332.772460938 -13.0947265625 412 -19 c 1
 409 -42 l 1
 258 -39 178 134 114 284 c 1
 100.875 283 89.2080078125 283 79 283 c 0
 60.6474609375 283 50.3525390625 285.400390625 32 286 c 1
 32 316 l 1
 49.912109375 315.5 59.087890625 314 77 314 c 3
 219.663085938 314 248 410.737304688 248 469 c 3
 248 534.418945312 188.37890625 638 75 638 c 3
 61.8720703125 638 35.193359375 638 33.5 638 c 1
 32.5 666 l 1
EndSplineSet
EndChar

StartChar: eng
Encoding: 331 331 467
Width: 499
VWidth: 1159
Flags: W
HStem: -319 60<162.258 279.828> -5 33<20.3636 69> 335 29<32 79.6511> 338 61<245.574 353.747> 396 20G<129 175>
VStem: 95 75<72.7464 318.176 330 331.265> 379 69<-89.8607 313.154>
LayerCount: 2
Fore
SplineSet
329 -267 m 4xd6
 284.360294118 -296 253 -319 194 -319 c 7
 162 -319 112 -308 87 -286 c 5
 88 -259 87 -259 136 -222 c 5
 165.972222222 -237.857142857 189.796296296 -259 219 -259 c 7
 247.822033898 -259 296.27809609 -258.437912348 316 -237 c 4
 342.595265849 -208.090672547 360.595200234 -175.050461911 367 -146 c 4
 373.749647059 -115.385402827 379 -41.9109823322 379 143 c 7
 379 192.5 376.549026451 266.820841347 374 287 c 4
 369 328.328358209 348 358 293 358 c 7xd6
 245 358 203 344.4 170 324 c 5
 168 234.329113924 161 109.430379747 161 71 c 7
 161 27.80589946 195.795590225 30.6204409775 232 27 c 5
 228 -7 l 5
 189 -1 159 4 117 4 c 7
 87 4 51 -1 21 -5 c 5
 18 28 l 5
 55.449092135 34.8089258427 78.318284601 37.5524032329 87 76 c 4
 94 107 95 167 95 199 c 7
 95 219 92.9313485794 287.976104104 86 308 c 4
 77 334 72 336 54 336 c 7
 44 336 41 335 32 335 c 5
 30 364 l 5
 67 371 104 375 154 416 c 5xee
 175 401 l 5
 170 387.056338028 167 366.915492958 167 346 c 5
 215 377 267 415 330 415 c 7
 403 415 448 375 448 304 c 7
 448 213.433607383 445 119.425469455 445 -84 c 7
 445 -134 432.819094368 -164.880515375 419 -186 c 4
 396.752808989 -220 368.44138087 -241.377070309 329 -267 c 4xd6
EndSplineSet
Validated: 1
Substitution2: "smcp-1" eng.smcp
Substitution2: "case-1" Eng
Substitution2: "pcap-1" eng.pcap
EndChar

StartChar: Eng
Encoding: 330 330 468
Width: 836
VWidth: 1159
Flags: W
HStem: -241 62<483.653 578.44> -10 44<23.3182 86.8179 186.794 270.067> 655 39<771.217 833> 663 38<601.079 678.507>
VStem: 97 55<66.5393 314.07> 105 56<351.62 550> 676.266 70.7344<-86.2532 70.0219>
LayerCount: 2
Fore
SplineSet
628 -189 m 0xe6
 589 -216 552 -241 493 -241 c 3
 461 -241 411 -230 386 -208 c 1
 387.224489796 -178.046875 386 -178.046875 446 -137 c 1
 485 -155 508.349151158 -179 554 -179 c 3
 640.616503398 -179 676.265625 -76.9678502479 676.265625 -13.4755859375 c 3
 676.265625 48.2626834417 640.03404243 103.097021502 604 139.090820312 c 0
 459.896 279.614068929 313.026 416.065410818 161 550 c 1xe6
 152 154 l 2
 149.672574689 52.4216563039 186 44.674796748 277 35 c 1
 269 -11 l 1
 229.225006617 -2.55029543162 191.72886241 0.193359375 156.584960938 0.193359375 c 0
 107.789937357 0.193359375 63.5294692282 -6.59829339283 24 -10 c 1
 19 34 l 1
 77 34 94.2505340003 45.0370931165 97 93 c 0xea
 106 246.782786885 108.836453881 409.412965035 105 571 c 0
 104 614 69 649 12 648 c 1
 14 692 l 1
 53 688 104.987806691 684 146 684 c 0
 161 684 162.224003945 680.217054625 169 673 c 0
 318.792 516.927864326 473.300161891 367.004316767 636 223.227539062 c 0
 659.155 202.310678333 682.86 176.9488472 699 154 c 1
 708 281.98180798 710.135155394 409.964631854 709 545 c 0
 708 667 656 656 597 663 c 1
 602 701 l 1xd6
 658.737273127 693.806776525 706.285370634 691.3984375 751.0625 691.3984375 c 0
 778.931628397 691.3984375 805.747514379 692.483615703 833 694 c 1
 837 655 l 1
 788 649 766.708243919 651.026764413 763 609 c 0
 748 442.189493433 745 264.596148366 745 86 c 0
 745 63 747 43 747 0 c 3
 747 -86.94 692.388915009 -144.42305884 628 -189 c 0xe6
EndSplineSet
Validated: 33
Position2: "cpsp-1" dx=0 dy=0 dh=50 dv=100
Substitution2: "c2pc-1" eng.pcap
Substitution2: "c2sc-1" eng.smcp
EndChar

StartChar: circumcombhigh
Encoding: 58081 58081 471
Width: 0
VWidth: 1159
Flags: HW
HStem: 450.319 133.361
VStem: -323.78 252.561
LayerCount: 2
Fore
SplineSet
-63.2197265625 476.559570312 m 1
 -85.3955078125 428.319335938 l 1
 -197.5 472.506835938 l 1
 -309.603515625 428.319335938 l 1
 -331.780273438 476.559570312 l 1
 -215.364257812 559.680664062 l 1
 -179.635742188 559.680664062 l 1
 -63.2197265625 476.559570312 l 1
EndSplineSet
EndChar

StartChar: a.pcap
Encoding: 57347 57347 643
Width: 549
VWidth: 1159
Flags: HW
AnchorPoint: "Top" 286 537 basechar 0
AnchorPoint: "Bottom" 273 -15 basechar 0
LayerCount: 2
Back
SplineSet
360.865292092 68.0184803607 m 2
 366.204849764 69.687386804 373.053975326 69.2411170052 375.544314716 69.8255569263 c 2
 375.385290354 66.4091796875 l 2
 363.644200761 86.3222366609 362.572284947 96.1149784641 355.826174656 112.776927535 c 1
 292.45081812 109.946159888 257.987728537 108.471626703 179.985640982 112.148006109 c 1
 173.763438155 98.7180246764 175.498725932 97.834653429 164.873532554 81.3037528678 c 1
 169.234135167 80.0008538681 174.4558958 78.5008311831 179.835820229 73.1727068575 c 2
 182.864860527 70.7125153532 l 1
 177.393061594 -4.92431878743 l 1
 168.750157278 -2.7978515625 l 2
 148.618293084 2.32579890399 128.81167385 3.7294921875 107.768554688 3.7294921875 c 0
 88.1700254386 3.7294921875 68.2377081 2.35831264886 49.3566172108 0.68359375 c 2
 42.0510094889 0.0417224542728 l 1
 41.2455649973 0.68359375 l 2
 39.1785129462 19.5605204889 37.2939167591 37.2879473096 33.5193803411 58.2392578125 c 2
 32.1640957021 71.7453223656 l 1
 39.6327010254 73.0241029151 l 2
 76.3520427757 77.7670174465 72.2076835509 76.4523967105 77.7219487981 86.5878298328 c 0
 140.979833022 230.584289911 192.317134559 337.24734096 229.385606991 435.707721813 c 0
 240.458758696 465.443040048 241.58041762 470.289031444 249.052978009 496.803710938 c 2
 250.589026856 496.754675937 l 1
 320.311211954 497.363870369 l 1
 321.519095522 497.309570312 l 2
 326.204606257 473.385493747 332.761758272 466.946521043 341.709297776 435.494298796 c 0
 388.950176463 281.27920656 423.197070914 227.744822578 484.014790099 73.9215799404 c 0
 486.815848703 71.5098661032 483.132607153 72.9891094536 513.647116269 71.6330529501 c 2
 519.821133789 70.7944653266 l 1
 520.128560409 57.5096396514 l 2
 521.025455197 39.4365187518 524.262159973 19.992314119 525.706746018 2.65809553063 c 2
 526.377559496 1.45189432638 l 1
 518.263780827 1.41796875 l 2
 488.111398896 1.29188831699 463.295757706 2.712890625 440.481445312 2.712890625 c 0
 419.66759915 2.712890625 401.353554063 1.42742087039 378.410390089 -5.0556640625 c 2
 371.030174602 -7.07005308129 l 1
 369.162489246 -5.0556640625 l 2
 369.134104715 -4.93817108074 354.96279907 53.6701448968 354.479689366 55.9756569233 c 2
 360.865292092 68.0184803607 l 2
204.416400225 178.980667798 m 1
 239.690497035 178.5427298 304.426098238 183.149740797 335.964975129 184.056701975 c 1
 321.00030764 232.76553184 292.307011518 293.09154071 275.714509943 344.380191136 c 1
 255.301073119 291.632290355 223.578928931 227.461521219 204.416400225 178.980667798 c 1
EndSplineSet
Fore
SplineSet
203 190 m 1
 231.746127251 190.734956732 309.248484576 195 336 195 c 1
 320.70325495 243.150364614 290.389074176 310.297151784 276 359 c 1
 259.869371493 311.610245287 221.539983026 238.472647138 203 190 c 1
369.435546875 -5.0556640625 m 1
 369.435546875 -5.0556640625 357.613199764 50.1192052084 355.86328125 59.09375 c 1
 367.392191371 62.95703125 375.775380051 57.9366197769 370.96484375 72.4091796875 c 0
 363.481755126 94.9221474016 362.680573141 102.339563146 356 125 c 1
 292.658327993 125 258.689889576 125 179 124 c 1
 171.354035506 99.0121665465 169 88 165 78 c 0
 161.603838066 69.5095951638 166.649211811 68.279296875 178.37109375 62.9716796875 c 1
 176.541992188 -2.7978515625 l 1
 153.598968016 2.3544921875 131.166288114 3.7294921875 107.768554688 3.7294921875 c 3
 85.4971537189 3.7294921875 56.0029296875 -2.3046875 34.8017578125 -3.5556640625 c 1
 31.5126953125 16.4169921875 35.4736177772 40.4494794727 29.37109375 62.9716796875 c 1
 68.8696758645 68.7332345377 70.869143908 68.6903828394 77.37109375 83.9716796875 c 0
 141.032083585 233.591794723 191.859428301 345.19153372 230.412109375 447.724609375 c 0
 241.493164062 477.1953125 242.833007812 482.680664062 250.266601562 508.803710938 c 1
 322.162109375 509.309570312 l 1
 328.645256292 484.216796875 330.40374749 476.827127864 340.515625 447.541992188 c 0
 395.103078637 289.450580923 416.630268135 231.560662983 482 78 c 0
 488.528596441 62.6636115953 491.481371823 62.6824273703 521 63 c 1
 521.865829279 42.150332045 524.916324839 20.2902320318 526.232421875 1.41796875 c 1
 493.260887586 1.29296875 465.989067779 2.712890625 440.481445312 2.712890625 c 3
 430.063803751 2.712890625 395.733676428 1.4150390625 369.435546875 -5.0556640625 c 1
EndSplineSet
EndChar

StartChar: b.pcap
Encoding: 57348 57348 644
Width: 549
VWidth: 1159
Flags: HW
AnchorPoint: "Top" 270 537 basechar 0
AnchorPoint: "Bottom" 278 -15 basechar 0
LayerCount: 2
Back
SplineSet
81.2748745397 76.6840497447 m 2
 101.504573614 76.2898003867 118.231609261 75.2911436725 126.904826563 72.7202919132 c 1
 127.38523531 97.5972978005 125.94140625 147.509912739 125.94140625 209.520507812 c 0
 125.94140625 315.691710235 124.600063864 410.476462012 120.217149155 421.586974917 c 1
 105.289675605 422.338887711 86.7096140661 424.101163005 75.4581569032 425.822965157 c 0
 67.8672613214 426.964249242 l 1
 81.7962245011 506.949749144 l 1
 89.13625718 505.731445312 l 0
 121.821190362 500.247403935 113.858419982 496.318359375 167.751953125 496.318359375 c 0
 214.050440903 496.318359375 246.250043485 503.66796875 292.741210938 503.66796875 c 0
 390.56236588 503.66796875 456.68359375 453.400526252 456.68359375 371.892578125 c 0
 456.68359375 327.428232316 442.485558971 285.076646669 406.691039525 263.401535841 c 1
 465.778077787 243.939031139 500.61328125 200.268165766 500.61328125 145.416992188 c 0
 500.61328125 51.2386042087 405.542104808 -2.3564453125 297.151367188 -2.3564453125 c 0
 250.756553795 -2.3564453125 224.651079453 1.021484375 172.754882812 1.021484375 c 0
 150.738944648 1.021484375 137.457265713 0.776017069917 128.113527061 0.373961299638 c 0
 111.369278324 -0.340868605236 106.833052963 -1.59501508154 85.8912538077 -2.9501953125 c 0
 78.4180969913 -3.43251854635 l 1
 73.1172151963 76.832220172 l 1
 81.2748745397 76.6840497447 l 2
304.210867742 285.107103896 m 1
 342.420053529 294.75835436 350.431640625 318.355453626 350.431640625 351.084960938 c 0
 350.431640625 390.998682776 338.505831383 427.672851562 295.415039062 427.672851562 c 0
 273.031212187 427.672851562 239.574392635 425.638533998 228.549466362 424.088344169 c 1
 227.311065511 417.889147845 227.13877974 409.023744742 226.75483588 404.353874746 c 1
 224.457663365 363.53558853 225.909079199 317.119128819 226.889618145 283.742700659 c 1
 287.929531085 283.691538931 288.851711608 283.209681346 304.210867742 285.107103896 c 1
298.500757144 216.227540522 m 0
 277.537967879 216.236110754 251.572085071 213.111009849 226.78667609 212.471361254 c 1
 227.775095934 149.150114591 226.121360152 108.375031604 226.69378311 73.9499603945 c 1
 240.668105933 74.5606534857 282.076821173 75.837890625 314.790039062 75.837890625 c 0
 355.028666556 75.837890625 392.279296875 94.5740689039 392.279296875 151.471679688 c 0
 392.279296875 186.682939065 372.986422223 216.156647705 298.500757144 216.227540522 c 0
EndSplineSet
Fore
SplineSet
74.138671875 65.6865234375 m 1
 106.828125 65.7673920228 125.440429688 66.3779296875 126.360351562 69.125 c 0
 128.889648438 76.8876953125 126.44140625 135.260642982 126.44140625 213.520507812 c 3
 126.44140625 321.169040922 126.016117438 418.104754808 119.5625 429.83984375 c 0
 116.788085938 434.884765625 115.080078125 435.258789062 110.663085938 435.40234375 c 0
 97.1826171875 435.83984375 80.3232421875 437.889648438 68.5732421875 439.65625 c 1
 80.908203125 509.731445312 l 1
 114.716296554 504.572265625 108.869001498 500.318359375 167.751953125 500.318359375 c 3
 214.942382812 500.318359375 247.176757812 507.66796875 292.741210938 507.66796875 c 3
 391.473958303 507.66796875 455.18359375 457.137695312 455.18359375 375.892578125 c 3
 455.18359375 326.654201412 434.092891257 281.580068935 402.234375 267.68359375 c 1
 463.406280797 252.711654101 499.11328125 207.533587805 499.11328125 149.416992188 c 3
 499.11328125 53.960807808 406.96051513 -2.3564453125 297.151367188 -2.3564453125 c 3
 251.21875 -2.3564453125 225.05078125 1.021484375 172.754882812 1.021484375 c 3
 105.852630437 1.021484375 112.942106799 -0.88671875 78.408203125 -2.9501953125 c 1
 74.138671875 65.6865234375 l 1
305.548828125 284.715820312 m 0
 341.194084697 294.454916868 349.931640625 321.941311128 349.931640625 355.084960938 c 3
 349.931640625 395.587684204 336.585887525 439.672851562 282.415039062 439.672851562 c 3
 263.094742687 439.672851562 234.254087537 437.582630834 229.784179688 434.987304688 c 0
 227.067382812 433.409873071 226.496837781 421.525342078 226.267578125 417.24609375 c 0
 223.767578125 370.582319479 225.604492188 319.330860524 226.602539062 282.245117188 c 1
 287.228882875 282.245117188 289.762550351 280.402649409 305.548828125 284.715820312 c 0
290.505859375 226.727539062 m 0
 271.135055255 226.732229833 248.029471403 224.87890625 226.1640625 224.87890625 c 1
 226.462890625 152.71514193 225.323242188 113.838867188 226.305664062 74.705078125 c 0
 226.477539062 68.03125 226.509173683 65.5453819457 231.626953125 65.8486328125 c 0
 239.620164478 66.322265625 282.46770458 67.837890625 314.790039062 67.837890625 c 3
 354.589840361 67.837890625 392.779296875 90.8574700144 392.779296875 155.471679688 c 3
 392.779296875 194.744742876 368.219852383 226.695521523 290.505859375 226.727539062 c 0
EndSplineSet
EndChar

